Hack-Italic.ufo
<glyph name="exclam" format="1">
  <advance width="1233"/>
  <unicode hex="0021"/>
  <outline>
    <contour>
      <point x="647" y="1053" type="line" name="hr00"/>
      <point x="717" y="1498" type="line" name="at01"/>
      <point x="982" y="1498" type="line"/>
      <point x="912" y="1053" type="line"/>
      <point x="755" y="486" type="line"/>
      <point x="634" y="486" type="line"/>
    </contour>
    <contour>
      <point x="606" y="-60" type="curve" smooth="yes" name="dv01"/>
      <point x="562" y="-60"/>
      <point x="529" y="-48" name="dh01"/>
      <point x="505" y="-19" type="curve" smooth="yes"/>
      <point x="477" y="14" name="dv02"/>
      <point x="470" y="58"/>
      <point x="470" y="89" type="curve" smooth="yes" name="dh02"/>
      <point x="470" y="144"/>
      <point x="492" y="190"/>
      <point x="531" y="229" type="curve"/>
      <point x="570" y="266"/>
      <point x="616" y="284"/>
      <point x="664" y="284" type="curve" smooth="yes"/>
      <point x="705" y="284"/>
      <point x="743" y="271"/>
      <point x="768" y="244" type="curve" smooth="yes"/>
      <point x="797" y="212"/>
      <point x="802" y="168"/>
      <point x="802" y="148" type="curve" smooth="yes"/>
      <point x="802" y="91"/>
      <point x="778" y="31"/>
      <point x="731" y="-12" type="curve"/>
      <point x="699" y="-43"/>
      <point x="659" y="-60"/>
    </contour>
  </outline>
</glyph>
<glyph name="S" format="1">
  <advance width="1233"/>
  <unicode hex="0053"/>
  <outline>
    <contour>
      <point x="435" y="-29" type="curve" smooth="yes" name="dv01"/>
      <point x="358" y="-29"/>
      <point x="294" y="-21"/>
      <point x="226" y="-6" type="curve" smooth="yes"/>
      <point x="157" y="9"/>
      <point x="90" y="32" name="dv02"/>
      <point x="25" y="61" type="curve"/>
      <point x="66" y="270" type="line" name="ah02"/>
      <point x="131" y="225"/>
      <point x="197" y="191"/>
      <point x="265" y="168" type="curve" smooth="yes"/>
      <point x="333" y="145"/>
      <point x="403" y="135" name="sh01"/>
      <point x="475" y="135" type="curve" smooth="yes"/>
      <point x="590" y="135" name="at01"/>
      <point x="676" y="163"/>
      <point x="745" y="223" type="curve" smooth="yes"/>
      <point x="814" y="282"/>
      <point x="848" y="355"/>
      <point x="848" y="444" type="curve" smooth="yes" name="sv01"/>
      <point x="848" y="503"/>
      <point x="833" y="542" name="sh02"/>
      <point x="804" y="573" type="curve"/>
      <point x="769" y="608"/>
      <point x="715" y="631"/>
      <point x="627" y="659" type="curve" smooth="yes"/>
      <point x="526" y="692" type="line" smooth="yes" name="sh03"/>
      <point x="418" y="727"/>
      <point x="328" y="765"/>
      <point x="269" y="824" type="curve" smooth="yes" name="ah01"/>
      <point x="220" y="873" name="sh04"/>
      <point x="195" y="933"/>
      <point x="195" y="1025" type="curve" smooth="yes"/>
      <point x="195" y="1160"/>
      <point x="248" y="1285"/>
      <point x="360" y="1380" type="curve" smooth="yes"/>
      <point x="471" y="1473"/>
      <point x="618" y="1520"/>
      <point x="783" y="1520" type="curve" smooth="yes"/>
      <point x="847" y="1520"/>
      <point x="902" y="1513"/>
      <point x="962" y="1500" type="curve" smooth="yes"/>
      <point x="1023" y="1487"/>
      <point x="1080" y="1469"/>
      <point x="1147" y="1442" type="curve"/>
      <point x="1108" y="1237" type="line"/>
      <point x="1053" y="1276"/>
      <point x="997" y="1306"/>
      <point x="940" y="1326" type="curve" smooth="yes"/>
      <point x="882" y="1346"/>
      <point x="822" y="1356"/>
      <point x="759" y="1356" type="curve" smooth="yes"/>
      <point x="646" y="1356"/>
      <point x="554" y="1325"/>
      <point x="490" y="1274" type="curve" smooth="yes"/>
      <point x="426" y="1223"/>
      <point x="387" y="1151"/>
      <point x="387" y="1068" type="curve" smooth="yes"/>
      <point x="387" y="1016"/>
      <point x="403" y="979"/>
      <point x="436" y="950" type="curve" smooth="yes"/>
      <point x="469" y="921"/>
      <point x="526" y="894"/>
      <point x="614" y="866" type="curve" smooth="yes"/>
      <point x="735" y="827" type="line" smooth="yes"/>
      <point x="848" y="791"/>
      <point x="921" y="753"/>
      <point x="974" y="694" type="curve" smooth="yes"/>
      <point x="1025" y="638"/>
      <point x="1049" y="572"/>
      <point x="1049" y="473" type="curve" smooth="yes"/>
      <point x="1049" y="326"/>
      <point x="995" y="201"/>
      <point x="883" y="109" type="curve" smooth="yes"/>
      <point x="771" y="17"/>
      <point x="619" y="-29"/>
    </contour>
  </outline>
</glyph>
<glyph name="f" format="1">
  <advance width="1233"/>
  <unicode hex="0066"/>
  <outline>
    <contour>
      <point x="523" y="977" type="line" name="sv01"/>
      <point x="224" y="977" type="line" name="sv02"/>
      <point x="253" y="1120" type="line" name="at02"/>
      <point x="550" y="1120" type="line"/>
      <point x="566" y="1198" type="line" smooth="yes"/>
      <point x="594" y="1335"/>
      <point x="636" y="1418" name="at01"/>
      <point x="701" y="1474" type="curve" smooth="yes"/>
      <point x="768" y="1530" name="sv03"/>
      <point x="859" y="1556"/>
      <point x="984" y="1556" type="curve" smooth="yes"/>
      <point x="1205" y="1556" type="line"/>
      <point x="1174" y="1403" type="line" name="at03"/>
      <point x="966" y="1403" type="line" smooth="yes"/>
      <point x="903" y="1403" name="sv04"/>
      <point x="856" y="1389" name="sv05"/>
      <point x="823" y="1362" type="curve" name="ab01"/>
      <point x="788" y="1331"/>
      <point x="770" y="1284"/>
      <point x="755" y="1219" type="curve"/>
      <point x="734" y="1120" type="line"/>
      <point x="1119" y="1120" type="line"/>
      <point x="1093" y="977" type="line"/>
      <point x="708" y="977" type="line"/>
      <point x="517" y="0" type="line"/>
      <point x="333" y="0" type="line"/>
    </contour>
  </outline>
</glyph>
<glyph name="n" format="1">
  <advance width="1233"/>
  <unicode hex="006E"/>
  <outline>
    <contour>
      <point x="303" y="1120" type="line" name="at01"/>
      <point x="467" y="1120" type="line"/>
      <point x="455" y="952" type="line" name="iv01"/>
      <point x="504" y="1016"/>
      <point x="559" y="1065" name="at02"/>
      <point x="618" y="1098" type="curve" smooth="yes"/>
      <point x="675" y="1130" name="dh02"/>
      <point x="732" y="1147" name="sh01"/>
      <point x="807" y="1147" type="curve" smooth="yes"/>
      <point x="895" y="1147" name="ab01"/>
      <point x="968" y="1123"/>
      <point x="1019" y="1075" type="curve" smooth="yes"/>
      <point x="1070" y="1028"/>
      <point x="1096" y="957" name="dh01"/>
      <point x="1096" y="877" type="curve" smooth="yes"/>
      <point x="1096" y="854" name="sv01"/>
      <point x="1094" y="820"/>
      <point x="1091" y="793" type="curve" smooth="yes"/>
      <point x="1088" y="766" name="ab02"/>
      <point x="1084" y="741"/>
      <point x="1075" y="694" type="curve" smooth="yes"/>
      <point x="940" y="0" type="line" name="sh02"/>
      <point x="756" y="0" type="line"/>
      <point x="891" y="695" type="line"/>
      <point x="895" y="707"/>
      <point x="891" y="701"/>
      <point x="894" y="709" type="curve"/>
      <point x="905" y="764"/>
      <point x="909" y="783"/>
      <point x="909" y="817" type="curve" smooth="yes"/>
      <point x="909" y="876"/>
      <point x="894" y="915"/>
      <point x="863" y="944" type="curve" smooth="yes"/>
      <point x="832" y="973"/>
      <point x="788" y="987"/>
      <point x="730" y="987" type="curve" smooth="yes"/>
      <point x="644" y="987"/>
      <point x="572" y="956"/>
      <point x="513" y="894" type="curve" smooth="yes"/>
      <point x="454" y="831"/>
      <point x="413" y="744"/>
      <point x="391" y="633" type="curve" smooth="yes"/>
      <point x="268" y="0" type="line" name="hr01"/>
      <point x="84" y="0" type="line"/>
    </contour>
  </outline>
</glyph>
<glyph name="u" format="1">
  <advance width="1233"/>
  <unicode hex="0075"/>
  <outline>
    <contour>
      <point x="409" y="-27" type="curve" smooth="yes" name="ab02"/>
      <point x="322" y="-27"/>
      <point x="252" y="-3" name="dh01"/>
      <point x="201" y="46" type="curve" smooth="yes" name="sh01"/>
      <point x="149" y="97"/>
      <point x="125" y="167" name="at01"/>
      <point x="125" y="248" type="curve" smooth="yes"/>
      <point x="125" y="272"/>
      <point x="127" y="301"/>
      <point x="130" y="332" type="curve" smooth="yes" name="dh02"/>
      <point x="134" y="372"/>
      <point x="136" y="393" name="sv01"/>
      <point x="143" y="426" type="curve"/>
      <point x="276" y="1120" type="line"/>
      <point x="461" y="1120" type="line" name="at02"/>
      <point x="326" y="426" type="line"/>
      <point x="315" y="355" type="line" smooth="yes" name="ab01"/>
      <point x="312" y="332"/>
      <point x="311" y="311" name="iv01"/>
      <point x="311" y="298" type="curve" smooth="yes" name="hr02"/>
      <point x="311" y="249"/>
      <point x="325" y="206"/>
      <point x="358" y="175" type="curve" smooth="yes"/>
      <point x="389" y="147"/>
      <point x="434" y="133"/>
      <point x="489" y="133" type="curve" smooth="yes"/>
      <point x="569" y="133"/>
      <point x="644" y="162"/>
      <point x="704" y="225" type="curve" smooth="yes"/>
      <point x="764" y="289"/>
      <point x="804" y="379"/>
      <point x="825" y="487" type="curve" smooth="yes"/>
      <point x="948" y="1120" type="line"/>
      <point x="1133" y="1120" type="line"/>
      <point x="915" y="0" type="line"/>
      <point x="751" y="0" type="line"/>
      <point x="764" y="168" type="line"/>
      <point x="715" y="103"/>
      <point x="661" y="54"/>
      <point x="602" y="22" type="curve" smooth="yes"/>
      <point x="539" y="-13"/>
      <point x="477" y="-27"/>
    </contour>
  </outline>
</glyph>
<glyph name="paragraph" format="1">
  <advance width="1233"/>
  <unicode hex="00B6"/>
  <outline>
    <contour>
      <point x="506" y="649" type="line" name="hr00"/>
      <point x="388" y="652"/>
      <point x="295" y="685"/>
      <point x="227" y="748" type="curve" smooth="yes"/>
      <point x="159" y="811" name="at01"/>
      <point x="125" y="896"/>
      <point x="125" y="1004" type="curve" smooth="yes" name="av01"/>
      <point x="125" y="1143"/>
      <point x="183" y="1260" name="sv01"/>
      <point x="298" y="1353" type="curve" smooth="yes"/>
      <point x="413" y="1446" name="av02"/>
      <point x="559" y="1493"/>
      <point x="735" y="1493" type="curve" smooth="yes"/>
      <point x="1141" y="1493" type="line"/>
      <point x="813" y="-197" type="line"/>
      <point x="674" y="-197" type="line"/>
      <point x="977" y="1370" type="line"/>
      <point x="786" y="1370" type="line"/>
      <point x="483" y="-197" type="line"/>
      <point x="342" y="-197" type="line"/>
    </contour>
  </outline>
</glyph>
<glyph name="cedilla" format="1">
  <advance width="1233"/>
  <unicode hex="00B8"/>
  <outline>
    <contour>
      <point x="366" y="-395" type="curve" smooth="yes" name="dv01"/>
      <point x="339" y="-395"/>
      <point x="307" y="-393"/>
      <point x="276" y="-388" type="curve" smooth="yes"/>
      <point x="246" y="-383"/>
      <point x="215" y="-376" name="dv02"/>
      <point x="182" y="-365" type="curve"/>
      <point x="207" y="-236" type="line" name="dh01"/>
      <point x="234" y="-249"/>
      <point x="259" y="-258" name="ab01"/>
      <point x="284" y="-265" type="curve" smooth="yes"/>
      <point x="308" y="-271"/>
      <point x="331" y="-274" name="dh02"/>
      <point x="352" y="-274" type="curve" smooth="yes"/>
      <point x="397" y="-274"/>
      <point x="432" y="-264"/>
      <point x="457" y="-244" type="curve" smooth="yes"/>
      <point x="482" y="-224"/>
      <point x="494" y="-195"/>
      <point x="494" y="-163" type="curve" smooth="yes"/>
      <point x="494" y="-140"/>
      <point x="488" y="-114"/>
      <point x="480" y="-93" type="curve" smooth="yes"/>
      <point x="473" y="-77"/>
      <point x="456" y="-37"/>
      <point x="436" y="0" type="curve"/>
      <point x="555" y="0" type="line"/>
      <point x="580" y="-43"/>
      <point x="598" y="-80"/>
      <point x="610" y="-111" type="curve" smooth="yes"/>
      <point x="621" y="-141"/>
      <point x="627" y="-170"/>
      <point x="627" y="-198" type="curve" smooth="yes"/>
      <point x="627" y="-254"/>
      <point x="604" y="-304"/>
      <point x="557" y="-341" type="curve" smooth="yes"/>
      <point x="511" y="-377"/>
      <point x="447" y="-395"/>
    </contour>
  </outline>
</glyph>
<glyph name="Iacute" format="1">
  <advance width="1233"/>
  <unicode hex="00CD"/>
  <outline>
    <contour>
      <point x="891" y="1859" type="line" name="av01"/>
      <point x="1099" y="1859" type="line"/>
      <point x="792" y="1595" type="line"/>
      <point x="632" y="1595" type="line" name="iv01"/>
    </contour>
    <contour>
      <point x="90" y="170" type="line" name="sv01"/>
      <point x="403" y="170" type="line"/>
      <point x="627" y="1323" type="line" name="sv02"/>
      <point x="313" y="1323" type="line"/>
      <point x="346" y="1493" type="line" name="at01"/>
      <point x="1176" y="1493" type="line"/>
      <point x="1143" y="1323" type="line" name="sv03"/>
      <point x="829" y="1323" type="line" name="sv04"/>
      <point x="606" y="170" type="line" name="sv05"/>
      <point x="920" y="170" type="line" name="sv06"/>
      <point x="887" y="0" type="line" name="ab01"/>
      <point x="57" y="0" type="line"/>
    </contour>
  </outline>
</glyph>
<glyph name="Ocircumflex" format="1">
  <advance width="1233"/>
  <unicode hex="00D4"/>
  <outline>
    <contour>
      <point x="696" y="1861" type="line" name="sv02"/>
      <point x="909" y="1861" type="line"/>
      <point x="1067" y="1595" type="line" name="ih01"/>
      <point x="934" y="1595" type="line" name="sh02"/>
      <point x="795" y="1773" type="line"/>
      <point x="586" y="1595" type="line"/>
      <point x="434" y="1595" type="line" name="ih02"/>
    </contour>
    <contour>
      <point x="478" y="-29" type="curve" smooth="yes" name="dv01"/>
      <point x="343" y="-29"/>
      <point x="244" y="12" name="sh03"/>
      <point x="179" y="94" type="curve" smooth="yes"/>
      <point x="114" y="175"/>
      <point x="82" y="302"/>
      <point x="82" y="473" type="curve" smooth="yes"/>
      <point x="82" y="558"/>
      <point x="89" y="628" name="at01"/>
      <point x="104" y="712" type="curve" smooth="yes"/>
      <point x="120" y="805" name="sh01"/>
      <point x="137" y="880"/>
      <point x="168" y="975" type="curve" smooth="yes"/>
      <point x="189" y="1042"/>
      <point x="208" y="1090"/>
      <point x="231" y="1141" type="curve" smooth="yes"/>
      <point x="258" y="1198"/>
      <point x="280" y="1236" name="dv02"/>
      <point x="303" y="1271" type="curve" smooth="yes"/>
      <point x="360" y="1356"/>
      <point x="426" y="1419"/>
      <point x="501" y="1460" type="curve" smooth="yes" name="ah02"/>
      <point x="569" y="1497"/>
      <point x="648" y="1520" name="sv01"/>
      <point x="753" y="1520" type="curve" smooth="yes"/>
      <point x="886" y="1520"/>
      <point x="986" y="1484"/>
      <point x="1054" y="1397" type="curve" smooth="yes" name="sh04"/>
      <point x="1119" y="1316"/>
      <point x="1151" y="1191"/>
      <point x="1151" y="1024" type="curve" smooth="yes" name="ah01"/>
      <point x="1151" y="944" name="sh05"/>
      <point x="1144" y="868"/>
      <point x="1129" y="781" type="curve" smooth="yes"/>
      <point x="1114" y="696"/>
      <point x="1092" y="607"/>
      <point x="1063" y="516" type="curve" smooth="yes"/>
      <point x="1042" y="449"/>
      <point x="1024" y="402"/>
      <point x="1001" y="351" type="curve"/>
      <point x="982" y="312"/>
      <point x="956" y="262"/>
      <point x="928" y="219" type="curve" smooth="yes"/>
      <point x="876" y="140"/>
      <point x="807" y="75"/>
      <point x="731" y="32" type="curve" smooth="yes"/>
      <point x="658" y="-9"/>
      <point x="574" y="-29"/>
    </contour>
    <contour>
      <point x="498" y="135" type="curve" smooth="yes"/>
      <point x="555" y="135"/>
      <point x="611" y="151"/>
      <point x="660" y="186" type="curve" smooth="yes"/>
      <point x="713" y="225"/>
      <point x="750" y="278"/>
      <point x="778" y="331" type="curve" smooth="yes"/>
      <point x="829" y="427"/>
      <point x="871" y="565"/>
      <point x="898" y="684" type="curve" smooth="yes"/>
      <point x="929" y="821"/>
      <point x="944" y="959"/>
      <point x="944" y="1067" type="curve" smooth="yes"/>
      <point x="944" y="1182"/>
      <point x="927" y="1245"/>
      <point x="892" y="1289" type="curve" smooth="yes"/>
      <point x="857" y="1332"/>
      <point x="805" y="1356"/>
      <point x="734" y="1356" type="curve" smooth="yes"/>
      <point x="675" y="1356"/>
      <point x="620" y="1340"/>
      <point x="572" y="1305" type="curve" smooth="yes"/>
      <point x="525" y="1270"/>
      <point x="486" y="1220"/>
      <point x="455" y="1160" type="curve" smooth="yes"/>
      <point x="408" y="1072"/>
      <point x="364" y="945"/>
      <point x="333" y="808" type="curve" smooth="yes"/>
      <point x="302" y="675"/>
      <point x="287" y="541"/>
      <point x="287" y="429" type="curve" smooth="yes"/>
      <point x="287" y="311"/>
      <point x="305" y="248"/>
      <point x="340" y="203" type="curve" smooth="yes" name="hr01"/>
      <point x="379" y="155"/>
      <point x="434" y="135"/>
    </contour>
  </outline>
</glyph>
<glyph name="oacute" format="1">
  <advance width="1233"/>
  <unicode hex="00F3"/>
  <outline>
    <contour>
      <point x="907" y="1673" type="line" name="sh01"/>
      <point x="1126" y="1673" type="line" name="sh03"/>
      <point x="731" y="1297" type="line"/>
      <point x="575" y="1297" type="line" name="iv01"/>
    </contour>
    <contour>
      <point x="510" y="-29" type="curve" smooth="yes" name="dv01"/>
      <point x="387" y="-29"/>
      <point x="287" y="4" name="sh04"/>
      <point x="218" y="80" type="curve" smooth="yes"/>
      <point x="155" y="148"/>
      <point x="117" y="251"/>
      <point x="117" y="396" type="curve" smooth="yes" name="at01"/>
      <point x="117" y="483"/>
      <point x="131" y="572" name="sh02"/>
      <point x="158" y="663" type="curve" smooth="yes"/>
      <point x="183" y="747"/>
      <point x="221" y="833"/>
      <point x="274" y="910" type="curve" smooth="yes"/>
      <point x="328" y="989" name="dv02"/>
      <point x="391" y="1048"/>
      <point x="464" y="1087" type="curve" smooth="yes" name="ah02"/>
      <point x="539" y="1127"/>
      <point x="623" y="1147" name="sv01"/>
      <point x="717" y="1147" type="curve" smooth="yes"/>
      <point x="838" y="1147" name="sh05"/>
      <point x="941" y="1113"/>
      <point x="1012" y="1040" type="curve" smooth="yes"/>
      <point x="1080" y="969" name="ah01"/>
      <point x="1114" y="864" name="sh06"/>
      <point x="1114" y="726" type="curve" smooth="yes"/>
      <point x="1114" y="636"/>
      <point x="1100" y="545"/>
      <point x="1073" y="453" type="curve"/>
      <point x="1042" y="353"/>
      <point x="1001" y="270"/>
      <point x="958" y="207" type="curve" smooth="yes"/>
      <point x="902" y="126"/>
      <point x="842" y="69"/>
      <point x="766" y="30" type="curve" smooth="yes"/>
      <point x="690" y="-9"/>
      <point x="603" y="-29"/>
    </contour>
    <contour>
      <point x="533" y="127" type="curve" smooth="yes"/>
      <point x="649" y="127"/>
      <point x="744" y="190"/>
      <point x="812" y="298" type="curve"/>
      <point x="884" y="409"/>
      <point x="920" y="567"/>
      <point x="920" y="718" type="curve" smooth="yes"/>
      <point x="920" y="814"/>
      <point x="905" y="880"/>
      <point x="864" y="927" type="curve" smooth="yes"/>
      <point x="824" y="972"/>
      <point x="767" y="991"/>
      <point x="702" y="991" type="curve" smooth="yes"/>
      <point x="582" y="991"/>
      <point x="490" y="928"/>
      <point x="422" y="820" type="curve" smooth="yes"/>
      <point x="355" y="715"/>
      <point x="313" y="563"/>
      <point x="313" y="402" type="curve" smooth="yes"/>
      <point x="313" y="306"/>
      <point x="328" y="238"/>
      <point x="369" y="191" type="curve" smooth="yes"/>
      <point x="408" y="148"/>
      <point x="466" y="127"/>
    </contour>
  </outline>
</glyph>
<glyph name="ocircumflex" format="1">
  <advance width="1233"/>
  <unicode hex="00F4"/>
  <outline>
    <contour>
      <point x="717" y="1673" type="line" name="av01"/>
      <point x="864" y="1673" type="line"/>
      <point x="1028" y="1297" type="line" name="ih01"/>
      <point x="895" y="1297" type="line"/>
      <point x="778" y="1538" type="line" name="ih02"/>
      <point x="553" y="1297" type="line"/>
      <point x="397" y="1297" type="line" name="ih03"/>
    </contour>
    <contour>
      <point x="510" y="-29" type="curve" smooth="yes" name="dv01"/>
      <point x="387" y="-29"/>
      <point x="287" y="4" name="sh02"/>
      <point x="218" y="80" type="curve" smooth="yes"/>
      <point x="155" y="148"/>
      <point x="117" y="251"/>
      <point x="117" y="396" type="curve" smooth="yes" name="at01"/>
      <point x="117" y="483"/>
      <point x="131" y="572" name="sh01"/>
      <point x="158" y="663" type="curve" smooth="yes"/>
      <point x="183" y="747"/>
      <point x="221" y="833"/>
      <point x="274" y="910" type="curve" smooth="yes"/>
      <point x="328" y="989" name="dv02"/>
      <point x="391" y="1048"/>
      <point x="464" y="1087" type="curve" smooth="yes" name="ah02"/>
      <point x="539" y="1127"/>
      <point x="623" y="1147" name="sv01"/>
      <point x="717" y="1147" type="curve" smooth="yes"/>
      <point x="838" y="1147" name="sh03"/>
      <point x="941" y="1113"/>
      <point x="1012" y="1040" type="curve" smooth="yes"/>
      <point x="1080" y="969" name="ah01"/>
      <point x="1114" y="864" name="sh04"/>
      <point x="1114" y="726" type="curve" smooth="yes"/>
      <point x="1114" y="636"/>
      <point x="1100" y="545"/>
      <point x="1073" y="453" type="curve"/>
      <point x="1042" y="353"/>
      <point x="1001" y="270"/>
      <point x="958" y="207" type="curve" smooth="yes"/>
      <point x="902" y="126"/>
      <point x="842" y="69"/>
      <point x="766" y="30" type="curve" smooth="yes"/>
      <point x="690" y="-9"/>
      <point x="603" y="-29"/>
    </contour>
    <contour>
      <point x="533" y="127" type="curve" smooth="yes"/>
      <point x="649" y="127"/>
      <point x="744" y="190"/>
      <point x="812" y="298" type="curve"/>
      <point x="884" y="409"/>
      <point x="920" y="567"/>
      <point x="920" y="718" type="curve" smooth="yes"/>
      <point x="920" y="814"/>
      <point x="905" y="880"/>
      <point x="864" y="927" type="curve" smooth="yes"/>
      <point x="824" y="972"/>
      <point x="767" y="991"/>
      <point x="702" y="991" type="curve" smooth="yes"/>
      <point x="582" y="991"/>
      <point x="490" y="928"/>
      <point x="422" y="820" type="curve" smooth="yes"/>
      <point x="355" y="715"/>
      <point x="313" y="563"/>
      <point x="313" y="402" type="curve" smooth="yes"/>
      <point x="313" y="306"/>
      <point x="328" y="238"/>
      <point x="369" y="191" type="curve" smooth="yes"/>
      <point x="408" y="148"/>
      <point x="466" y="127"/>
    </contour>
  </outline>
</glyph>
<glyph name="thorn" format="1">
  <advance width="1233"/>
  <unicode hex="00FE"/>
  <outline>
    <contour>
      <point x="385" y="1567" type="line" name="at01"/>
      <point x="569" y="1567" type="line"/>
      <point x="455" y="977" type="line" name="iv01"/>
      <point x="496" y="1032"/>
      <point x="545" y="1074" name="at02"/>
      <point x="602" y="1103" type="curve" smooth="yes"/>
      <point x="659" y="1132" name="dh02"/>
      <point x="721" y="1147"/>
      <point x="788" y="1147" type="curve" smooth="yes"/>
      <point x="889" y="1147"/>
      <point x="979" y="1115" name="dv01"/>
      <point x="1040" y="1043" type="curve" smooth="yes"/>
      <point x="1100" y="974" name="iv02"/>
      <point x="1128" y="873" name="av01"/>
      <point x="1128" y="744" type="curve" smooth="yes"/>
      <point x="1128" y="659" name="dv02"/>
      <point x="1116" y="561"/>
      <point x="1089" y="465" type="curve" smooth="yes"/>
      <point x="1061" y="362"/>
      <point x="1020" y="275" name="dh01"/>
      <point x="979" y="211" type="curve" smooth="yes"/>
      <point x="928" y="131" name="sv01"/>
      <point x="870" y="73"/>
      <point x="802" y="32" type="curve" smooth="yes"/>
      <point x="735" y="-9"/>
      <point x="660" y="-29"/>
      <point x="578" y="-29" type="curve" smooth="yes"/>
      <point x="511" y="-29"/>
      <point x="455" y="-15"/>
      <point x="408" y="13" type="curve" smooth="yes" name="sh01"/>
      <point x="360" y="42"/>
      <point x="322" y="84"/>
      <point x="293" y="141" type="curve"/>
      <point x="182" y="-426" type="line"/>
      <point x="-2" y="-426" type="line"/>
    </contour>
    <contour>
      <point x="567" y="127" type="curve" smooth="yes"/>
      <point x="624" y="127"/>
      <point x="675" y="144"/>
      <point x="718" y="172" type="curve" smooth="yes"/>
      <point x="763" y="203"/>
      <point x="798" y="244"/>
      <point x="829" y="301" type="curve" smooth="yes"/>
      <point x="861" y="361"/>
      <point x="889" y="437"/>
      <point x="906" y="509" type="curve" smooth="yes"/>
      <point x="925" y="586"/>
      <point x="934" y="664"/>
      <point x="934" y="731" type="curve" smooth="yes"/>
      <point x="934" y="828"/>
      <point x="915" y="889"/>
      <point x="883" y="928" type="curve" smooth="yes"/>
      <point x="847" y="972"/>
      <point x="793" y="991"/>
      <point x="728" y="991" type="curve" smooth="yes"/>
      <point x="673" y="991"/>
      <point x="622" y="976"/>
      <point x="576" y="946" type="curve" smooth="yes"/>
      <point x="527" y="914"/>
      <point x="492" y="873"/>
      <point x="459" y="813" type="curve" smooth="yes"/>
      <point x="424" y="752"/>
      <point x="399" y="682"/>
      <point x="382" y="611" type="curve" smooth="yes"/>
      <point x="363" y="535"/>
      <point x="354" y="455"/>
      <point x="354" y="392" type="curve" smooth="yes"/>
      <point x="354" y="300"/>
      <point x="373" y="237"/>
      <point x="409" y="194" type="curve" smooth="yes"/>
      <point x="446" y="150"/>
      <point x="500" y="127"/>
    </contour>
  </outline>
</glyph>
<glyph name="ydieresis" format="1">
  <advance width="1233"/>
  <unicode hex="00FF"/>
  <outline>
    <contour>
      <point x="509" y="1320" type="line" smooth="yes" name="dv03"/>
      <point x="489" y="1320"/>
      <point x="478" y="1333"/>
      <point x="482" y="1353" type="curve" smooth="yes" name="dv04"/>
      <point x="510" y="1495" type="line" smooth="yes"/>
      <point x="513" y="1513"/>
      <point x="523" y="1522"/>
      <point x="542" y="1522" type="curve" smooth="yes"/>
      <point x="685" y="1522" type="line" smooth="yes" name="sv01"/>
      <point x="705" y="1522"/>
      <point x="716" y="1509"/>
      <point x="712" y="1489" type="curve" smooth="yes" name="sv02"/>
      <point x="684" y="1347" type="line" smooth="yes"/>
      <point x="681" y="1329"/>
      <point x="670" y="1320"/>
      <point x="652" y="1320" type="curve" smooth="yes"/>
    </contour>
    <contour>
      <point x="900" y="1320" type="line" smooth="yes"/>
      <point x="880" y="1320" name="dv02"/>
      <point x="869" y="1333"/>
      <point x="873" y="1353" type="curve" smooth="yes"/>
      <point x="901" y="1495" type="line" smooth="yes"/>
      <point x="904" y="1513" name="at01"/>
      <point x="914" y="1522"/>
      <point x="933" y="1522" type="curve" smooth="yes"/>
      <point x="1076" y="1522" type="line" smooth="yes" name="at02"/>
      <point x="1096" y="1522"/>
      <point x="1107" y="1509"/>
      <point x="1103" y="1489" type="curve" smooth="yes"/>
      <point x="1075" y="1347" type="line" smooth="yes"/>
      <point x="1072" y="1329"/>
      <point x="1061" y="1320" name="dv01"/>
      <point x="1043" y="1320" type="curve" smooth="yes"/>
    </contour>
    <contour>
      <point x="20" y="-272" type="line"/>
      <point x="128" y="-272" type="line" smooth="yes"/>
      <point x="183" y="-272"/>
      <point x="230" y="-256"/>
      <point x="268" y="-225" type="curve" smooth="yes"/>
      <point x="309" y="-192"/>
      <point x="349" y="-139"/>
      <point x="386" y="-66" type="curve" smooth="yes"/>
      <point x="429" y="18" type="line"/>
      <point x="212" y="1120" type="line"/>
      <point x="395" y="1120" type="line"/>
      <point x="567" y="258" type="line"/>
      <point x="1050" y="1120" type="line"/>
      <point x="1255" y="1120" type="line"/>
      <point x="816" y="360" type="line"/>
      <point x="684" y="128"/>
      <point x="744" y="237"/>
      <point x="651" y="72" type="curve" smooth="yes"/>
      <point x="515" y="-168"/>
      <point x="482" y="-221"/>
      <point x="442" y="-275" type="curve" smooth="yes"/>
      <point x="406" y="-322"/>
      <point x="366" y="-362"/>
      <point x="310" y="-389" type="curve" smooth="yes"/>
      <point x="261" y="-414"/>
      <point x="204" y="-426"/>
      <point x="139" y="-426" type="curve" smooth="yes"/>
      <point x="-9" y="-426" type="line"/>
    </contour>
  </outline>
</glyph>
<glyph name="Cacute" format="1">
  <advance width="1233"/>
  <unicode hex="0106"/>
  <outline>
    <contour>
      <point x="1008" y="1859" type="line" name="av01"/>
      <point x="1216" y="1859" type="line"/>
      <point x="909" y="1595" type="line"/>
      <point x="749" y="1595" type="line" name="iv01"/>
    </contour>
    <contour>
      <point x="597" y="-29" type="curve" smooth="yes" name="dv01"/>
      <point x="440" y="-29"/>
      <point x="321" y="20" name="dh01"/>
      <point x="241" y="103" type="curve" smooth="yes"/>
      <point x="158" y="188"/>
      <point x="115" y="313"/>
      <point x="115" y="492" type="curve" smooth="yes" name="at01"/>
      <point x="115" y="624"/>
      <point x="138" y="769"/>
      <point x="185" y="913" type="curve" smooth="yes"/>
      <point x="232" y="1060"/>
      <point x="292" y="1170" name="sv01"/>
      <point x="369" y="1266" type="curve" smooth="yes"/>
      <point x="444" y="1358"/>
      <point x="519" y="1417"/>
      <point x="606" y="1458" type="curve" smooth="yes" name="dh02"/>
      <point x="693" y="1499"/>
      <point x="788" y="1520" name="dv02"/>
      <point x="893" y="1520" type="curve" smooth="yes"/>
      <point x="954" y="1520"/>
      <point x="1005" y="1514"/>
      <point x="1058" y="1499" type="curve" smooth="yes"/>
      <point x="1111" y="1485"/>
      <point x="1163" y="1465"/>
      <point x="1212" y="1438" type="curve"/>
      <point x="1171" y="1231" type="line"/>
      <point x="1128" y="1272"/>
      <point x="1083" y="1304"/>
      <point x="1036" y="1325" type="curve" smooth="yes"/>
      <point x="990" y="1346"/>
      <point x="939" y="1356"/>
      <point x="884" y="1356" type="curve" smooth="yes"/>
      <point x="821" y="1356"/>
      <point x="762" y="1343"/>
      <point x="709" y="1316" type="curve" smooth="yes"/>
      <point x="656" y="1289"/>
      <point x="605" y="1248"/>
      <point x="557" y="1192" type="curve" smooth="yes"/>
      <point x="489" y="1112"/>
      <point x="431" y="1003"/>
      <point x="390" y="878" type="curve" smooth="yes"/>
      <point x="346" y="745"/>
      <point x="326" y="614"/>
      <point x="326" y="503" type="curve" smooth="yes"/>
      <point x="326" y="378"/>
      <point x="352" y="286"/>
      <point x="404" y="226" type="curve" smooth="yes"/>
      <point x="449" y="174"/>
      <point x="521" y="135"/>
      <point x="628" y="135" type="curve" smooth="yes"/>
      <point x="685" y="135"/>
      <point x="744" y="146"/>
      <point x="805" y="167" type="curve" smooth="yes"/>
      <point x="864" y="188"/>
      <point x="924" y="219"/>
      <point x="983" y="260" type="curve"/>
      <point x="944" y="53" type="line"/>
      <point x="888" y="26"/>
      <point x="832" y="6"/>
      <point x="775" y="-9" type="curve"/>
      <point x="724" y="-21"/>
      <point x="661" y="-29"/>
    </contour>
  </outline>
</glyph>
<glyph name="ccaron" format="1">
  <advance width="1233"/>
  <unicode hex="010D"/>
  <outline>
    <contour>
      <point x="561" y="1673" type="line" name="av01"/>
      <point x="692" y="1673" type="line"/>
      <point x="811" y="1430" type="line" name="iv01"/>
      <point x="1036" y="1673" type="line" name="av02"/>
      <point x="1192" y="1673" type="line"/>
      <point x="872" y="1297" type="line"/>
      <point x="725" y="1297" type="line"/>
    </contour>
    <contour>
      <point x="607" y="-29" type="curve" smooth="yes" name="dv01"/>
      <point x="454" y="-29"/>
      <point x="344" y="12" name="dh01"/>
      <point x="271" y="84" type="curve" smooth="yes"/>
      <point x="194" y="160"/>
      <point x="156" y="271"/>
      <point x="156" y="412" type="curve" smooth="yes" name="at01"/>
      <point x="156" y="512"/>
      <point x="174" y="617"/>
      <point x="209" y="709" type="curve" smooth="yes"/>
      <point x="244" y="801"/>
      <point x="294" y="883" name="sv01"/>
      <point x="354" y="950" type="curve" smooth="yes"/>
      <point x="418" y="1021"/>
      <point x="495" y="1070"/>
      <point x="559" y="1098" type="curve" smooth="yes" name="dh02"/>
      <point x="632" y="1131"/>
      <point x="714" y="1147" name="dv02"/>
      <point x="804" y="1147" type="curve" smooth="yes"/>
      <point x="863" y="1147"/>
      <point x="920" y="1140"/>
      <point x="975" y="1126" type="curve" smooth="yes"/>
      <point x="1026" y="1113"/>
      <point x="1084" y="1090"/>
      <point x="1137" y="1061" type="curve"/>
      <point x="1100" y="879" type="line"/>
      <point x="1057" y="918"/>
      <point x="1011" y="946"/>
      <point x="964" y="964" type="curve" smooth="yes"/>
      <point x="917" y="982"/>
      <point x="865" y="991"/>
      <point x="810" y="991" type="curve" smooth="yes"/>
      <point x="736" y="991"/>
      <point x="671" y="976"/>
      <point x="614" y="947" type="curve" smooth="yes"/>
      <point x="558" y="918"/>
      <point x="509" y="873"/>
      <point x="469" y="813" type="curve" smooth="yes"/>
      <point x="434" y="762"/>
      <point x="403" y="698"/>
      <point x="382" y="626" type="curve" smooth="yes"/>
      <point x="361" y="554"/>
      <point x="350" y="485"/>
      <point x="350" y="418" type="curve" smooth="yes"/>
      <point x="350" y="326"/>
      <point x="371" y="251"/>
      <point x="418" y="200" type="curve" smooth="yes"/>
      <point x="461" y="153"/>
      <point x="526" y="127"/>
      <point x="625" y="127" type="curve" smooth="yes"/>
      <point x="685" y="127"/>
      <point x="748" y="137"/>
      <point x="808" y="158" type="curve" smooth="yes"/>
      <point x="871" y="181"/>
      <point x="928" y="213"/>
      <point x="979" y="252" type="curve"/>
      <point x="940" y="51" type="line"/>
      <point x="883" y="20"/>
      <point x="835" y="4"/>
      <point x="784" y="-8" type="curve" smooth="yes"/>
      <point x="725" y="-23"/>
      <point x="671" y="-29"/>
    </contour>
  </outline>
</glyph>
<glyph name="Dcroat" format="1">
  <advance width="1233"/>
  <unicode hex="0110"/>
  <outline>
    <contour>
      <point x="129" y="709" type="line" name="dv01"/>
      <point x="2" y="709" type="line"/>
      <point x="31" y="858" type="line"/>
      <point x="160" y="858" type="line" name="dv02"/>
      <point x="283" y="1493" type="line" name="at01"/>
      <point x="586" y="1493" type="line" smooth="yes"/>
      <point x="955" y="1493" name="dh02"/>
      <point x="1130" y="1328"/>
      <point x="1130" y="983" type="curve" smooth="yes" name="ab01"/>
      <point x="1130" y="783"/>
      <point x="1071" y="538" name="sv01"/>
      <point x="975" y="354" type="curve"/>
      <point x="839" y="98" name="dh01"/>
      <point x="641" y="0" name="sv02"/>
      <point x="295" y="0" type="curve" smooth="yes"/>
      <point x="-8" y="0" type="line" name="sv03"/>
    </contour>
    <contour>
      <point x="324" y="166" type="line" smooth="yes"/>
      <point x="571" y="166" name="sv04"/>
      <point x="713" y="246"/>
      <point x="801" y="432" type="curve" smooth="yes"/>
      <point x="870" y="576"/>
      <point x="924" y="820" name="sh01"/>
      <point x="924" y="996" type="curve" smooth="yes"/>
      <point x="924" y="1233"/>
      <point x="825" y="1327"/>
      <point x="567" y="1327" type="curve" smooth="yes"/>
      <point x="453" y="1327" type="line"/>
      <point x="362" y="858" type="line"/>
      <point x="629" y="858" type="line"/>
      <point x="600" y="709" type="line"/>
      <point x="334" y="709" type="line"/>
      <point x="227" y="166" type="line"/>
    </contour>
  </outline>
</glyph>
<glyph name="Edotaccent" format="1">
  <advance width="1233"/>
  <unicode hex="0116"/>
  <outline>
    <contour>
      <point x="751" y="1627" type="line" smooth="yes" name="dv01"/>
      <point x="730" y="1627"/>
      <point x="715" y="1643"/>
      <point x="719" y="1666" type="curve" smooth="yes" name="dv02"/>
      <point x="746" y="1809" type="line" smooth="yes"/>
      <point x="749" y="1824"/>
      <point x="760" y="1832"/>
      <point x="775" y="1832" type="curve" smooth="yes"/>
      <point x="916" y="1832" type="line" smooth="yes" name="at01"/>
      <point x="937" y="1832"/>
      <point x="953" y="1816" name="sv01"/>
      <point x="949" y="1793" type="curve" smooth="yes"/>
      <point x="921" y="1650" type="line" smooth="yes"/>
      <point x="918" y="1635" name="dv04"/>
      <point x="907" y="1627" name="dv03"/>
      <point x="892" y="1627" type="curve" smooth="yes"/>
    </contour>
    <contour>
      <point x="344" y="1493" type="line" name="sv02"/>
      <point x="1229" y="1493" type="line"/>
      <point x="1196" y="1323" type="line" name="ab01"/>
      <point x="512" y="1323" type="line"/>
      <point x="426" y="881" type="line"/>
      <point x="1079" y="881" type="line"/>
      <point x="1047" y="711" type="line"/>
      <point x="393" y="711" type="line"/>
      <point x="289" y="170" type="line"/>
      <point x="991" y="170" type="line"/>
      <point x="958" y="0" type="line"/>
      <point x="53" y="0" type="line"/>
    </contour>
  </outline>
</glyph>
<glyph name="Eogonek" format="1">
  <advance width="1233"/>
  <unicode hex="0118"/>
  <outline>
    <contour>
      <point x="512" y="1323" type="line" name="sv01"/>
      <point x="426" y="881" type="line"/>
      <point x="1079" y="881" type="line" name="dv04"/>
      <point x="1047" y="711" type="line" name="dv03"/>
      <point x="393" y="711" type="line"/>
      <point x="289" y="170" type="line" name="sv02"/>
      <point x="991" y="170" type="line" name="sv03"/>
      <point x="958" y="0" type="line" name="ab01"/>
      <point x="862" y="0" type="line"/>
      <point x="781" y="-77" name="dh02"/>
      <point x="737" y="-144" name="dv02"/>
      <point x="737" y="-200" type="curve" smooth="yes"/>
      <point x="737" y="-247"/>
      <point x="769" y="-272" name="dv01"/>
      <point x="833" y="-272" type="curve" smooth="yes" name="dh01"/>
      <point x="872" y="-272" name="ab02"/>
      <point x="917" y="-262"/>
      <point x="960" y="-242" type="curve" name="at01"/>
      <point x="935" y="-375" type="line"/>
      <point x="889" y="-388"/>
      <point x="843" y="-395"/>
      <point x="796" y="-395" type="curve" smooth="yes"/>
      <point x="665" y="-395"/>
      <point x="591" y="-338"/>
      <point x="591" y="-245" type="curve" smooth="yes"/>
      <point x="591" y="-170"/>
      <point x="639" y="-93"/>
      <point x="743" y="0" type="curve"/>
      <point x="53" y="0" type="line"/>
      <point x="344" y="1493" type="line"/>
      <point x="1229" y="1493" type="line"/>
      <point x="1196" y="1323" type="line"/>
    </contour>
  </outline>
</glyph>
<glyph name="Gbreve" format="1">
  <advance width="1233"/>
  <unicode hex="011E"/>
  <outline>
    <contour>
      <point x="788" y="1619" type="curve" smooth="yes" name="dv03"/>
      <point x="708" y="1619"/>
      <point x="645" y="1639"/>
      <point x="598" y="1680" type="curve" smooth="yes" name="sv01"/>
      <point x="554" y="1719"/>
      <point x="523" y="1773" name="dv04"/>
      <point x="508" y="1861" type="curve"/>
      <point x="622" y="1861" type="line" name="sv02"/>
      <point x="633" y="1820"/>
      <point x="652" y="1790"/>
      <point x="678" y="1773" type="curve" smooth="yes"/>
      <point x="705" y="1754" name="dv01"/>
      <point x="740" y="1746"/>
      <point x="795" y="1746" type="curve" smooth="yes" name="dh01"/>
      <point x="850" y="1746"/>
      <point x="897" y="1755"/>
      <point x="933" y="1774" type="curve" smooth="yes"/>
      <point x="968" y="1793"/>
      <point x="995" y="1822"/>
      <point x="1013" y="1861" type="curve" name="at01"/>
      <point x="1134" y="1861" type="line"/>
      <point x="1112" y="1786"/>
      <point x="1070" y="1727"/>
      <point x="1009" y="1684" type="curve" smooth="yes"/>
      <point x="946" y="1641" name="sv03"/>
      <point x="873" y="1619"/>
    </contour>
    <contour>
      <point x="564" y="-29" type="curve" smooth="yes"/>
      <point x="401" y="-29"/>
      <point x="283" y="18"/>
      <point x="202" y="106" type="curve" smooth="yes" name="dh02"/>
      <point x="118" y="198"/>
      <point x="78" y="327" name="dv02"/>
      <point x="78" y="488" type="curve" smooth="yes"/>
      <point x="78" y="551"/>
      <point x="84" y="613"/>
      <point x="95" y="681" type="curve" smooth="yes" name="dv05"/>
      <point x="106" y="744" name="dv06"/>
      <point x="122" y="821"/>
      <point x="143" y="893" type="curve" smooth="yes"/>
      <point x="166" y="972"/>
      <point x="197" y="1049"/>
      <point x="225" y="1105" type="curve" smooth="yes"/>
      <point x="262" y="1180"/>
      <point x="301" y="1232"/>
      <point x="328" y="1267" type="curve" smooth="yes"/>
      <point x="393" y="1348"/>
      <point x="475" y="1415"/>
      <point x="566" y="1458" type="curve" smooth="yes"/>
      <point x="653" y="1499"/>
      <point x="749" y="1520"/>
      <point x="854" y="1520" type="curve" smooth="yes"/>
      <point x="915" y="1520"/>
      <point x="967" y="1514"/>
      <point x="1020" y="1499" type="curve"/>
      <point x="1074" y="1485"/>
      <point x="1126" y="1465"/>
      <point x="1176" y="1438" type="curve"/>
      <point x="1135" y="1231" type="line"/>
      <point x="1088" y="1276"/>
      <point x="1040" y="1306"/>
      <point x="999" y="1325" type="curve" smooth="yes"/>
      <point x="952" y="1346"/>
      <point x="901" y="1356"/>
      <point x="846" y="1356" type="curve" smooth="yes"/>
      <point x="779" y="1356"/>
      <point x="717" y="1342"/>
      <point x="662" y="1315" type="curve" smooth="yes"/>
      <point x="606" y="1288"/>
      <point x="551" y="1244"/>
      <point x="508" y="1192" type="curve" smooth="yes"/>
      <point x="478" y="1156"/>
      <point x="450" y="1113"/>
      <point x="425" y="1062" type="curve" smooth="yes"/>
      <point x="398" y="1007"/>
      <point x="376" y="951"/>
      <point x="356" y="887" type="curve" smooth="yes"/>
      <point x="332" y="810"/>
      <point x="316" y="737"/>
      <point x="305" y="673" type="curve" smooth="yes"/>
      <point x="293" y="604"/>
      <point x="287" y="550"/>
      <point x="287" y="494" type="curve" smooth="yes"/>
      <point x="287" y="378"/>
      <point x="313" y="289"/>
      <point x="366" y="228" type="curve" smooth="yes"/>
      <point x="419" y="165"/>
      <point x="492" y="135"/>
      <point x="592" y="135" type="curve" smooth="yes"/>
      <point x="640" y="135"/>
      <point x="677" y="142"/>
      <point x="712" y="154" type="curve" smooth="yes"/>
      <point x="751" y="167"/>
      <point x="778" y="184"/>
      <point x="803" y="207" type="curve"/>
      <point x="879" y="600" type="line"/>
      <point x="662" y="600" type="line" name="hr01"/>
      <point x="692" y="766" type="line"/>
      <point x="1102" y="766" type="line" name="hr02"/>
      <point x="969" y="96" type="line"/>
      <point x="912" y="55"/>
      <point x="848" y="24"/>
      <point x="779" y="3" type="curve" smooth="yes"/>
      <point x="711" y="-18"/>
      <point x="643" y="-29"/>
    </contour>
  </outline>
</glyph>
<glyph name="ncaron" format="1">
  <advance width="1233"/>
  <unicode hex="0148"/>
  <outline>
    <contour>
      <point x="519" y="1673" type="line" name="av01"/>
      <point x="650" y="1673" type="line"/>
      <point x="769" y="1430" type="line" name="iv01"/>
      <point x="994" y="1673" type="line" name="av02"/>
      <point x="1150" y="1673" type="line"/>
      <point x="830" y="1297" type="line"/>
      <point x="683" y="1297" type="line"/>
    </contour>
    <contour>
      <point x="303" y="1120" type="line" name="at01"/>
      <point x="467" y="1120" type="line"/>
      <point x="455" y="952" type="line" name="iv02"/>
      <point x="559" y="1085" name="at02"/>
      <point x="672" y="1147" name="dh02"/>
      <point x="809" y="1147" type="curve" smooth="yes"/>
      <point x="985" y="1147" name="ab01"/>
      <point x="1096" y="1045"/>
      <point x="1096" y="874" type="curve" smooth="yes"/>
      <point x="1096" y="827"/>
      <point x="1088" y="763" name="dh01"/>
      <point x="1075" y="694" type="curve" smooth="yes" name="sv01"/>
      <point x="940" y="0" type="line" name="hr01"/>
      <point x="756" y="0" type="line" name="ab02"/>
      <point x="891" y="695" type="line"/>
      <point x="894" y="709" type="line" smooth="yes"/>
      <point x="904" y="756" name="sh01"/>
      <point x="909" y="793"/>
      <point x="909" y="821" type="curve" smooth="yes"/>
      <point x="909" y="926"/>
      <point x="846" y="987"/>
      <point x="729" y="987" type="curve" smooth="yes"/>
      <point x="562" y="987"/>
      <point x="434" y="857"/>
      <point x="391" y="633" type="curve" smooth="yes"/>
      <point x="268" y="0" type="line"/>
      <point x="84" y="0" type="line"/>
    </contour>
  </outline>
</glyph>
<glyph name="eng" format="1">
  <advance width="1233"/>
  <unicode hex="014B"/>
  <outline>
    <contour>
      <point x="379" y="-270" type="line"/>
      <point x="564" y="-270" type="line" smooth="yes" name="dv02"/>
      <point x="688" y="-270"/>
      <point x="760" y="-187"/>
      <point x="792" y="-20" type="curve" smooth="yes" name="dh01"/>
      <point x="931" y="694" type="line" smooth="yes" name="sv01"/>
      <point x="939" y="737"/>
      <point x="943" y="775" name="ab01"/>
      <point x="943" y="810" type="curve" smooth="yes"/>
      <point x="943" y="895" name="at02"/>
      <point x="920" y="987"/>
      <point x="771" y="987" type="curve" smooth="yes" name="iv01"/>
      <point x="595" y="987" name="at01"/>
      <point x="476" y="862" name="dh02"/>
      <point x="432" y="633" type="curve" smooth="yes"/>
      <point x="309" y="0" type="line" name="hr01"/>
      <point x="125" y="0" type="line" name="dv01"/>
      <point x="343" y="1120" type="line"/>
      <point x="507" y="1120" type="line"/>
      <point x="494" y="952" type="line" name="sh01"/>
      <point x="586" y="1081"/>
      <point x="710" y="1147"/>
      <point x="865" y="1147" type="curve" smooth="yes"/>
      <point x="1091" y="1147"/>
      <point x="1134" y="1004"/>
      <point x="1134" y="864" type="curve" smooth="yes"/>
      <point x="1134" y="813"/>
      <point x="1128" y="757"/>
      <point x="1116" y="694" type="curve" smooth="yes"/>
      <point x="977" y="-20" type="line" smooth="yes"/>
      <point x="927" y="-280"/>
      <point x="774" y="-426"/>
      <point x="554" y="-426" type="curve" smooth="yes"/>
      <point x="349" y="-426" type="line"/>
    </contour>
  </outline>
</glyph>
<glyph name="Gcaron" format="1">
  <advance width="1233"/>
  <unicode hex="01E6"/>
  <outline>
    <contour>
      <point x="529" y="1861" type="line" name="sv03"/>
      <point x="665" y="1861" type="line"/>
      <point x="804" y="1683" type="line"/>
      <point x="1013" y="1861" type="line" name="sv02"/>
      <point x="1164" y="1861" type="line"/>
      <point x="900" y="1595" type="line"/>
      <point x="687" y="1595" type="line"/>
    </contour>
    <contour>
      <point x="563" y="-29" type="curve" smooth="yes" name="dv01"/>
      <point x="248" y="-29" name="dh01"/>
      <point x="78" y="156"/>
      <point x="78" y="487" type="curve" smooth="yes"/>
      <point x="78" y="612" name="at01"/>
      <point x="102" y="754"/>
      <point x="143" y="893" type="curve" smooth="yes"/>
      <point x="190" y="1050" name="sv01"/>
      <point x="248" y="1166"/>
      <point x="328" y="1266" type="curve" smooth="yes"/>
      <point x="465" y="1435" name="dh02"/>
      <point x="640" y="1520" name="dv02"/>
      <point x="852" y="1520" type="curve" smooth="yes"/>
      <point x="965" y="1520"/>
      <point x="1064" y="1495" name="dv03"/>
      <point x="1176" y="1438" type="curve" name="dv04"/>
      <point x="1135" y="1231" type="line"/>
      <point x="1049" y="1314"/>
      <point x="952" y="1356"/>
      <point x="845" y="1356" type="curve" smooth="yes"/>
      <point x="716" y="1356"/>
      <point x="599" y="1300"/>
      <point x="508" y="1192" type="curve" smooth="yes"/>
      <point x="443" y="1113"/>
      <point x="395" y="1010"/>
      <point x="356" y="887" type="curve"/>
      <point x="311" y="738"/>
      <point x="287" y="589"/>
      <point x="287" y="487" type="curve" smooth="yes"/>
      <point x="287" y="263"/>
      <point x="396" y="135"/>
      <point x="593" y="135" type="curve" smooth="yes"/>
      <point x="681" y="135"/>
      <point x="754" y="160"/>
      <point x="803" y="207" type="curve"/>
      <point x="879" y="600" type="line"/>
      <point x="662" y="600" type="line" name="hr01"/>
      <point x="692" y="766" type="line"/>
      <point x="1102" y="766" type="line"/>
      <point x="969" y="96" type="line"/>
      <point x="854" y="13"/>
      <point x="715" y="-29"/>
    </contour>
  </outline>
</glyph>
<glyph name="uni0311" format="1">
  <advance width="0"/>
  <unicode hex="0311"/>
  <outline>
    <contour>
      <point x="-817" y="1321" type="line" name="sv01"/>
      <point x="-765" y="1512" name="dv01"/>
      <point x="-642" y="1608" name="dh02"/>
      <point x="-447" y="1608" type="curve" smooth="yes" name="hr01"/>
      <point x="-255" y="1608" name="dh01"/>
      <point x="-187" y="1513" name="sv02"/>
      <point x="-187" y="1376" type="curve" smooth="yes" name="sv03"/>
      <point x="-187" y="1358"/>
      <point x="-188" y="1340"/>
      <point x="-190" y="1321" type="curve"/>
      <point x="-309" y="1321" type="line"/>
      <point x="-308" y="1426"/>
      <point x="-365" y="1471"/>
      <point x="-476" y="1471" type="curve" smooth="yes"/>
      <point x="-595" y="1471"/>
      <point x="-663" y="1420"/>
      <point x="-698" y="1321" type="curve"/>
    </contour>
  </outline>
</glyph>
<glyph name="uni0325" format="1">
  <advance width="0"/>
  <unicode hex="0325"/>
  <outline>
    <contour>
      <point x="-863" y="-502" type="curve" smooth="yes" name="ab01"/>
      <point x="-971" y="-502" name="sh01"/>
      <point x="-1039" y="-426" name="dv02"/>
      <point x="-1039" y="-322" type="curve" smooth="yes" name="sh02"/>
      <point x="-1039" y="-173"/>
      <point x="-897" y="-63" name="sv01"/>
      <point x="-768" y="-63" type="curve" smooth="yes" name="ah02"/>
      <point x="-661" y="-63" name="dv01"/>
      <point x="-591" y="-139" name="sh03"/>
      <point x="-591" y="-243" type="curve" smooth="yes"/>
      <point x="-591" y="-391" name="ah01"/>
      <point x="-732" y="-502"/>
    </contour>
    <contour>
      <point x="-843" y="-404" type="curve" smooth="yes"/>
      <point x="-771" y="-404"/>
      <point x="-691" y="-343"/>
      <point x="-691" y="-261" type="curve" smooth="yes"/>
      <point x="-691" y="-204"/>
      <point x="-730" y="-161"/>
      <point x="-790" y="-161" type="curve" smooth="yes"/>
      <point x="-859" y="-161"/>
      <point x="-939" y="-221"/>
      <point x="-939" y="-305" type="curve" smooth="yes"/>
      <point x="-939" y="-362"/>
      <point x="-903" y="-404"/>
    </contour>
  </outline>
</glyph>
<glyph name="uni0328" format="1">
  <advance width="0"/>
  <unicode hex="0328"/>
  <outline>
    <contour>
      <point x="-787" y="-395" type="curve" smooth="yes" name="dv01"/>
      <point x="-918" y="-395" name="dh01"/>
      <point x="-992" y="-338" name="ab01"/>
      <point x="-992" y="-245" type="curve" smooth="yes"/>
      <point x="-992" y="-170" name="dh02"/>
      <point x="-944" y="-93" name="dv02"/>
      <point x="-840" y="0" type="curve"/>
      <point x="-721" y="0" type="line"/>
      <point x="-802" y="-77"/>
      <point x="-846" y="-144"/>
      <point x="-846" y="-200" type="curve" smooth="yes"/>
      <point x="-846" y="-247"/>
      <point x="-814" y="-272"/>
      <point x="-750" y="-272" type="curve" smooth="yes"/>
      <point x="-711" y="-272"/>
      <point x="-666" y="-262"/>
      <point x="-623" y="-242" type="curve"/>
      <point x="-648" y="-375" type="line"/>
      <point x="-694" y="-388"/>
      <point x="-740" y="-395"/>
    </contour>
  </outline>
</glyph>
<glyph name="uni032A" format="1">
  <advance width="0"/>
  <unicode hex="032A"/>
  <outline>
    <contour>
      <point x="-860" y="-209" type="line"/>
      <point x="-309" y="-209" type="line" name="dv02"/>
      <point x="-373" y="-539" type="line" name="dv01"/>
      <point x="-510" y="-539" type="line"/>
      <point x="-472" y="-345" type="line" name="sv01"/>
      <point x="-749" y="-345" type="line"/>
      <point x="-787" y="-539" type="line" name="sv02"/>
      <point x="-924" y="-539" type="line"/>
    </contour>
  </outline>
</glyph>
<glyph name="uni0334" format="1">
  <advance width="0"/>
  <unicode hex="0334"/>
  <outline>
    <contour>
      <point x="-1139" y="666" type="line"/>
      <point x="-1019" y="746" name="dv04"/>
      <point x="-922" y="780"/>
      <point x="-808" y="780" type="curve" smooth="yes" name="hr01"/>
      <point x="-741" y="780" name="dv02"/>
      <point x="-685" y="767"/>
      <point x="-593" y="727" type="curve" smooth="yes"/>
      <point x="-576" y="719" name="dv01"/>
      <point x="-587" y="723"/>
      <point x="-563" y="712" type="curve" smooth="yes"/>
      <point x="-488" y="675" name="dv03"/>
      <point x="-432" y="657"/>
      <point x="-367" y="657" type="curve" smooth="yes" name="hr02"/>
      <point x="-271" y="657"/>
      <point x="-176" y="696"/>
      <point x="-60" y="780" type="curve"/>
      <point x="-94" y="606" type="line" name="hr03"/>
      <point x="-204" y="530"/>
      <point x="-309" y="492"/>
      <point x="-408" y="492" type="curve" smooth="yes" name="hr04"/>
      <point x="-476" y="492"/>
      <point x="-537" y="508"/>
      <point x="-606" y="543" type="curve"/>
      <point x="-619" y="548"/>
      <point x="-611" y="546"/>
      <point x="-636" y="557" type="curve" smooth="yes"/>
      <point x="-731" y="599"/>
      <point x="-780" y="614"/>
      <point x="-851" y="614" type="curve" smooth="yes" name="hr05"/>
      <point x="-959" y="614"/>
      <point x="-1054" y="580"/>
      <point x="-1173" y="492" type="curve"/>
    </contour>
  </outline>
</glyph>
<glyph name="uni0337" format="1">
  <advance width="0"/>
  <unicode hex="0337"/>
  <outline>
    <contour>
      <point x="-1297" y="-20" type="line" name="hr00"/>
      <point x="-24" y="1212" type="line" name="av02"/>
      <point x="54" y="1135" type="line"/>
      <point x="-1220" y="-96" type="line" name="av01"/>
    </contour>
  </outline>
</glyph>
<glyph name="uni0361" format="1">
  <advance width="0"/>
  <unicode hex="0361"/>
  <outline>
    <contour>
      <point x="-1500" y="1520" type="line" name="at01"/>
      <point x="-1469" y="1680"/>
      <point x="-1280" y="1780" name="dv02"/>
      <point x="-934" y="1820" type="curve" smooth="yes"/>
      <point x="-778" y="1838" name="at02"/>
      <point x="-661" y="1847"/>
      <point x="-583" y="1847" type="curve" smooth="yes"/>
      <point x="-434" y="1847" name="dv01"/>
      <point x="210" y="1841" name="at03"/>
      <point x="210" y="1559" type="curve" smooth="yes"/>
      <point x="210" y="1544"/>
      <point x="209" y="1531"/>
      <point x="206" y="1520" type="curve"/>
      <point x="88" y="1520" type="line"/>
      <point x="21" y="1615"/>
      <point x="-100" y="1670"/>
      <point x="-275" y="1685" type="curve" smooth="yes"/>
      <point x="-463" y="1702"/>
      <point x="-573" y="1710"/>
      <point x="-610" y="1710" type="curve" smooth="yes"/>
      <point x="-682" y="1710"/>
      <point x="-1178" y="1708"/>
      <point x="-1382" y="1520" type="curve"/>
    </contour>
  </outline>
</glyph>
<glyph name="uni03A9" format="1">
  <advance width="1233"/>
  <unicode hex="03A9"/>
  <outline>
    <contour>
      <point x="74" y="172" type="line" name="sh01"/>
      <point x="319" y="172" type="line"/>
      <point x="238" y="260"/>
      <point x="178" y="353" name="dh01"/>
      <point x="141" y="450" type="curve" smooth="yes"/>
      <point x="104" y="545" name="dv02"/>
      <point x="86" y="656"/>
      <point x="86" y="783" type="curve" smooth="yes" name="dh04"/>
      <point x="86" y="989"/>
      <point x="134" y="1154" name="ih01"/>
      <point x="230" y="1277" type="curve" smooth="yes" name="sh02"/>
      <point x="325" y="1398" name="ab01"/>
      <point x="451" y="1460"/>
      <point x="614" y="1460" type="curve" smooth="yes" name="dh03"/>
      <point x="781" y="1460"/>
      <point x="908" y="1396" name="sh03"/>
      <point x="1001" y="1277" type="curve" smooth="yes"/>
      <point x="1097" y="1155" name="dv01"/>
      <point x="1145" y="990"/>
      <point x="1145" y="783" type="curve" smooth="yes" name="dh02"/>
      <point x="1145" y="656"/>
      <point x="1127" y="545" name="sh04"/>
      <point x="1090" y="450" type="curve" smooth="yes" name="ab02"/>
      <point x="1051" y="350"/>
      <point x="992" y="260"/>
      <point x="911" y="172" type="curve" name="sh05"/>
      <point x="1159" y="172" type="line" name="hr02"/>
      <point x="1159" y="0" type="line"/>
      <point x="696" y="0" type="line"/>
      <point x="696" y="172" type="line"/>
      <point x="776" y="223"/>
      <point x="838" y="303"/>
      <point x="883" y="413" type="curve" smooth="yes"/>
      <point x="927" y="521"/>
      <point x="950" y="649"/>
      <point x="950" y="790" type="curve" smooth="yes"/>
      <point x="950" y="945"/>
      <point x="922" y="1071"/>
      <point x="861" y="1162" type="curve" smooth="yes"/>
      <point x="804" y="1246"/>
      <point x="720" y="1294"/>
      <point x="616" y="1294" type="curve" smooth="yes"/>
      <point x="507" y="1294"/>
      <point x="427" y="1242"/>
      <point x="372" y="1162" type="curve" smooth="yes"/>
      <point x="313" y="1075"/>
      <point x="283" y="954"/>
      <point x="283" y="790" type="curve" smooth="yes"/>
      <point x="283" y="649"/>
      <point x="306" y="521"/>
      <point x="350" y="413" type="curve" smooth="yes"/>
      <point x="397" y="300"/>
      <point x="460" y="221"/>
      <point x="537" y="172" type="curve"/>
      <point x="537" y="0" type="line"/>
      <point x="74" y="0" type="line"/>
    </contour>
  </outline>
</glyph>
<glyph name="etatonos" format="1">
  <advance width="1233"/>
  <unicode hex="03AE"/>
  <outline>
    <contour>
      <point x="946" y="1673" type="line" name="av01"/>
      <point x="1165" y="1673" type="line"/>
      <point x="770" y="1297" type="line"/>
      <point x="614" y="1297" type="line" name="iv01"/>
    </contour>
    <contour>
      <point x="890" y="694" type="line" smooth="yes"/>
      <point x="898" y="737" name="dh01"/>
      <point x="903" y="774" name="sv01"/>
      <point x="903" y="809" type="curve" smooth="yes"/>
      <point x="903" y="933" name="ab01"/>
      <point x="845" y="987"/>
      <point x="729" y="987" type="curve" smooth="yes" name="at02"/>
      <point x="557" y="987"/>
      <point x="436" y="866" name="iv02"/>
      <point x="391" y="633" type="curve" smooth="yes" name="at01"/>
      <point x="268" y="0" type="line" name="dh02"/>
      <point x="84" y="0" type="line"/>
      <point x="302" y="1120" type="line" name="av02"/>
      <point x="466" y="1120" type="line"/>
      <point x="453" y="952" type="line"/>
      <point x="545" y="1081" name="sh01"/>
      <point x="670" y="1147"/>
      <point x="823" y="1147" type="curve" smooth="yes"/>
      <point x="1003" y="1147"/>
      <point x="1093" y="1052"/>
      <point x="1093" y="863" type="curve" smooth="yes"/>
      <point x="1093" y="813"/>
      <point x="1087" y="757"/>
      <point x="1075" y="694" type="curve" smooth="yes"/>
      <point x="857" y="-426" type="line"/>
      <point x="672" y="-426" type="line"/>
    </contour>
  </outline>
</glyph>
<glyph name="zeta" format="1">
  <advance width="1233"/>
  <unicode hex="03B6"/>
  <outline>
    <contour>
      <point x="595" y="-430" type="curve" name="av01"/>
      <point x="606" y="-379"/>
      <point x="615" y="-330" name="sh01"/>
      <point x="624" y="-279" type="curve" name="ah02"/>
      <point x="715" y="-287" name="dv01"/>
      <point x="781" y="-216" name="sh02"/>
      <point x="789" y="-168" type="curve" smooth="yes" name="ih01"/>
      <point x="791" y="-158"/>
      <point x="792" y="-148" name="at01"/>
      <point x="792" y="-137" type="curve" smooth="yes"/>
      <point x="792" y="-78"/>
      <point x="760" y="-29" name="sh05"/>
      <point x="695" y="-29" type="curve" smooth="yes" name="sh04"/>
      <point x="347" y="-29" name="dv02"/>
      <point x="183" y="152" name="sh03"/>
      <point x="183" y="396" type="curve" smooth="yes" name="sh06"/>
      <point x="183" y="702"/>
      <point x="442" y="1106" name="ah01"/>
      <point x="931" y="1371" type="curve" name="sh07"/>
      <point x="399" y="1371" type="line"/>
      <point x="435" y="1556" type="line"/>
      <point x="1305" y="1556" type="line"/>
      <point x="1269" y="1371" type="line"/>
      <point x="703" y="1094"/>
      <point x="407" y="815"/>
      <point x="382" y="534" type="curve" smooth="yes"/>
      <point x="380" y="511"/>
      <point x="379" y="489"/>
      <point x="379" y="469" type="curve" smooth="yes"/>
      <point x="379" y="241"/>
      <point x="494" y="127"/>
      <point x="725" y="127" type="curve" smooth="yes"/>
      <point x="880" y="127"/>
      <point x="973" y="39"/>
      <point x="973" y="-91" type="curve" smooth="yes"/>
      <point x="973" y="-109"/>
      <point x="971" y="-128"/>
      <point x="967" y="-148" type="curve" smooth="yes"/>
      <point x="935" y="-301"/>
      <point x="812" y="-430"/>
    </contour>
  </outline>
</glyph>
<glyph name="theta" format="1">
  <advance width="1233"/>
  <unicode hex="03B8"/>
  <outline>
    <contour>
      <point x="497" y="-29" type="curve" smooth="yes" name="dv01"/>
      <point x="257" y="-29" name="sh01"/>
      <point x="134" y="128"/>
      <point x="134" y="429" type="curve" smooth="yes"/>
      <point x="134" y="518" name="at01"/>
      <point x="145" y="621" name="sh02"/>
      <point x="167" y="736" type="curve" smooth="yes"/>
      <point x="216" y="989"/>
      <point x="294" y="1175" name="dv04"/>
      <point x="401" y="1304" type="curve" smooth="yes" name="ah02"/>
      <point x="508" y="1435" name="sv01"/>
      <point x="639" y="1500"/>
      <point x="793" y="1500" type="curve" smooth="yes" name="dv02"/>
      <point x="1037" y="1500" name="dv03"/>
      <point x="1159" y="1341"/>
      <point x="1159" y="1040" type="curve" smooth="yes" name="sh03"/>
      <point x="1159" y="950"/>
      <point x="1148" y="849" name="ah01"/>
      <point x="1126" y="736" type="curve" smooth="yes" name="sh04"/>
      <point x="1028" y="230"/>
      <point x="804" y="-29"/>
    </contour>
    <contour>
      <point x="947" y="828" type="line"/>
      <point x="959" y="903"/>
      <point x="966" y="970"/>
      <point x="966" y="1033" type="curve" smooth="yes"/>
      <point x="966" y="1221"/>
      <point x="906" y="1342"/>
      <point x="764" y="1342" type="curve" smooth="yes"/>
      <point x="577" y="1342"/>
      <point x="449" y="1129"/>
      <point x="382" y="828" type="curve"/>
    </contour>
    <contour>
      <point x="528" y="129" type="curve" smooth="yes"/>
      <point x="716" y="129"/>
      <point x="847" y="345"/>
      <point x="911" y="644" type="curve"/>
      <point x="346" y="644" type="line"/>
      <point x="334" y="569"/>
      <point x="327" y="501"/>
      <point x="327" y="440" type="curve" smooth="yes"/>
      <point x="327" y="251"/>
      <point x="387" y="129"/>
    </contour>
  </outline>
</glyph>
<glyph name="upsilon" format="1">
  <advance width="1233"/>
  <unicode hex="03C5"/>
  <outline>
    <contour>
      <point x="485" y="0" type="curve" smooth="yes" name="ab01"/>
      <point x="302" y="0" name="sh01"/>
      <point x="216" y="81"/>
      <point x="216" y="257" type="curve" smooth="yes" name="sv01"/>
      <point x="216" y="301"/>
      <point x="221" y="350" name="at01"/>
      <point x="232" y="406" type="curve" smooth="yes"/>
      <point x="342" y="977" type="line"/>
      <point x="132" y="977" type="line" name="sh02"/>
      <point x="160" y="1120" type="line" name="sv02"/>
      <point x="558" y="1120" type="line"/>
      <point x="417" y="395" type="line" smooth="yes" name="ah02"/>
      <point x="408" y="347" name="ih01"/>
      <point x="402" y="307"/>
      <point x="402" y="275" type="curve" smooth="yes" name="sh03"/>
      <point x="402" y="190"/>
      <point x="437" y="156"/>
      <point x="525" y="156" type="curve" smooth="yes" name="ah01"/>
      <point x="750" y="156" name="sh04"/>
      <point x="894" y="387"/>
      <point x="958" y="640" type="curve" smooth="yes"/>
      <point x="973" y="697"/>
      <point x="982" y="756"/>
      <point x="982" y="820" type="curve" smooth="yes"/>
      <point x="982" y="913"/>
      <point x="960" y="1012"/>
      <point x="895" y="1120" type="curve"/>
      <point x="1081" y="1120" type="line"/>
      <point x="1129" y="1037"/>
      <point x="1161" y="932"/>
      <point x="1161" y="803" type="curve" smooth="yes"/>
      <point x="1161" y="751"/>
      <point x="1156" y="697"/>
      <point x="1144" y="638" type="curve" smooth="yes"/>
      <point x="1084" y="342"/>
      <point x="860" y="0"/>
    </contour>
  </outline>
</glyph>
<glyph name="omegatonos" format="1">
  <advance width="1233"/>
  <unicode hex="03CE"/>
  <outline>
    <contour>
      <point x="967" y="1673" type="line" name="av01"/>
      <point x="1186" y="1673" type="line" name="sh02"/>
      <point x="791" y="1297" type="line"/>
      <point x="635" y="1297" type="line" name="ih01"/>
    </contour>
    <contour>
      <point x="268" y="-29" type="curve" smooth="yes" name="dv01"/>
      <point x="151" y="-29" name="sh04"/>
      <point x="74" y="36" name="sh03"/>
      <point x="51" y="156" type="curve" smooth="yes" name="at01"/>
      <point x="45" y="187" name="ih02"/>
      <point x="42" y="224"/>
      <point x="42" y="268" type="curve" smooth="yes" name="sh05"/>
      <point x="42" y="480" name="dv02"/>
      <point x="118" y="829"/>
      <point x="319" y="1120" type="curve"/>
      <point x="509" y="1120" type="line"/>
      <point x="365" y="898"/>
      <point x="310" y="732"/>
      <point x="273" y="558" type="curve" smooth="yes" name="sv01"/>
      <point x="242" y="411"/>
      <point x="234" y="307"/>
      <point x="234" y="268" type="curve" smooth="yes" name="ah02"/>
      <point x="234" y="179" name="ih03"/>
      <point x="277" y="131"/>
      <point x="328" y="131" type="curve" smooth="yes" name="sh01"/>
      <point x="371" y="131"/>
      <point x="419" y="165" name="sv02"/>
      <point x="454" y="240" type="curve" name="ih04"/>
      <point x="478" y="296"/>
      <point x="509" y="403" name="ah01"/>
      <point x="568" y="699" type="curve" name="sh06"/>
      <point x="738" y="699" type="line"/>
      <point x="687" y="441"/>
      <point x="673" y="324"/>
      <point x="673" y="262" type="curve" smooth="yes"/>
      <point x="673" y="254"/>
      <point x="674" y="247"/>
      <point x="674" y="240" type="curve" smooth="yes"/>
      <point x="679" y="167"/>
      <point x="715" y="131"/>
      <point x="758" y="131" type="curve" smooth="yes"/>
      <point x="807" y="131"/>
      <point x="867" y="177"/>
      <point x="904" y="270" type="curve" smooth="yes"/>
      <point x="920" y="311"/>
      <point x="950" y="401"/>
      <point x="977" y="558" type="curve" smooth="yes"/>
      <point x="993" y="649"/>
      <point x="1002" y="729"/>
      <point x="1002" y="813" type="curve" smooth="yes"/>
      <point x="1002" y="909"/>
      <point x="990" y="1007"/>
      <point x="961" y="1120" type="curve"/>
      <point x="1151" y="1120" type="line"/>
      <point x="1182" y="1019"/>
      <point x="1193" y="911"/>
      <point x="1193" y="804" type="curve" smooth="yes"/>
      <point x="1193" y="537"/>
      <point x="1116" y="282"/>
      <point x="1044" y="156" type="curve" smooth="yes"/>
      <point x="976" y="39"/>
      <point x="871" y="-29"/>
      <point x="754" y="-29" type="curve" smooth="yes"/>
      <point x="629" y="-29"/>
      <point x="554" y="50"/>
      <point x="546" y="150" type="curve"/>
      <point x="501" y="54"/>
      <point x="398" y="-29"/>
    </contour>
  </outline>
</glyph>
<glyph name="uni0405" format="1">
  <advance width="1233"/>
  <unicode hex="0405"/>
  <outline>
    <contour>
      <point x="435" y="-29" type="curve" smooth="yes" name="dv01"/>
      <point x="288" y="-29"/>
      <point x="158" y="1"/>
      <point x="25" y="61" type="curve" name="dv02"/>
      <point x="66" y="270" type="line" name="ah02"/>
      <point x="201" y="174"/>
      <point x="338" y="135"/>
      <point x="469" y="135" type="curve" smooth="yes" name="sh01"/>
      <point x="705" y="135" name="at01"/>
      <point x="848" y="266"/>
      <point x="848" y="452" type="curve" smooth="yes"/>
      <point x="848" y="559" name="sv01"/>
      <point x="800" y="603" name="sh02"/>
      <point x="627" y="659" type="curve" smooth="yes"/>
      <point x="526" y="692" type="line" smooth="yes"/>
      <point x="277" y="772" name="sh03"/>
      <point x="195" y="855"/>
      <point x="195" y="1022" type="curve" smooth="yes" name="ah01"/>
      <point x="195" y="1313" name="sh04"/>
      <point x="443" y="1520"/>
      <point x="782" y="1520" type="curve" smooth="yes"/>
      <point x="898" y="1520"/>
      <point x="1011" y="1495"/>
      <point x="1147" y="1442" type="curve"/>
      <point x="1108" y="1237" type="line"/>
      <point x="999" y="1316"/>
      <point x="883" y="1356"/>
      <point x="759" y="1356" type="curve" smooth="yes"/>
      <point x="539" y="1356"/>
      <point x="387" y="1233"/>
      <point x="387" y="1066" type="curve" smooth="yes"/>
      <point x="387" y="966"/>
      <point x="441" y="922"/>
      <point x="614" y="866" type="curve" smooth="yes"/>
      <point x="735" y="827" type="line" smooth="yes"/>
      <point x="965" y="752"/>
      <point x="1049" y="652"/>
      <point x="1049" y="472" type="curve" smooth="yes"/>
      <point x="1049" y="174"/>
      <point x="813" y="-29"/>
    </contour>
  </outline>
</glyph>
<glyph name="uni0412" format="1">
  <advance width="1233"/>
  <unicode hex="0412"/>
  <outline>
    <contour>
      <point x="313" y="1493" type="line" name="at01"/>
      <point x="756" y="1493" type="line" smooth="yes"/>
      <point x="1028" y="1493" name="sh02"/>
      <point x="1167" y="1387" name="iv01"/>
      <point x="1167" y="1178" type="curve" smooth="yes" name="dh02"/>
      <point x="1167" y="975" name="ab01"/>
      <point x="1035" y="826"/>
      <point x="827" y="799" type="curve" name="dv02"/>
      <point x="1008" y="763" name="sh01"/>
      <point x="1085" y="653" name="sv01"/>
      <point x="1085" y="482" type="curve" smooth="yes"/>
      <point x="1085" y="189"/>
      <point x="862" y="0" name="sv02"/>
      <point x="475" y="0" type="curve" smooth="yes" name="dh01"/>
      <point x="23" y="0" type="line" name="dv01"/>
    </contour>
    <contour>
      <point x="639" y="877" type="line" smooth="yes"/>
      <point x="839" y="877"/>
      <point x="963" y="980"/>
      <point x="963" y="1148" type="curve" smooth="yes" name="sh03"/>
      <point x="963" y="1273"/>
      <point x="894" y="1327"/>
      <point x="727" y="1327" type="curve" smooth="yes"/>
      <point x="483" y="1327" type="line"/>
      <point x="395" y="877" type="line"/>
    </contour>
    <contour>
      <point x="506" y="166" type="line" smooth="yes"/>
      <point x="750" y="166"/>
      <point x="885" y="291"/>
      <point x="885" y="492" type="curve" smooth="yes"/>
      <point x="885" y="647"/>
      <point x="805" y="713"/>
      <point x="606" y="713" type="curve" smooth="yes" name="hr02"/>
      <point x="365" y="713" type="line"/>
      <point x="258" y="166" type="line"/>
    </contour>
  </outline>
</glyph>
<glyph name="uni0421" format="1">
  <advance width="1233"/>
  <unicode hex="0421"/>
  <outline>
    <contour>
      <point x="178" y="915" type="curve" smooth="yes"/>
      <point x="222" y="1048"/>
      <point x="286" y="1170"/>
      <point x="361" y="1266" type="curve"/>
      <point x="496" y="1435"/>
      <point x="673" y="1520"/>
      <point x="884" y="1520" type="curve" smooth="yes"/>
      <point x="920" y="1520"/>
      <point x="952" y="1518"/>
      <point x="981" y="1513" type="curve" smooth="yes"/>
      <point x="984" y="1513" type="line" smooth="yes"/>
      <point x="993" y="1513"/>
      <point x="997" y="1518"/>
      <point x="997" y="1527" type="curve" smooth="yes"/>
      <point x="997" y="1827" type="line" smooth="yes"/>
      <point x="997" y="1834"/>
      <point x="1000" y="1837"/>
      <point x="1007" y="1837" type="curve" smooth="yes"/>
      <point x="1194" y="1837" type="line" smooth="yes"/>
      <point x="1201" y="1837"/>
      <point x="1204" y="1834"/>
      <point x="1204" y="1827" type="curve" smooth="yes"/>
      <point x="1204" y="1437" type="line"/>
      <point x="1163" y="1231" type="line"/>
      <point x="1078" y="1314"/>
      <point x="983" y="1356"/>
      <point x="876" y="1356" type="curve" smooth="yes"/>
      <point x="750" y="1356"/>
      <point x="641" y="1301"/>
      <point x="549" y="1192" type="curve" smooth="yes"/>
      <point x="482" y="1112"/>
      <point x="423" y="1001"/>
      <point x="383" y="880" type="curve" smooth="yes"/>
      <point x="342" y="757"/>
      <point x="318" y="627"/>
      <point x="318" y="508" type="curve" smooth="yes"/>
      <point x="318" y="257"/>
      <point x="422" y="135"/>
      <point x="618" y="135" type="curve" smooth="yes"/>
      <point x="734" y="135"/>
      <point x="858" y="179"/>
      <point x="975" y="260" type="curve"/>
      <point x="936" y="53" type="line" name="hr01"/>
      <point x="826" y="-2"/>
      <point x="711" y="-29"/>
      <point x="590" y="-29" type="curve" smooth="yes"/>
      <point x="434" y="-29"/>
      <point x="315" y="15"/>
      <point x="234" y="102" type="curve" smooth="yes" name="hr02"/>
      <point x="149" y="193"/>
      <point x="107" y="325"/>
      <point x="107" y="499" type="curve" smooth="yes"/>
      <point x="107" y="634"/>
      <point x="133" y="779"/>
    </contour>
  </outline>
</glyph>
<glyph name="uni042C" format="1">
  <advance width="1233"/>
  <unicode hex="042C"/>
  <outline>
    <contour>
      <point x="342" y="1493" type="line" name="at01"/>
      <point x="544" y="1493" type="line"/>
      <point x="427" y="893" type="line"/>
      <point x="661" y="893" type="line" smooth="yes" name="dv02"/>
      <point x="952" y="893" name="dh02"/>
      <point x="1095" y="778"/>
      <point x="1095" y="563" type="curve" smooth="yes" name="ab01"/>
      <point x="1095" y="527"/>
      <point x="1091" y="488" name="sv01"/>
      <point x="1083" y="446" type="curve" smooth="yes"/>
      <point x="1024" y="146" name="dh01"/>
      <point x="814" y="0" name="dv01"/>
      <point x="488" y="0" type="curve" smooth="yes"/>
      <point x="52" y="0" type="line"/>
    </contour>
    <contour>
      <point x="520" y="166" type="line" smooth="yes"/>
      <point x="709" y="166" name="sh01"/>
      <point x="837" y="267"/>
      <point x="872" y="446" type="curve" smooth="yes"/>
      <point x="877" y="469"/>
      <point x="879" y="493"/>
      <point x="879" y="516" type="curve" smooth="yes"/>
      <point x="879" y="651"/>
      <point x="790" y="727"/>
      <point x="629" y="727" type="curve" smooth="yes"/>
      <point x="395" y="727" type="line"/>
      <point x="286" y="166" type="line"/>
    </contour>
  </outline>
</glyph>
<glyph name="uni042F" format="1">
  <advance width="1233"/>
  <unicode hex="042F"/>
  <outline>
    <contour>
      <point x="399" y="666" type="line" name="iv01"/>
      <point x="266" y="718" name="dh01"/>
      <point x="179" y="820"/>
      <point x="179" y="959" type="curve" smooth="yes" name="at01"/>
      <point x="179" y="986"/>
      <point x="183" y="1020" name="ab01"/>
      <point x="190" y="1061" type="curve"/>
      <point x="243" y="1343" name="dv01"/>
      <point x="460" y="1493"/>
      <point x="782" y="1493" type="curve" smooth="yes" name="ab02"/>
      <point x="1248" y="1493" type="line"/>
      <point x="958" y="0" type="line" name="dv02"/>
      <point x="755" y="0" type="line" name="sv01"/>
      <point x="878" y="631" type="line"/>
      <point x="588" y="631" type="line"/>
      <point x="115" y="0" type="line" name="dh02"/>
      <point x="-99" y="0" type="line"/>
    </contour>
    <contour>
      <point x="910" y="797" type="line"/>
      <point x="1013" y="1327" type="line"/>
      <point x="750" y="1327" type="line" smooth="yes"/>
      <point x="557" y="1327"/>
      <point x="436" y="1234"/>
      <point x="403" y="1061" type="curve" smooth="yes"/>
      <point x="398" y="1034"/>
      <point x="395" y="1009"/>
      <point x="395" y="985" type="curve" smooth="yes"/>
      <point x="395" y="860"/>
      <point x="476" y="797"/>
      <point x="639" y="797" type="curve" smooth="yes"/>
    </contour>
  </outline>
</glyph>
<glyph name="uni0434" format="1">
  <advance width="1233"/>
  <unicode hex="0434"/>
  <outline>
    <contour>
      <point x="44" y="150" type="line" name="sv01"/>
      <point x="111" y="150" type="line" smooth="yes" name="sv03"/>
      <point x="183" y="150"/>
      <point x="282" y="578" name="at01"/>
      <point x="306" y="704" type="curve" smooth="yes"/>
      <point x="387" y="1120" type="line" name="sv02"/>
      <point x="1135" y="1120" type="line" name="sv04"/>
      <point x="946" y="150" type="line" name="sv05"/>
      <point x="1067" y="150" type="line"/>
      <point x="982" y="-286" type="line" name="ab01"/>
      <point x="832" y="-286" type="line"/>
      <point x="888" y="0" type="line" name="sv06"/>
      <point x="165" y="0" type="line" name="hr01"/>
      <point x="109" y="-286" type="line" name="sv07"/>
      <point x="-41" y="-286" type="line" name="sv08"/>
    </contour>
    <contour>
      <point x="761" y="150" type="line"/>
      <point x="920" y="970" type="line"/>
      <point x="540" y="970" type="line"/>
      <point x="488" y="700" type="line" smooth="yes"/>
      <point x="483" y="673"/>
      <point x="447" y="520" name="sv09"/>
      <point x="402" y="353" type="curve"/>
      <point x="381" y="271"/>
      <point x="356" y="191"/>
      <point x="353" y="191" type="curve"/>
      <point x="345" y="178"/>
      <point x="341" y="168"/>
      <point x="341" y="162" type="curve" smooth="yes"/>
      <point x="341" y="154"/>
      <point x="352" y="150"/>
      <point x="373" y="150" type="curve" smooth="yes"/>
    </contour>
  </outline>
</glyph>
<glyph name="uni0439" format="1">
  <advance width="1233"/>
  <unicode hex="0439"/>
  <outline>
    <contour>
      <point x="747" y="1261" type="curve" smooth="yes" name="dv01"/>
      <point x="568" y="1261" name="dh01"/>
      <point x="469" y="1350"/>
      <point x="469" y="1507" type="curve" smooth="yes" name="sv01"/>
      <point x="469" y="1530" name="dh02"/>
      <point x="469" y="1537" name="dv02"/>
      <point x="472" y="1548" type="curve" name="sv02"/>
      <point x="592" y="1548" type="line"/>
      <point x="592" y="1531" type="line" smooth="yes"/>
      <point x="592" y="1443" name="at01"/>
      <point x="652" y="1398"/>
      <point x="761" y="1398" type="curve" smooth="yes" name="iv01"/>
      <point x="874" y="1398" name="at02"/>
      <point x="940" y="1448"/>
      <point x="979" y="1548" type="curve" name="ab01"/>
      <point x="1098" y="1548" type="line"/>
      <point x="1054" y="1356" name="iv02"/>
      <point x="932" y="1261" name="ab02"/>
    </contour>
    <contour>
      <point x="304" y="1120" type="line"/>
      <point x="488" y="1120" type="line"/>
      <point x="331" y="311" type="line"/>
      <point x="975" y="1120" type="line"/>
      <point x="1159" y="1120" type="line" name="hr01"/>
      <point x="941" y="0" type="line"/>
      <point x="757" y="0" type="line" name="hr02"/>
      <point x="914" y="809" type="line"/>
      <point x="270" y="0" type="line"/>
      <point x="86" y="0" type="line"/>
    </contour>
  </outline>
</glyph>
<glyph name="uni0446" format="1">
  <advance width="1233"/>
  <unicode hex="0446"/>
  <outline>
    <contour>
      <point x="887" y="0" type="line" name="ab01"/>
      <point x="43" y="0" type="line"/>
      <point x="261" y="1120" type="line" name="at01"/>
      <point x="445" y="1120" type="line"/>
      <point x="256" y="150" type="line" name="sv01"/>
      <point x="742" y="150" type="line" name="sv03"/>
      <point x="931" y="1120" type="line" name="at02"/>
      <point x="1115" y="1120" type="line"/>
      <point x="926" y="150" type="line" name="sv02"/>
      <point x="1066" y="150" type="line" name="sv04"/>
      <point x="981" y="-286" type="line" name="sv05"/>
      <point x="831" y="-286" type="line"/>
    </contour>
  </outline>
</glyph>
<glyph name="uni044C" format="1">
  <advance width="1233"/>
  <unicode hex="044C"/>
  <outline>
    <contour>
      <point x="335" y="1120" type="line" name="at01"/>
      <point x="519" y="1120" type="line"/>
      <point x="431" y="667" type="line"/>
      <point x="687" y="667" type="line" smooth="yes" name="dv02"/>
      <point x="935" y="667" name="dh02"/>
      <point x="1075" y="581"/>
      <point x="1075" y="406" type="curve" smooth="yes" name="ab01"/>
      <point x="1075" y="383"/>
      <point x="1073" y="359" name="sv01"/>
      <point x="1068" y="332" type="curve" smooth="yes"/>
      <point x="1027" y="113" name="dh01"/>
      <point x="851" y="0" name="dv01"/>
      <point x="558" y="0" type="curve" smooth="yes"/>
      <point x="118" y="0" type="line"/>
    </contour>
    <contour>
      <point x="579" y="153" type="line" smooth="yes"/>
      <point x="751" y="153" name="sh01"/>
      <point x="847" y="209"/>
      <point x="871" y="332" type="curve" smooth="yes"/>
      <point x="874" y="347"/>
      <point x="876" y="360"/>
      <point x="876" y="375" type="curve" smooth="yes"/>
      <point x="876" y="474"/>
      <point x="791" y="514"/>
      <point x="650" y="514" type="curve" smooth="yes"/>
      <point x="402" y="514" type="line"/>
      <point x="331" y="153" type="line"/>
    </contour>
  </outline>
</glyph>
<glyph name="uni0451" format="1">
  <advance width="1233"/>
  <unicode hex="0451"/>
  <outline>
    <contour>
      <point x="494" y="1349" type="line" smooth="yes" name="dv03"/>
      <point x="474" y="1349"/>
      <point x="463" y="1362"/>
      <point x="467" y="1382" type="curve" smooth="yes" name="dv04"/>
      <point x="495" y="1524" type="line" smooth="yes"/>
      <point x="498" y="1542"/>
      <point x="508" y="1551"/>
      <point x="527" y="1551" type="curve" smooth="yes"/>
      <point x="670" y="1551" type="line" smooth="yes"/>
      <point x="689" y="1551" name="sv01"/>
      <point x="698" y="1543"/>
      <point x="698" y="1526" type="curve" smooth="yes"/>
      <point x="698" y="1523" name="sv02"/>
      <point x="698" y="1520"/>
      <point x="697" y="1518" type="curve" smooth="yes"/>
      <point x="669" y="1376" type="line" smooth="yes"/>
      <point x="666" y="1358"/>
      <point x="655" y="1349"/>
      <point x="637" y="1349" type="curve" smooth="yes" name="dv01"/>
    </contour>
    <contour>
      <point x="885" y="1349" type="line" smooth="yes" name="sh01"/>
      <point x="865" y="1349"/>
      <point x="854" y="1362" name="dv07"/>
      <point x="858" y="1382" type="curve" smooth="yes" name="sh02"/>
      <point x="886" y="1524" type="line" smooth="yes" name="dv05"/>
      <point x="889" y="1542" name="sh04"/>
      <point x="899" y="1551" name="sh03"/>
      <point x="918" y="1551" type="curve" smooth="yes" name="dv02"/>
      <point x="1061" y="1551" type="line" smooth="yes" name="ih01"/>
      <point x="1080" y="1551" name="sh05"/>
      <point x="1089" y="1543"/>
      <point x="1089" y="1526" type="curve" smooth="yes" name="sh06"/>
      <point x="1089" y="1523" name="ah02"/>
      <point x="1089" y="1520" name="dv06"/>
      <point x="1088" y="1518" type="curve" smooth="yes"/>
      <point x="1060" y="1376" type="line" smooth="yes" name="ah01"/>
      <point x="1057" y="1358" name="sh07"/>
      <point x="1046" y="1349"/>
      <point x="1028" y="1349" type="curve" smooth="yes"/>
    </contour>
    <contour>
      <point x="556" y="-29" type="curve" smooth="yes"/>
      <point x="253" y="-29"/>
      <point x="98" y="122"/>
      <point x="98" y="407" type="curve" smooth="yes"/>
      <point x="98" y="615"/>
      <point x="183" y="829"/>
      <point x="324" y="973" type="curve" smooth="yes"/>
      <point x="436" y="1089"/>
      <point x="570" y="1149"/>
      <point x="719" y="1149" type="curve" smooth="yes"/>
      <point x="964" y="1149"/>
      <point x="1126" y="983"/>
      <point x="1126" y="731" type="curve" smooth="yes"/>
      <point x="1126" y="683"/>
      <point x="1120" y="620"/>
      <point x="1104" y="516" type="curve"/>
      <point x="297" y="516" type="line"/>
      <point x="289" y="473"/>
      <point x="285" y="441"/>
      <point x="285" y="406" type="curve" smooth="yes"/>
      <point x="285" y="229"/>
      <point x="388" y="127"/>
      <point x="584" y="127" type="curve" smooth="yes"/>
      <point x="704" y="127"/>
      <point x="844" y="164"/>
      <point x="997" y="240" type="curve"/>
      <point x="961" y="57" type="line"/>
      <point x="820" y="0"/>
      <point x="689" y="-29"/>
    </contour>
    <contour>
      <point x="938" y="659" type="line"/>
      <point x="946" y="695"/>
      <point x="948" y="716"/>
      <point x="948" y="739" type="curve" smooth="yes"/>
      <point x="948" y="897"/>
      <point x="854" y="991"/>
      <point x="707" y="991" type="curve" smooth="yes"/>
      <point x="533" y="991"/>
      <point x="391" y="860"/>
      <point x="332" y="659" type="curve"/>
    </contour>
  </outline>
</glyph>
<glyph name="uni0454" format="1">
  <advance width="1233"/>
  <unicode hex="0454"/>
  <outline>
    <contour>
      <point x="586" y="-29" type="curve" smooth="yes" name="dv01"/>
      <point x="309" y="-29" name="dh01"/>
      <point x="139" y="123"/>
      <point x="139" y="400" type="curve" smooth="yes" name="at01"/>
      <point x="139" y="451"/>
      <point x="144" y="504"/>
      <point x="155" y="559" type="curve" smooth="yes" name="sv01"/>
      <point x="227" y="935" name="dv04"/>
      <point x="486" y="1147"/>
      <point x="817" y="1147" type="curve" smooth="yes"/>
      <point x="926" y="1147" name="dv03"/>
      <point x="1019" y="1125" name="dh02"/>
      <point x="1119" y="1061" type="curve" name="dv02"/>
      <point x="1081" y="868" type="line"/>
      <point x="1000" y="957"/>
      <point x="911" y="991"/>
      <point x="796" y="991" type="curve" smooth="yes"/>
      <point x="553" y="991"/>
      <point x="433" y="837"/>
      <point x="375" y="659" type="curve"/>
      <point x="912" y="660" type="line"/>
      <point x="884" y="516" type="line"/>
      <point x="342" y="516" type="line"/>
      <point x="337" y="483"/>
      <point x="335" y="452"/>
      <point x="335" y="421" type="curve" smooth="yes"/>
      <point x="335" y="241"/>
      <point x="424" y="127"/>
      <point x="629" y="127" type="curve" smooth="yes"/>
      <point x="749" y="127"/>
      <point x="858" y="164"/>
      <point x="961" y="248" type="curve"/>
      <point x="923" y="57" type="line"/>
      <point x="812" y="0"/>
      <point x="709" y="-29"/>
    </contour>
  </outline>
</glyph>
<glyph name="uni045E" format="1">
  <advance width="1233"/>
  <unicode hex="045E"/>
  <outline>
    <contour>
      <point x="777" y="1261" type="curve" smooth="yes" name="dv03"/>
      <point x="598" y="1261" name="dh01"/>
      <point x="499" y="1350"/>
      <point x="499" y="1507" type="curve" smooth="yes" name="sv01"/>
      <point x="499" y="1530" name="dh02"/>
      <point x="499" y="1537" name="dv04"/>
      <point x="502" y="1548" type="curve" name="sv02"/>
      <point x="622" y="1548" type="line"/>
      <point x="622" y="1531" type="line" smooth="yes"/>
      <point x="622" y="1443"/>
      <point x="682" y="1398" name="dv02"/>
      <point x="791" y="1398" type="curve" smooth="yes"/>
      <point x="904" y="1398"/>
      <point x="970" y="1448" name="at01"/>
      <point x="1009" y="1548" type="curve"/>
      <point x="1128" y="1548" type="line" name="ih01"/>
      <point x="1084" y="1356" name="at02"/>
      <point x="962" y="1261"/>
    </contour>
    <contour>
      <point x="20" y="-272" type="line"/>
      <point x="128" y="-272" type="line" smooth="yes"/>
      <point x="239" y="-272" name="dv01"/>
      <point x="313" y="-208"/>
      <point x="386" y="-66" type="curve" smooth="yes"/>
      <point x="429" y="18" type="line"/>
      <point x="212" y="1120" type="line"/>
      <point x="395" y="1120" type="line"/>
      <point x="567" y="258" type="line"/>
      <point x="1050" y="1120" type="line"/>
      <point x="1255" y="1120" type="line" name="hr01"/>
      <point x="816" y="360" type="line" smooth="yes"/>
      <point x="750" y="246"/>
      <point x="681" y="123"/>
      <point x="651" y="72" type="curve" smooth="yes" name="hr02"/>
      <point x="546" y="-112"/>
      <point x="483" y="-220"/>
      <point x="442" y="-276" type="curve"/>
      <point x="362" y="-381"/>
      <point x="260" y="-426"/>
      <point x="139" y="-426" type="curve" smooth="yes"/>
      <point x="-9" y="-426" type="line"/>
    </contour>
  </outline>
</glyph>
<glyph name="uni04BB" format="1">
  <advance width="1233"/>
  <unicode hex="04BB"/>
  <outline>
    <contour>
      <point x="387" y="1556" type="line" name="at01"/>
      <point x="571" y="1556" type="line"/>
      <point x="455" y="952" type="line" name="iv01"/>
      <point x="559" y="1085" name="at02"/>
      <point x="672" y="1147" name="dh02"/>
      <point x="809" y="1147" type="curve" smooth="yes"/>
      <point x="985" y="1147" name="ab01"/>
      <point x="1096" y="1045"/>
      <point x="1096" y="874" type="curve" smooth="yes"/>
      <point x="1096" y="827"/>
      <point x="1088" y="763" name="dh01"/>
      <point x="1075" y="694" type="curve" smooth="yes" name="sv01"/>
      <point x="940" y="0" type="line"/>
      <point x="756" y="0" type="line" name="ab02"/>
      <point x="891" y="695" type="line"/>
      <point x="894" y="709" type="line" smooth="yes"/>
      <point x="904" y="756" name="sh01"/>
      <point x="909" y="793"/>
      <point x="909" y="821" type="curve" smooth="yes"/>
      <point x="909" y="926"/>
      <point x="846" y="987"/>
      <point x="729" y="987" type="curve" smooth="yes"/>
      <point x="562" y="987"/>
      <point x="434" y="857"/>
      <point x="391" y="633" type="curve" smooth="yes"/>
      <point x="268" y="0" type="line"/>
      <point x="84" y="0" type="line"/>
    </contour>
  </outline>
</glyph>
<glyph name="uni04C3" format="1">
  <advance width="1233"/>
  <unicode hex="04C3"/>
  <outline>
    <contour>
      <point x="375" y="-240" type="line" name="hr00"/>
      <point x="437" y="-240" type="line" smooth="yes" name="dv02"/>
      <point x="620" y="-240"/>
      <point x="699" y="-154"/>
      <point x="749" y="104" type="curve" smooth="yes" name="dh01"/>
      <point x="806" y="394" type="line" smooth="yes" name="dv03"/>
      <point x="814" y="435"/>
      <point x="818" y="472"/>
      <point x="818" y="506" type="curve" smooth="yes" name="ab01"/>
      <point x="818" y="643"/>
      <point x="752" y="711" name="at01"/>
      <point x="619" y="711" type="curve" smooth="yes"/>
      <point x="468" y="711" type="line" name="iv01"/>
      <point x="325" y="584" type="line" name="at02"/>
      <point x="211" y="0" type="line"/>
      <point x="8" y="0" type="line" name="dv04"/>
      <point x="298" y="1493" type="line"/>
      <point x="501" y="1493" type="line" name="dh02"/>
      <point x="372" y="829" type="line"/>
      <point x="1132" y="1493" type="line"/>
      <point x="1369" y="1493" type="line" name="dv01"/>
      <point x="669" y="881" type="line"/>
      <point x="693" y="881" type="line" smooth="yes"/>
      <point x="897" y="881" name="sh01"/>
      <point x="1027" y="773"/>
      <point x="1027" y="550" type="curve" smooth="yes"/>
      <point x="1027" y="507"/>
      <point x="1022" y="461"/>
      <point x="1012" y="410" type="curve" smooth="yes"/>
      <point x="952" y="104" type="line" smooth="yes"/>
      <point x="880" y="-260"/>
      <point x="717" y="-410"/>
      <point x="418" y="-410" type="curve" smooth="yes"/>
      <point x="342" y="-410" type="line"/>
    </contour>
  </outline>
</glyph>
<glyph name="uni04DA" format="1">
  <advance width="1233"/>
  <unicode hex="04DA"/>
  <outline>
    <contour>
      <point x="492" y="1647" type="line" smooth="yes" name="dv03"/>
      <point x="472" y="1647"/>
      <point x="461" y="1660"/>
      <point x="465" y="1680" type="curve" smooth="yes" name="dv04"/>
      <point x="493" y="1823" type="line" smooth="yes"/>
      <point x="496" y="1841"/>
      <point x="506" y="1850"/>
      <point x="525" y="1850" type="curve" smooth="yes"/>
      <point x="669" y="1850" type="line" smooth="yes"/>
      <point x="687" y="1850" name="sv01"/>
      <point x="696" y="1842"/>
      <point x="696" y="1826" type="curve" smooth="yes"/>
      <point x="696" y="1822" name="sv02"/>
      <point x="696" y="1819"/>
      <point x="695" y="1817" type="curve" smooth="yes"/>
      <point x="666" y="1674" type="line" smooth="yes"/>
      <point x="662" y="1656"/>
      <point x="651" y="1647" name="dv01"/>
      <point x="634" y="1647" type="curve" smooth="yes" name="sh01"/>
    </contour>
    <contour>
      <point x="883" y="1647" type="line" smooth="yes"/>
      <point x="863" y="1647"/>
      <point x="852" y="1660" name="dv06"/>
      <point x="856" y="1680" type="curve" smooth="yes" name="ah02"/>
      <point x="884" y="1823" type="line" smooth="yes" name="sv03"/>
      <point x="887" y="1841" name="ih01"/>
      <point x="897" y="1850"/>
      <point x="916" y="1850" type="curve" smooth="yes" name="at01"/>
      <point x="1059" y="1850" type="line" smooth="yes" name="sh02"/>
      <point x="1079" y="1850"/>
      <point x="1090" y="1837"/>
      <point x="1086" y="1817" type="curve" smooth="yes" name="dv02"/>
      <point x="1058" y="1674" type="line" smooth="yes" name="dv05"/>
      <point x="1055" y="1656"/>
      <point x="1044" y="1647" name="sh03"/>
      <point x="1026" y="1647" type="curve" smooth="yes"/>
    </contour>
    <contour>
      <point x="465" y="-29" type="curve" smooth="yes" name="ah01"/>
      <point x="205" y="-29" name="sh04"/>
      <point x="81" y="116"/>
      <point x="81" y="420" type="curve" smooth="yes"/>
      <point x="81" y="513"/>
      <point x="93" y="622"/>
      <point x="117" y="745" type="curve" smooth="yes"/>
      <point x="133" y="828" type="line"/>
      <point x="920" y="828" type="line"/>
      <point x="936" y="927"/>
      <point x="945" y="1009"/>
      <point x="945" y="1080" type="curve" smooth="yes"/>
      <point x="945" y="1265"/>
      <point x="885" y="1356"/>
      <point x="730" y="1356" type="curve" smooth="yes"/>
      <point x="623" y="1356"/>
      <point x="495" y="1312"/>
      <point x="380" y="1231" type="curve"/>
      <point x="421" y="1438" type="line"/>
      <point x="534" y="1494"/>
      <point x="649" y="1520"/>
      <point x="762" y="1520" type="curve" smooth="yes"/>
      <point x="1027" y="1520"/>
      <point x="1152" y="1372"/>
      <point x="1152" y="1069" type="curve" smooth="yes"/>
      <point x="1152" y="975"/>
      <point x="1140" y="867"/>
      <point x="1116" y="745" type="curve" smooth="yes"/>
      <point x="1015" y="228"/>
      <point x="805" y="-29"/>
    </contour>
    <contour>
      <point x="498" y="135" type="curve" smooth="yes"/>
      <point x="702" y="135"/>
      <point x="807" y="309"/>
      <point x="884" y="644" type="curve"/>
      <point x="310" y="644" type="line"/>
      <point x="295" y="556"/>
      <point x="288" y="479"/>
      <point x="288" y="412" type="curve" smooth="yes"/>
      <point x="288" y="232"/>
      <point x="346" y="135"/>
    </contour>
  </outline>
</glyph>
<glyph name="uni04DC" format="1">
  <advance width="1233"/>
  <unicode hex="04DC"/>
  <outline>
    <contour>
      <point x="526" y="1647" type="line" smooth="yes" name="dv01"/>
      <point x="506" y="1647"/>
      <point x="495" y="1660"/>
      <point x="499" y="1680" type="curve" smooth="yes" name="dv02"/>
      <point x="527" y="1823" type="line" smooth="yes"/>
      <point x="530" y="1841"/>
      <point x="540" y="1850"/>
      <point x="559" y="1850" type="curve" smooth="yes"/>
      <point x="703" y="1850" type="line" smooth="yes"/>
      <point x="721" y="1850" name="sv01"/>
      <point x="730" y="1842"/>
      <point x="730" y="1826" type="curve" smooth="yes"/>
      <point x="730" y="1822" name="sv02"/>
      <point x="730" y="1819"/>
      <point x="729" y="1817" type="curve" smooth="yes"/>
      <point x="700" y="1674" type="line" smooth="yes"/>
      <point x="696" y="1656"/>
      <point x="685" y="1647"/>
      <point x="668" y="1647" type="curve" smooth="yes" name="at01"/>
    </contour>
    <contour>
      <point x="917" y="1647" type="line" smooth="yes"/>
      <point x="897" y="1647" name="iv01"/>
      <point x="886" y="1660" name="at02"/>
      <point x="890" y="1680" type="curve" smooth="yes"/>
      <point x="918" y="1823" type="line" smooth="yes" name="iv02"/>
      <point x="921" y="1841" name="at03"/>
      <point x="931" y="1850"/>
      <point x="950" y="1850" type="curve" smooth="yes"/>
      <point x="1093" y="1850" type="line" smooth="yes" name="ab01"/>
      <point x="1113" y="1850"/>
      <point x="1124" y="1837" name="iv03"/>
      <point x="1120" y="1817" type="curve" smooth="yes"/>
      <point x="1092" y="1674" type="line" smooth="yes" name="ab02"/>
      <point x="1089" y="1656"/>
      <point x="1078" y="1647"/>
      <point x="1060" y="1647" type="curve" smooth="yes" name="iv04"/>
    </contour>
    <contour>
      <point x="347" y="891" type="line" name="ab03"/>
      <point x="177" y="1493" type="line"/>
      <point x="384" y="1493" type="line"/>
      <point x="552" y="898" type="line"/>
      <point x="668" y="1493" type="line"/>
      <point x="855" y="1493" type="line"/>
      <point x="739" y="898" type="line"/>
      <point x="1139" y="1493" type="line"/>
      <point x="1346" y="1493" type="line"/>
      <point x="942" y="891" type="line"/>
      <point x="1073" y="0" type="line"/>
      <point x="876" y="0" type="line"/>
      <point x="780" y="650" type="line"/>
      <point x="655" y="464" type="line"/>
      <point x="565" y="0" type="line"/>
      <point x="378" y="0" type="line"/>
      <point x="468" y="464" type="line"/>
      <point x="415" y="650" type="line"/>
      <point x="67" y="0" type="line"/>
      <point x="-130" y="0" type="line"/>
    </contour>
  </outline>
</glyph>
<glyph name="uni04DD" format="1">
  <advance width="1233"/>
  <unicode hex="04DD"/>
  <outline>
    <contour>
      <point x="492" y="1310" type="line" smooth="yes" name="sv01"/>
      <point x="472" y="1310"/>
      <point x="461" y="1323"/>
      <point x="465" y="1343" type="curve" smooth="yes" name="at04"/>
      <point x="493" y="1485" type="line" smooth="yes"/>
      <point x="496" y="1503"/>
      <point x="506" y="1512"/>
      <point x="525" y="1512" type="curve" smooth="yes"/>
      <point x="668" y="1512" type="line" smooth="yes"/>
      <point x="687" y="1512" name="sv02"/>
      <point x="696" y="1504"/>
      <point x="696" y="1487" type="curve" smooth="yes"/>
      <point x="696" y="1484" name="at05"/>
      <point x="696" y="1481"/>
      <point x="695" y="1479" type="curve" smooth="yes"/>
      <point x="667" y="1337" type="line" smooth="yes"/>
      <point x="664" y="1319"/>
      <point x="653" y="1310" name="sv03"/>
      <point x="635" y="1310" type="curve" smooth="yes"/>
    </contour>
    <contour>
      <point x="883" y="1310" type="line" smooth="yes" name="at01"/>
      <point x="863" y="1310"/>
      <point x="852" y="1323" name="iv01"/>
      <point x="856" y="1343" type="curve" smooth="yes" name="at02"/>
      <point x="884" y="1485" type="line" smooth="yes"/>
      <point x="887" y="1503" name="iv02"/>
      <point x="897" y="1512" name="at03"/>
      <point x="916" y="1512" type="curve" smooth="yes" name="iv03"/>
      <point x="1059" y="1512" type="line" smooth="yes"/>
      <point x="1078" y="1512" name="ab01"/>
      <point x="1087" y="1504"/>
      <point x="1087" y="1487" type="curve" smooth="yes" name="iv04"/>
      <point x="1087" y="1484"/>
      <point x="1087" y="1481" name="ab02"/>
      <point x="1086" y="1479" type="curve" smooth="yes"/>
      <point x="1058" y="1337" type="line" smooth="yes"/>
      <point x="1055" y="1319" name="iv05"/>
      <point x="1044" y="1310" name="ab03"/>
      <point x="1026" y="1310" type="curve" smooth="yes"/>
    </contour>
    <contour>
      <point x="348" y="716" type="line"/>
      <point x="188" y="1120" type="line"/>
      <point x="387" y="1120" type="line"/>
      <point x="558" y="688" type="line"/>
      <point x="642" y="1120" type="line"/>
      <point x="810" y="1120" type="line"/>
      <point x="726" y="688" type="line"/>
      <point x="1065" y="1120" type="line"/>
      <point x="1264" y="1120" type="line"/>
      <point x="946" y="716" type="line"/>
      <point x="1066" y="0" type="line"/>
      <point x="887" y="0" type="line"/>
      <point x="799" y="528" type="line"/>
      <point x="660" y="351" type="line"/>
      <point x="592" y="0" type="line"/>
      <point x="424" y="0" type="line"/>
      <point x="492" y="351" type="line"/>
      <point x="423" y="528" type="line"/>
      <point x="129" y="0" type="line"/>
      <point x="-50" y="0" type="line"/>
    </contour>
  </outline>
</glyph>
<glyph name="uni04E7" format="1">
  <advance width="1233"/>
  <unicode hex="04E7"/>
  <outline>
    <contour>
      <point x="469" y="1350" type="line" smooth="yes" name="dv03"/>
      <point x="449" y="1350"/>
      <point x="438" y="1363"/>
      <point x="442" y="1383" type="curve" smooth="yes" name="dv04"/>
      <point x="470" y="1525" type="line" smooth="yes"/>
      <point x="473" y="1543"/>
      <point x="483" y="1552"/>
      <point x="502" y="1552" type="curve" smooth="yes"/>
      <point x="645" y="1552" type="line" smooth="yes"/>
      <point x="664" y="1552" name="sv01"/>
      <point x="673" y="1544"/>
      <point x="673" y="1527" type="curve" smooth="yes"/>
      <point x="673" y="1524" name="sv02"/>
      <point x="673" y="1521"/>
      <point x="672" y="1519" type="curve" smooth="yes"/>
      <point x="644" y="1377" type="line" smooth="yes"/>
      <point x="641" y="1359"/>
      <point x="630" y="1350"/>
      <point x="612" y="1350" type="curve" smooth="yes" name="dv01"/>
    </contour>
    <contour>
      <point x="860" y="1350" type="line" smooth="yes" name="sh01"/>
      <point x="840" y="1350"/>
      <point x="829" y="1363" name="at01"/>
      <point x="833" y="1383" type="curve" smooth="yes" name="sh02"/>
      <point x="861" y="1525" type="line" smooth="yes"/>
      <point x="864" y="1543"/>
      <point x="874" y="1552" name="dv02"/>
      <point x="893" y="1552" type="curve" smooth="yes" name="ah02"/>
      <point x="1036" y="1552" type="line" smooth="yes" name="sv03"/>
      <point x="1055" y="1552" name="sh03"/>
      <point x="1064" y="1544"/>
      <point x="1064" y="1527" type="curve" smooth="yes" name="ah01"/>
      <point x="1064" y="1524" name="sh04"/>
      <point x="1064" y="1521"/>
      <point x="1063" y="1519" type="curve" smooth="yes"/>
      <point x="1035" y="1377" type="line" smooth="yes"/>
      <point x="1032" y="1359"/>
      <point x="1021" y="1350"/>
      <point x="1003" y="1350" type="curve" smooth="yes"/>
    </contour>
    <contour>
      <point x="514" y="-29" type="curve" smooth="yes"/>
      <point x="253" y="-29"/>
      <point x="117" y="121"/>
      <point x="117" y="392" type="curve" smooth="yes"/>
      <point x="117" y="571"/>
      <point x="177" y="769"/>
      <point x="274" y="911" type="curve" smooth="yes"/>
      <point x="382" y="1068"/>
      <point x="526" y="1147"/>
      <point x="717" y="1147" type="curve" smooth="yes"/>
      <point x="974" y="1147"/>
      <point x="1114" y="1004"/>
      <point x="1114" y="724" type="curve" smooth="yes"/>
      <point x="1114" y="550"/>
      <point x="1060" y="354"/>
      <point x="958" y="207" type="curve" smooth="yes"/>
      <point x="851" y="52"/>
      <point x="707" y="-29"/>
    </contour>
    <contour>
      <point x="524" y="127" type="curve" smooth="yes"/>
      <point x="792" y="127"/>
      <point x="920" y="442"/>
      <point x="920" y="707" type="curve" smooth="yes"/>
      <point x="920" y="906"/>
      <point x="850" y="991"/>
      <point x="709" y="991" type="curve" smooth="yes"/>
      <point x="441" y="991"/>
      <point x="313" y="676"/>
      <point x="313" y="411" type="curve" smooth="yes"/>
      <point x="313" y="212"/>
      <point x="383" y="127"/>
    </contour>
  </outline>
</glyph>
<glyph name="uni04E8" format="1">
  <advance width="1233"/>
  <unicode hex="04E8"/>
  <outline>
    <contour>
      <point x="465" y="-29" type="curve" smooth="yes" name="dv01"/>
      <point x="210" y="-29" name="sh01"/>
      <point x="81" y="116"/>
      <point x="81" y="421" type="curve" smooth="yes" name="at01"/>
      <point x="81" y="514" name="sh02"/>
      <point x="93" y="622"/>
      <point x="117" y="745" type="curve" smooth="yes"/>
      <point x="217" y="1258" name="dv04"/>
      <point x="424" y="1520" name="ah02"/>
      <point x="767" y="1520" type="curve" smooth="yes" name="sv01"/>
      <point x="1028" y="1520"/>
      <point x="1152" y="1369" name="dv02"/>
      <point x="1152" y="1068" type="curve" smooth="yes" name="dv03"/>
      <point x="1152" y="975"/>
      <point x="1140" y="867" name="sh03"/>
      <point x="1116" y="745" type="curve" smooth="yes"/>
      <point x="1015" y="225"/>
      <point x="802" y="-29" name="ah01"/>
    </contour>
    <contour>
      <point x="928" y="881" type="line"/>
      <point x="939" y="956"/>
      <point x="945" y="1021"/>
      <point x="945" y="1080" type="curve" smooth="yes"/>
      <point x="945" y="1256"/>
      <point x="890" y="1356"/>
      <point x="735" y="1356" type="curve" smooth="yes"/>
      <point x="530" y="1356"/>
      <point x="429" y="1177"/>
      <point x="357" y="881" type="curve"/>
    </contour>
    <contour>
      <point x="499" y="135" type="curve" smooth="yes"/>
      <point x="705" y="135"/>
      <point x="818" y="319"/>
      <point x="898" y="711" type="curve"/>
      <point x="321" y="711" type="line"/>
      <point x="298" y="594"/>
      <point x="289" y="495"/>
      <point x="289" y="415" type="curve" smooth="yes"/>
      <point x="289" y="359"/>
      <point x="294" y="313"/>
      <point x="304" y="276" type="curve" smooth="yes"/>
      <point x="330" y="182"/>
      <point x="395" y="135"/>
    </contour>
  </outline>
</glyph>
<glyph name="uni04ED" format="1">
  <advance width="1233"/>
  <unicode hex="04ED"/>
  <outline>
    <contour>
      <point x="469" y="1350" type="line" smooth="yes" name="dv03"/>
      <point x="449" y="1350"/>
      <point x="438" y="1363"/>
      <point x="442" y="1383" type="curve" smooth="yes" name="dv04"/>
      <point x="470" y="1525" type="line" smooth="yes"/>
      <point x="473" y="1543"/>
      <point x="483" y="1552"/>
      <point x="502" y="1552" type="curve" smooth="yes"/>
      <point x="645" y="1552" type="line" smooth="yes"/>
      <point x="664" y="1552" name="sv01"/>
      <point x="673" y="1544"/>
      <point x="673" y="1527" type="curve" smooth="yes"/>
      <point x="673" y="1524" name="sv02"/>
      <point x="673" y="1521"/>
      <point x="672" y="1519" type="curve" smooth="yes"/>
      <point x="644" y="1377" type="line" smooth="yes"/>
      <point x="641" y="1359"/>
      <point x="630" y="1350"/>
      <point x="612" y="1350" type="curve" smooth="yes" name="dv01"/>
    </contour>
    <contour>
      <point x="860" y="1350" type="line" smooth="yes"/>
      <point x="840" y="1350"/>
      <point x="829" y="1363" name="dv02"/>
      <point x="833" y="1383" type="curve" smooth="yes" name="dv05"/>
      <point x="861" y="1525" type="line" smooth="yes"/>
      <point x="864" y="1543"/>
      <point x="874" y="1552" name="dv06"/>
      <point x="893" y="1552" type="curve" smooth="yes" name="dh01"/>
      <point x="1036" y="1552" type="line" smooth="yes" name="sv03"/>
      <point x="1055" y="1552"/>
      <point x="1064" y="1544"/>
      <point x="1064" y="1527" type="curve" smooth="yes" name="at01"/>
      <point x="1064" y="1524" name="dh02"/>
      <point x="1064" y="1521"/>
      <point x="1063" y="1519" type="curve" smooth="yes"/>
      <point x="1035" y="1377" type="line" smooth="yes"/>
      <point x="1032" y="1359" name="sh01"/>
      <point x="1021" y="1350"/>
      <point x="1003" y="1350" type="curve" smooth="yes"/>
    </contour>
    <contour>
      <point x="416" y="-29" type="curve" smooth="yes"/>
      <point x="293" y="-29"/>
      <point x="201" y="0"/>
      <point x="112" y="57" type="curve"/>
      <point x="150" y="248" type="line"/>
      <point x="219" y="167"/>
      <point x="313" y="127"/>
      <point x="433" y="127" type="curve" smooth="yes"/>
      <point x="668" y="127"/>
      <point x="812" y="276"/>
      <point x="873" y="516" type="curve"/>
      <point x="331" y="516" type="line"/>
      <point x="359" y="660" type="line"/>
      <point x="896" y="660" type="line"/>
      <point x="897" y="673"/>
      <point x="897" y="685"/>
      <point x="897" y="697" type="curve" smooth="yes"/>
      <point x="897" y="845"/>
      <point x="836" y="991"/>
      <point x="609" y="991" type="curve" smooth="yes"/>
      <point x="488" y="991"/>
      <point x="378" y="951"/>
      <point x="270" y="868" type="curve"/>
      <point x="308" y="1061" type="line"/>
      <point x="420" y="1117"/>
      <point x="522" y="1147"/>
      <point x="647" y="1147" type="curve" smooth="yes"/>
      <point x="979" y="1147"/>
      <point x="1093" y="938"/>
      <point x="1093" y="721" type="curve" smooth="yes"/>
      <point x="1093" y="670"/>
      <point x="1087" y="618"/>
      <point x="1076" y="559" type="curve" smooth="yes"/>
      <point x="1004" y="187"/>
      <point x="749" y="-29"/>
    </contour>
  </outline>
</glyph>
<glyph name="uni04F2" format="1">
  <advance width="1233"/>
  <unicode hex="04F2"/>
  <outline>
    <contour>
      <point x="781" y="1852" type="line" name="dv02"/>
      <point x="967" y="1852" type="line"/>
      <point x="687" y="1588" type="line" name="sv01"/>
      <point x="533" y="1588" type="line"/>
    </contour>
    <contour>
      <point x="1100" y="1852" type="line"/>
      <point x="1286" y="1852" type="line" name="sv02"/>
      <point x="1006" y="1588" type="line"/>
      <point x="852" y="1588" type="line" name="dv01"/>
    </contour>
    <contour>
      <point x="87" y="172" type="line" name="sv03"/>
      <point x="196" y="172" type="line" smooth="yes"/>
      <point x="303" y="172"/>
      <point x="371" y="238"/>
      <point x="435" y="342" type="curve" name="at01"/>
      <point x="479" y="416" type="line"/>
      <point x="264" y="1493" type="line" name="iv01"/>
      <point x="481" y="1493" type="line" name="at02"/>
      <point x="631" y="663" type="line"/>
      <point x="1100" y="1493" type="line"/>
      <point x="1313" y="1493" type="line"/>
      <point x="694" y="425" type="line" name="ab01"/>
      <point x="633" y="318"/>
      <point x="569" y="221"/>
      <point x="513" y="156" type="curve" smooth="yes"/>
      <point x="450" y="82"/>
      <point x="359" y="0"/>
      <point x="202" y="0" type="curve" smooth="yes"/>
      <point x="54" y="0" type="line"/>
    </contour>
  </outline>
</glyph>
<glyph name="uni051A" format="1">
  <advance width="1233"/>
  <unicode hex="051A"/>
  <outline>
    <contour>
      <point x="504" y="-27" type="line" name="ab01"/>
      <point x="494" y="-27" type="line" smooth="yes"/>
      <point x="213" y="-27" name="sh01"/>
      <point x="82" y="125"/>
      <point x="82" y="457" type="curve" smooth="yes"/>
      <point x="82" y="630" name="at01"/>
      <point x="116" y="818" name="sh02"/>
      <point x="167" y="975" type="curve" smooth="yes"/>
      <point x="207" y="1100"/>
      <point x="255" y="1199" name="ih01"/>
      <point x="304" y="1272" type="curve" smooth="yes"/>
      <point x="417" y="1443" name="av01"/>
      <point x="564" y="1520" name="sv01"/>
      <point x="751" y="1520" type="curve" smooth="yes"/>
      <point x="1020" y="1520" name="ah02"/>
      <point x="1151" y="1359" name="sv02"/>
      <point x="1151" y="1040" type="curve" smooth="yes"/>
      <point x="1151" y="912" name="sh03"/>
      <point x="1130" y="769"/>
      <point x="1095" y="629" type="curve" smooth="yes" name="ah01"/>
      <point x="1056" y="477" name="sh04"/>
      <point x="1009" y="360"/>
      <point x="962" y="275" type="curve" smooth="yes"/>
      <point x="885" y="135"/>
      <point x="794" y="55"/>
      <point x="690" y="10" type="curve"/>
      <point x="844" y="-178" type="line"/>
      <point x="690" y="-270" type="line"/>
    </contour>
    <contour>
      <point x="497" y="135" type="curve" smooth="yes"/>
      <point x="628" y="135"/>
      <point x="712" y="209"/>
      <point x="778" y="333" type="curve" smooth="yes"/>
      <point x="878" y="521"/>
      <point x="944" y="841"/>
      <point x="944" y="1060" type="curve" smooth="yes"/>
      <point x="944" y="1236"/>
      <point x="901" y="1356"/>
      <point x="734" y="1356" type="curve" smooth="yes"/>
      <point x="603" y="1356"/>
      <point x="522" y="1283"/>
      <point x="455" y="1159" type="curve" smooth="yes"/>
      <point x="355" y="972"/>
      <point x="287" y="651"/>
      <point x="287" y="432" type="curve" smooth="yes"/>
      <point x="287" y="247"/>
      <point x="334" y="135"/>
    </contour>
  </outline>
</glyph>
<glyph name="uni053A" format="1">
  <advance width="1233"/>
  <unicode hex="053A"/>
  <outline>
    <contour>
      <point x="411" y="-29" type="curve" smooth="yes" name="dv01"/>
      <point x="258" y="-29"/>
      <point x="147" y="18" name="dh01"/>
      <point x="88" y="115" type="curve" smooth="yes"/>
      <point x="49" y="180"/>
      <point x="29" y="274" name="at02"/>
      <point x="29" y="382" type="curve" smooth="yes"/>
      <point x="29" y="435" name="at01"/>
      <point x="34" y="489"/>
      <point x="44" y="544" type="curve" smooth="yes" name="at03"/>
      <point x="77" y="716"/>
      <point x="157" y="868" name="sv01"/>
      <point x="260" y="971" type="curve" smooth="yes"/>
      <point x="359" y="1070"/>
      <point x="482" y="1120"/>
      <point x="627" y="1120" type="curve" smooth="yes"/>
      <point x="896" y="1120" type="line" name="dv02"/>
      <point x="968" y="1493" type="line"/>
      <point x="1170" y="1493" type="line"/>
      <point x="1098" y="1120" type="line" name="sv02"/>
      <point x="1223" y="1120" type="line" name="sv03"/>
      <point x="1190" y="950" type="line"/>
      <point x="1065" y="950" type="line"/>
      <point x="978" y="504" type="line" smooth="yes" name="dh02"/>
      <point x="939" y="308"/>
      <point x="870" y="179"/>
      <point x="774" y="95" type="curve" smooth="yes"/>
      <point x="675" y="8"/>
      <point x="548" y="-29"/>
    </contour>
    <contour>
      <point x="441" y="135" type="curve" smooth="yes"/>
      <point x="540" y="135"/>
      <point x="618" y="167"/>
      <point x="674" y="230" type="curve" smooth="yes"/>
      <point x="722" y="285"/>
      <point x="746" y="352"/>
      <point x="762" y="433" type="curve" smooth="yes"/>
      <point x="863" y="950" type="line"/>
      <point x="594" y="950" type="line" smooth="yes"/>
      <point x="475" y="950"/>
      <point x="405" y="904"/>
      <point x="353" y="827" type="curve" smooth="yes"/>
      <point x="304" y="755"/>
      <point x="268" y="648"/>
      <point x="248" y="543" type="curve" smooth="yes"/>
      <point x="237" y="487"/>
      <point x="229" y="422"/>
      <point x="229" y="362" type="curve" smooth="yes"/>
      <point x="229" y="321"/>
      <point x="233" y="287"/>
      <point x="241" y="258" type="curve" smooth="yes"/>
      <point x="264" y="181"/>
      <point x="321" y="135"/>
    </contour>
  </outline>
</glyph>
<glyph name="uni054F" format="1">
  <advance width="1233"/>
  <unicode hex="054F"/>
  <outline>
    <contour>
      <point x="481" y="-29" type="curve" smooth="yes" name="dv01"/>
      <point x="316" y="-29"/>
      <point x="196" y="19" name="dh01"/>
      <point x="120" y="103" type="curve" smooth="yes" name="sh01"/>
      <point x="64" y="165" name="sv01"/>
      <point x="36" y="244" name="dh02"/>
      <point x="36" y="341" type="curve" smooth="yes"/>
      <point x="36" y="374" name="dv02"/>
      <point x="39" y="410"/>
      <point x="46" y="447" type="curve"/>
      <point x="256" y="447" type="line" name="dh03"/>
      <point x="251" y="420"/>
      <point x="248" y="396"/>
      <point x="248" y="373" type="curve" smooth="yes"/>
      <point x="248" y="309"/>
      <point x="266" y="257"/>
      <point x="302" y="216" type="curve" smooth="yes" name="ih01"/>
      <point x="349" y="163"/>
      <point x="421" y="135"/>
      <point x="513" y="135" type="curve" smooth="yes" name="at01"/>
      <point x="602" y="135"/>
      <point x="678" y="160" name="sh02"/>
      <point x="741" y="210" type="curve" smooth="yes" name="sv02"/>
      <point x="804" y="259"/>
      <point x="849" y="332" name="ih02"/>
      <point x="864" y="421" type="curve" smooth="yes"/>
      <point x="867" y="436" name="sv03"/>
      <point x="868" y="452"/>
      <point x="868" y="469" type="curve" smooth="yes"/>
      <point x="868" y="524" name="sh03"/>
      <point x="850" y="562"/>
      <point x="819" y="593" type="curve" smooth="yes"/>
      <point x="784" y="628"/>
      <point x="731" y="656"/>
      <point x="647" y="688" type="curve" smooth="yes" name="dh04"/>
      <point x="600" y="706"/>
      <point x="551" y="722"/>
      <point x="542" y="725" type="curve" smooth="yes" name="hr01"/>
      <point x="466" y="750"/>
      <point x="398" y="780" name="sh04"/>
      <point x="343" y="819" type="curve" smooth="yes"/>
      <point x="287" y="859"/>
      <point x="246" y="905"/>
      <point x="233" y="988" type="curve" smooth="yes"/>
      <point x="230" y="1003"/>
      <point x="229" y="1021"/>
      <point x="229" y="1042" type="curve" smooth="yes"/>
      <point x="229" y="1114"/>
      <point x="249" y="1197"/>
      <point x="293" y="1274" type="curve" smooth="yes"/>
      <point x="348" y="1369"/>
      <point x="433" y="1445"/>
      <point x="556" y="1488" type="curve" smooth="yes"/>
      <point x="618" y="1509"/>
      <point x="686" y="1520"/>
      <point x="761" y="1520" type="curve" smooth="yes"/>
      <point x="918" y="1520"/>
      <point x="1021" y="1474"/>
      <point x="1082" y="1401" type="curve" smooth="yes"/>
      <point x="1127" y="1346"/>
      <point x="1148" y="1280"/>
      <point x="1148" y="1204" type="curve" smooth="yes"/>
      <point x="1148" y="1177"/>
      <point x="1147" y="1149"/>
      <point x="1140" y="1120" type="curve"/>
      <point x="930" y="1120" type="line"/>
      <point x="934" y="1142"/>
      <point x="936" y="1163"/>
      <point x="936" y="1184" type="curve" smooth="yes"/>
      <point x="936" y="1227"/>
      <point x="927" y="1262"/>
      <point x="906" y="1290" type="curve" smooth="yes"/>
      <point x="873" y="1333"/>
      <point x="814" y="1355"/>
      <point x="729" y="1355" type="curve" smooth="yes"/>
      <point x="649" y="1355"/>
      <point x="584" y="1336"/>
      <point x="531" y="1293" type="curve" smooth="yes" name="hr02"/>
      <point x="479" y="1250"/>
      <point x="449" y="1191"/>
      <point x="438" y="1130" type="curve" smooth="yes"/>
      <point x="435" y="1117"/>
      <point x="434" y="1103"/>
      <point x="434" y="1089" type="curve" smooth="yes"/>
      <point x="434" y="1028"/>
      <point x="462" y="985"/>
      <point x="522" y="948" type="curve" smooth="yes"/>
      <point x="561" y="923"/>
      <point x="603" y="907"/>
      <point x="634" y="896" type="curve" smooth="yes"/>
      <point x="714" y="867"/>
      <point x="812" y="836"/>
      <point x="895" y="792" type="curve" smooth="yes"/>
      <point x="979" y="747"/>
      <point x="1041" y="690"/>
      <point x="1064" y="594" type="curve" smooth="yes" name="hr03"/>
      <point x="1070" y="569"/>
      <point x="1073" y="542"/>
      <point x="1073" y="514" type="curve" smooth="yes"/>
      <point x="1073" y="426"/>
      <point x="1046" y="330"/>
      <point x="995" y="243" type="curve" smooth="yes"/>
      <point x="928" y="130"/>
      <point x="831" y="49"/>
      <point x="700" y="5" type="curve" smooth="yes"/>
      <point x="633" y="-18"/>
      <point x="560" y="-29"/>
    </contour>
  </outline>
</glyph>
<glyph name="uni0566" format="1">
  <advance width="1233"/>
  <unicode hex="0566"/>
  <outline>
    <contour>
      <point x="763" y="139" type="line"/>
      <point x="679" y="26" name="dv03"/>
      <point x="568" y="-33"/>
      <point x="429" y="-33" type="curve" smooth="yes" name="dh01"/>
      <point x="292" y="-33"/>
      <point x="198" y="24"/>
      <point x="143" y="124" type="curve" smooth="yes" name="at02"/>
      <point x="108" y="188"/>
      <point x="91" y="268" name="at01"/>
      <point x="91" y="363" type="curve" smooth="yes"/>
      <point x="91" y="420"/>
      <point x="97" y="483" name="dv02"/>
      <point x="110" y="551" type="curve" smooth="yes" name="dv01"/>
      <point x="146" y="739"/>
      <point x="218" y="885" name="dv04"/>
      <point x="310" y="985" type="curve" smooth="yes"/>
      <point x="406" y="1088"/>
      <point x="525" y="1143" name="sv01"/>
      <point x="658" y="1143" type="curve" smooth="yes"/>
      <point x="794" y="1143" name="dh02"/>
      <point x="886" y="1086"/>
      <point x="925" y="973" type="curve"/>
      <point x="974" y="1120" type="line"/>
      <point x="1139" y="1120" type="line"/>
      <point x="866" y="-281" type="line"/>
      <point x="1034" y="-281" type="line"/>
      <point x="1006" y="-426" type="line" name="hr01"/>
      <point x="653" y="-426" type="line"/>
    </contour>
    <contour>
      <point x="491" y="123" type="curve" smooth="yes"/>
      <point x="674" y="123"/>
      <point x="789" y="276"/>
      <point x="844" y="555" type="curve" smooth="yes" name="hr02"/>
      <point x="857" y="624"/>
      <point x="864" y="683"/>
      <point x="864" y="734" type="curve" smooth="yes"/>
      <point x="864" y="901"/>
      <point x="796" y="987"/>
      <point x="659" y="987" type="curve" smooth="yes"/>
      <point x="566" y="987"/>
      <point x="491" y="947"/>
      <point x="436" y="879" type="curve" smooth="yes"/>
      <point x="348" y="770"/>
      <point x="287" y="546"/>
      <point x="287" y="378" type="curve" smooth="yes"/>
      <point x="287" y="319"/>
      <point x="295" y="271"/>
      <point x="310" y="232" type="curve"/>
      <point x="341" y="157"/>
      <point x="403" y="123"/>
    </contour>
  </outline>
</glyph>
<glyph name="uni0567" format="1">
  <advance width="1233"/>
  <unicode hex="0567"/>
  <outline>
    <contour>
      <point x="358" y="1556" type="line" name="at01"/>
      <point x="542" y="1556" type="line"/>
      <point x="457" y="1120" type="line" name="at02"/>
      <point x="1091" y="1120" type="line"/>
      <point x="1063" y="977" type="line" name="sv01"/>
      <point x="429" y="977" type="line"/>
      <point x="268" y="148" type="line" name="sv02"/>
      <point x="817" y="148" type="line"/>
      <point x="788" y="0" type="line" name="ab01"/>
      <point x="55" y="0" type="line"/>
    </contour>
  </outline>
</glyph>
<glyph name="uni0571" format="1">
  <advance width="1233"/>
  <unicode hex="0571"/>
  <outline>
    <contour>
      <point x="390" y="-30" type="curve" smooth="yes" name="dv01"/>
      <point x="275" y="-30"/>
      <point x="191" y="12" name="sh01"/>
      <point x="140" y="95" type="curve" smooth="yes" name="sh02"/>
      <point x="108" y="148" name="sh04"/>
      <point x="90" y="218" name="ih01"/>
      <point x="90" y="298" type="curve" smooth="yes"/>
      <point x="90" y="339"/>
      <point x="94" y="380"/>
      <point x="103" y="421" type="curve"/>
      <point x="127" y="542" name="at01"/>
      <point x="185" y="674" name="ih02"/>
      <point x="276" y="799" type="curve" smooth="yes"/>
      <point x="364" y="920"/>
      <point x="477" y="1029"/>
      <point x="618" y="1121" type="curve"/>
      <point x="543" y="1130"/>
      <point x="497" y="1161"/>
      <point x="466" y="1205" type="curve" smooth="yes" name="ih03"/>
      <point x="445" y="1236"/>
      <point x="434" y="1271" name="sh06"/>
      <point x="434" y="1310" type="curve" smooth="yes" name="ih04"/>
      <point x="434" y="1323"/>
      <point x="436" y="1337" name="sh05"/>
      <point x="439" y="1354" type="curve" smooth="yes"/>
      <point x="448" y="1397" name="ab01"/>
      <point x="467" y="1440"/>
      <point x="498" y="1477" type="curve" smooth="yes" name="ih05"/>
      <point x="565" y="1556" type="line"/>
      <point x="764" y="1556" type="line"/>
      <point x="690" y="1471" type="line" smooth="yes" name="dv02"/>
      <point x="662" y="1439"/>
      <point x="646" y="1405"/>
      <point x="639" y="1374" type="curve" smooth="yes" name="sh07"/>
      <point x="637" y="1365" name="ah02"/>
      <point x="636" y="1356" name="sh08"/>
      <point x="636" y="1347" type="curve" smooth="yes"/>
      <point x="636" y="1322"/>
      <point x="644" y="1300" name="sh09"/>
      <point x="659" y="1281" type="curve" smooth="yes" name="sh03"/>
      <point x="679" y="1257"/>
      <point x="707" y="1242"/>
      <point x="754" y="1242" type="curve" smooth="yes" name="ah01"/>
      <point x="778" y="1242" name="sh10"/>
      <point x="807" y="1246"/>
      <point x="828" y="1258" type="curve" smooth="yes"/>
      <point x="945" y="1324" type="line"/>
      <point x="910" y="1147" type="line"/>
      <point x="880" y="1131"/>
      <point x="906" y="1144"/>
      <point x="858" y="1118" type="curve" smooth="yes"/>
      <point x="805" y="1088" type="line"/>
      <point x="913" y="1024"/>
      <point x="975" y="944"/>
      <point x="1006" y="845" type="curve" smooth="yes"/>
      <point x="1022" y="794"/>
      <point x="1030" y="739"/>
      <point x="1030" y="681" type="curve" smooth="yes"/>
      <point x="1030" y="628"/>
      <point x="1023" y="573"/>
      <point x="1012" y="513" type="curve"/>
      <point x="912" y="0" type="line"/>
      <point x="728" y="0" type="line"/>
      <point x="762" y="172" type="line"/>
      <point x="725" y="112"/>
      <point x="671" y="62"/>
      <point x="608" y="27" type="curve" smooth="yes"/>
      <point x="544" y="-9"/>
      <point x="471" y="-30"/>
    </contour>
    <contour>
      <point x="477" y="131" type="curve" smooth="yes"/>
      <point x="569" y="131"/>
      <point x="648" y="166"/>
      <point x="709" y="234" type="curve" smooth="yes"/>
      <point x="769" y="299"/>
      <point x="804" y="385"/>
      <point x="820" y="470" type="curve" smooth="yes"/>
      <point x="836" y="556" type="line" smooth="yes"/>
      <point x="843" y="595"/>
      <point x="848" y="635"/>
      <point x="848" y="678" type="curve" smooth="yes"/>
      <point x="848" y="717"/>
      <point x="844" y="753"/>
      <point x="835" y="788" type="curve" smooth="yes"/>
      <point x="814" y="868"/>
      <point x="766" y="942"/>
      <point x="677" y="994" type="curve"/>
      <point x="585" y="922"/>
      <point x="501" y="838"/>
      <point x="437" y="750" type="curve" smooth="yes"/>
      <point x="376" y="666"/>
      <point x="323" y="562"/>
      <point x="300" y="453" type="curve"/>
      <point x="293" y="416"/>
      <point x="289" y="381"/>
      <point x="289" y="348" type="curve" smooth="yes"/>
      <point x="289" y="301"/>
      <point x="296" y="258"/>
      <point x="312" y="223" type="curve" smooth="yes"/>
      <point x="339" y="163"/>
      <point x="392" y="131"/>
    </contour>
  </outline>
</glyph>
<glyph name="uni10D0" format="1">
  <advance width="1233"/>
  <unicode hex="10D0"/>
  <outline>
    <contour>
      <point x="493" y="0" type="curve" smooth="yes" name="ab01"/>
      <point x="242" y="0" name="dh01"/>
      <point x="123" y="106"/>
      <point x="123" y="338" type="curve" smooth="yes" name="ih01"/>
      <point x="123" y="511"/>
      <point x="190" y="585" name="dh02"/>
      <point x="257" y="660" type="curve" name="sv01"/>
      <point x="447" y="660" type="line" name="sh01"/>
      <point x="371" y="586" name="dh05"/>
      <point x="339" y="536"/>
      <point x="326" y="473" type="curve" smooth="yes" name="dh03"/>
      <point x="319" y="442" name="sh02"/>
      <point x="314" y="394"/>
      <point x="314" y="358" type="curve" smooth="yes" name="dh04"/>
      <point x="314" y="218"/>
      <point x="388" y="145" name="dh06"/>
      <point x="528" y="145" type="curve" smooth="yes"/>
      <point x="701" y="145"/>
      <point x="840" y="261"/>
      <point x="872" y="480" type="curve" smooth="yes" name="sh03"/>
      <point x="876" y="507"/>
      <point x="879" y="542"/>
      <point x="879" y="565" type="curve" smooth="yes"/>
      <point x="879" y="657"/>
      <point x="829" y="731"/>
      <point x="738" y="768" type="curve"/>
      <point x="585" y="825"/>
      <point x="509" y="923"/>
      <point x="509" y="1062" type="curve" smooth="yes"/>
      <point x="509" y="1087"/>
      <point x="512" y="1115"/>
      <point x="517" y="1146" type="curve"/>
      <point x="698" y="1146" type="line"/>
      <point x="694" y="1124"/>
      <point x="692" y="1103"/>
      <point x="692" y="1084" type="curve" smooth="yes"/>
      <point x="692" y="1011"/>
      <point x="723" y="961"/>
      <point x="784" y="934" type="curve"/>
      <point x="974" y="861"/>
      <point x="1069" y="744"/>
      <point x="1069" y="583" type="curve" smooth="yes"/>
      <point x="1069" y="554"/>
      <point x="1067" y="528"/>
      <point x="1060" y="495" type="curve"/>
      <point x="1000" y="163"/>
      <point x="806" y="0"/>
    </contour>
  </outline>
</glyph>
<glyph name="uni10DB" format="1">
  <advance width="1233"/>
  <unicode hex="10DB"/>
  <outline>
    <contour>
      <point x="480" y="0" type="curve" smooth="yes" name="ab01"/>
      <point x="221" y="0" name="sh01"/>
      <point x="91" y="121"/>
      <point x="91" y="349" type="curve" smooth="yes" name="dv02"/>
      <point x="91" y="398"/>
      <point x="97" y="462"/>
      <point x="108" y="525" type="curve" smooth="yes" name="sh02"/>
      <point x="169" y="872" name="ah02"/>
      <point x="377" y="1046" name="sv01"/>
      <point x="664" y="1046" type="curve" smooth="yes"/>
      <point x="804" y="1046" name="sv02"/>
      <point x="878" y="1005" name="sh04"/>
      <point x="909" y="921" type="curve"/>
      <point x="929" y="921" type="line" name="at01"/>
      <point x="979" y="1179" type="line" smooth="yes" name="sh05"/>
      <point x="983" y="1201" name="sh06"/>
      <point x="985" y="1220"/>
      <point x="985" y="1237" type="curve" smooth="yes"/>
      <point x="985" y="1357" name="sv03"/>
      <point x="863" y="1415"/>
      <point x="739" y="1415" type="curve" smooth="yes"/>
      <point x="620" y="1415" name="dv01"/>
      <point x="498" y="1362"/>
      <point x="479" y="1263" type="curve" smooth="yes" name="sh03"/>
      <point x="467" y="1201" type="line"/>
      <point x="280" y="1201" type="line" name="ah01"/>
      <point x="292" y="1263" type="line" smooth="yes" name="sh07"/>
      <point x="331" y="1460"/>
      <point x="488" y="1557"/>
      <point x="765" y="1557" type="curve" smooth="yes"/>
      <point x="1031" y="1557"/>
      <point x="1164" y="1463"/>
      <point x="1164" y="1276" type="curve" smooth="yes"/>
      <point x="1164" y="1247"/>
      <point x="1161" y="1214"/>
      <point x="1154" y="1179" type="curve" smooth="yes"/>
      <point x="1021" y="495" type="line" smooth="yes" name="hr01"/>
      <point x="957" y="165"/>
      <point x="777" y="0"/>
    </contour>
    <contour>
      <point x="506" y="145" type="curve" smooth="yes"/>
      <point x="682" y="145"/>
      <point x="786" y="259"/>
      <point x="833" y="495" type="curve" smooth="yes"/>
      <point x="845" y="556"/>
      <point x="851" y="610"/>
      <point x="851" y="657" type="curve" smooth="yes"/>
      <point x="851" y="824"/>
      <point x="780" y="902"/>
      <point x="641" y="902" type="curve" smooth="yes"/>
      <point x="455" y="902"/>
      <point x="338" y="758"/>
      <point x="296" y="527" type="curve"/>
      <point x="285" y="471"/>
      <point x="281" y="418"/>
      <point x="281" y="379" type="curve" smooth="yes"/>
      <point x="281" y="226"/>
      <point x="357" y="145"/>
    </contour>
  </outline>
</glyph>
<glyph name="uni10DF" format="1">
  <advance width="1233"/>
  <unicode hex="10DF"/>
  <outline>
    <contour>
      <point x="462" y="-423" type="curve" smooth="yes" name="dv01"/>
      <point x="205" y="-423" name="sh01"/>
      <point x="75" y="-333" name="sh02"/>
      <point x="75" y="-148" type="curve" smooth="yes" name="sh04"/>
      <point x="75" y="-120" name="sh03"/>
      <point x="78" y="-89" name="dv02"/>
      <point x="85" y="-56" type="curve"/>
      <point x="272" y="-56" type="line"/>
      <point x="267" y="-77"/>
      <point x="265" y="-98" name="sh05"/>
      <point x="265" y="-118" type="curve" smooth="yes" name="sh06"/>
      <point x="265" y="-228" name="sh07"/>
      <point x="340" y="-283" name="dv03"/>
      <point x="490" y="-283" type="curve" smooth="yes" name="dv04"/>
      <point x="684" y="-283" name="sh08"/>
      <point x="799" y="-194" name="ah02"/>
      <point x="834" y="-16" type="curve" smooth="yes" name="sh09"/>
      <point x="1016" y="920" type="line" name="sh10"/>
      <point x="570" y="868" type="line" name="av01"/>
      <point x="559" y="808" type="line"/>
      <point x="676" y="757"/>
      <point x="725" y="672" name="ah01"/>
      <point x="725" y="564" type="curve" smooth="yes"/>
      <point x="725" y="537"/>
      <point x="722" y="510"/>
      <point x="716" y="481" type="curve" smooth="yes"/>
      <point x="673" y="276"/>
      <point x="487" y="175"/>
      <point x="130" y="174" type="curve"/>
      <point x="162" y="341" type="line"/>
      <point x="423" y="341"/>
      <point x="527" y="393"/>
      <point x="548" y="481" type="curve" smooth="yes"/>
      <point x="552" y="497"/>
      <point x="555" y="523"/>
      <point x="555" y="546" type="curve" smooth="yes"/>
      <point x="555" y="683"/>
      <point x="455" y="772"/>
      <point x="254" y="815" type="curve"/>
      <point x="279" y="945" type="line" name="hr01"/>
      <point x="1220" y="1074" type="line"/>
      <point x="1008" y="-18" type="line" smooth="yes"/>
      <point x="956" y="-286"/>
      <point x="779" y="-423"/>
    </contour>
  </outline>
</glyph>
<glyph name="uni10E3" format="1">
  <advance width="1233"/>
  <unicode hex="10E3"/>
  <outline>
    <contour>
      <point x="515" y="-423" type="curve" smooth="yes" name="dv01"/>
      <point x="247" y="-423" name="sh01"/>
      <point x="108" y="-322" name="sh02"/>
      <point x="108" y="-118" type="curve" smooth="yes"/>
      <point x="108" y="-79" name="ih01"/>
      <point x="113" y="-36" name="sh05"/>
      <point x="120" y="-3" type="curve" smooth="yes" name="sh04"/>
      <point x="141" y="98" name="dv02"/>
      <point x="197" y="181"/>
      <point x="313" y="246" type="curve" name="sh06"/>
      <point x="492" y="246" type="line" name="ah02"/>
      <point x="380" y="159" name="sv01"/>
      <point x="325" y="85"/>
      <point x="306" y="-3" type="curve" smooth="yes"/>
      <point x="300" y="-32"/>
      <point x="297" y="-59"/>
      <point x="297" y="-82" type="curve" smooth="yes"/>
      <point x="297" y="-214" name="sv02"/>
      <point x="377" y="-283"/>
      <point x="544" y="-283" type="curve" smooth="yes" name="sh07"/>
      <point x="721" y="-283"/>
      <point x="821" y="-204" name="ih02"/>
      <point x="852" y="-43" type="curve" smooth="yes" name="dv03"/>
      <point x="997" y="703" type="line" smooth="yes"/>
      <point x="1002" y="731" name="av01"/>
      <point x="1005" y="753"/>
      <point x="1005" y="776" type="curve" smooth="yes"/>
      <point x="1005" y="855" name="av02"/>
      <point x="969" y="894"/>
      <point x="908" y="894" type="curve" smooth="yes" name="sh03"/>
      <point x="816" y="894" name="sh08"/>
      <point x="756" y="807"/>
      <point x="720" y="623" type="curve"/>
      <point x="672" y="430" type="line" name="ah01"/>
      <point x="539" y="430" type="line" name="sh09"/>
      <point x="568" y="623" type="line" name="hr04"/>
      <point x="579" y="682"/>
      <point x="584" y="729"/>
      <point x="584" y="768" type="curve" smooth="yes"/>
      <point x="584" y="851"/>
      <point x="559" y="893"/>
      <point x="510" y="894" type="curve"/>
      <point x="461" y="891"/>
      <point x="437" y="871"/>
      <point x="404" y="826" type="curve"/>
      <point x="388" y="802"/>
      <point x="357" y="759"/>
      <point x="299" y="759" type="curve" smooth="yes"/>
      <point x="250" y="759"/>
      <point x="204" y="791"/>
      <point x="161" y="854" type="curve"/>
      <point x="247" y="1035" type="line"/>
      <point x="279" y="966"/>
      <point x="300" y="937"/>
      <point x="339" y="937" type="curve" smooth="yes"/>
      <point x="374" y="937"/>
      <point x="397" y="960"/>
      <point x="424" y="987" type="curve" smooth="yes"/>
      <point x="451" y="1014"/>
      <point x="476" y="1036"/>
      <point x="529" y="1036" type="curve" smooth="yes"/>
      <point x="614" y="1036"/>
      <point x="651" y="977"/>
      <point x="675" y="852" type="curve"/>
      <point x="695" y="852" type="line"/>
      <point x="766" y="974"/>
      <point x="847" y="1035"/>
      <point x="938" y="1035" type="curve" smooth="yes"/>
      <point x="941" y="1035" type="line" smooth="yes"/>
      <point x="1104" y="1035"/>
      <point x="1186" y="961"/>
      <point x="1186" y="812" type="curve" smooth="yes"/>
      <point x="1186" y="778"/>
      <point x="1182" y="742"/>
      <point x="1175" y="703" type="curve"/>
      <point x="1029" y="-43" type="line"/>
      <point x="978" y="-296"/>
      <point x="812" y="-423"/>
    </contour>
  </outline>
</glyph>
<glyph name="uni10ED" format="1">
  <advance width="1233"/>
  <unicode hex="10ED"/>
  <outline>
    <contour>
      <point x="428" y="-423" type="curve" smooth="yes" name="dv01"/>
      <point x="167" y="-423" name="dh01"/>
      <point x="38" y="-325"/>
      <point x="38" y="-133" type="curve" smooth="yes"/>
      <point x="38" y="-94"/>
      <point x="43" y="-51"/>
      <point x="50" y="-18" type="curve" smooth="yes" name="dh02"/>
      <point x="66" y="57" name="dv02"/>
      <point x="100" y="114"/>
      <point x="169" y="181" type="curve" name="dh03"/>
      <point x="292" y="76" type="line"/>
      <point x="261" y="49"/>
      <point x="244" y="22" name="ih01"/>
      <point x="233" y="-33" type="curve" smooth="yes" name="dv07"/>
      <point x="228" y="-60" name="sh01"/>
      <point x="225" y="-83"/>
      <point x="225" y="-102" type="curve" smooth="yes" name="dv04"/>
      <point x="225" y="-217"/>
      <point x="335" y="-284" name="av01"/>
      <point x="458" y="-284" type="curve" smooth="yes"/>
      <point x="593" y="-284"/>
      <point x="742" y="-204" name="ih02"/>
      <point x="777" y="-20" type="curve" name="sh02"/>
      <point x="781" y="-3" name="dv06"/>
      <point x="783" y="14" name="dv05"/>
      <point x="783" y="31" type="curve" smooth="yes"/>
      <point x="783" y="114"/>
      <point x="739" y="184" name="sh04"/>
      <point x="652" y="239" type="curve" name="sh05"/>
      <point x="601" y="302"/>
      <point x="575" y="363" name="dh04"/>
      <point x="575" y="420" type="curve" smooth="yes"/>
      <point x="575" y="431"/>
      <point x="576" y="441"/>
      <point x="577" y="452" type="curve"/>
      <point x="484" y="433" type="line" name="sh03"/>
      <point x="313" y="433" name="dv03"/>
      <point x="228" y="508"/>
      <point x="228" y="658" type="curve" smooth="yes"/>
      <point x="228" y="690" name="sh06"/>
      <point x="232" y="724" name="dv08"/>
      <point x="239" y="761" type="curve" smooth="yes"/>
      <point x="282" y="983" name="sh07"/>
      <point x="410" y="1094"/>
      <point x="625" y="1094" type="curve"/>
      <point x="700" y="1085" type="line"/>
      <point x="785" y="1521" type="line"/>
      <point x="942" y="1521" type="line" name="hr02"/>
      <point x="843" y="1010" type="line"/>
      <point x="887" y="978"/>
      <point x="909" y="936"/>
      <point x="909" y="884" type="curve" smooth="yes"/>
      <point x="909" y="871"/>
      <point x="908" y="859"/>
      <point x="906" y="846" type="curve"/>
      <point x="1090" y="846" type="line"/>
      <point x="1058" y="684" type="line"/>
      <point x="869" y="684" type="line"/>
      <point x="856" y="615"/>
      <point x="819" y="561"/>
      <point x="756" y="524" type="curve"/>
      <point x="741" y="452" type="line" smooth="yes"/>
      <point x="740" y="450"/>
      <point x="740" y="447"/>
      <point x="740" y="443" type="curve" smooth="yes"/>
      <point x="740" y="400"/>
      <point x="787" y="347"/>
      <point x="881" y="282" type="curve"/>
      <point x="943" y="233"/>
      <point x="974" y="162"/>
      <point x="974" y="70" type="curve" smooth="yes"/>
      <point x="974" y="42"/>
      <point x="971" y="12"/>
      <point x="965" y="-20" type="curve" smooth="yes" name="hr03"/>
      <point x="917" y="-281"/>
      <point x="739" y="-423"/>
    </contour>
    <contour>
      <point x="542" y="562" type="line" smooth="yes"/>
      <point x="649" y="562"/>
      <point x="720" y="623"/>
      <point x="747" y="763" type="curve" smooth="yes"/>
      <point x="752" y="788"/>
      <point x="754" y="810"/>
      <point x="754" y="829" type="curve" smooth="yes"/>
      <point x="754" y="914"/>
      <point x="710" y="956"/>
      <point x="623" y="956" type="curve" smooth="yes"/>
      <point x="621" y="956" type="line" smooth="yes"/>
      <point x="510" y="956"/>
      <point x="441" y="898"/>
      <point x="414" y="763" type="curve" smooth="yes"/>
      <point x="409" y="736"/>
      <point x="406" y="717"/>
      <point x="406" y="694" type="curve" smooth="yes"/>
      <point x="406" y="606"/>
      <point x="450" y="562"/>
      <point x="538" y="562" type="curve" smooth="yes"/>
    </contour>
  </outline>
</glyph>
<glyph name="uni10FA" format="1">
  <advance width="1233"/>
  <unicode hex="10FA"/>
  <outline>
    <contour>
      <point x="636" y="-134" type="line"/>
      <point x="638" y="-134"/>
      <point x="605" y="-85" name="ab01"/>
      <point x="591" y="-68" type="curve" smooth="yes" name="av01"/>
      <point x="559" y="-28"/>
      <point x="512" y="-8"/>
      <point x="451" y="-8" type="curve" smooth="yes"/>
      <point x="364" y="-8" name="sh01"/>
      <point x="290" y="-47"/>
      <point x="230" y="-124" type="curve" name="dv02"/>
      <point x="115" y="-50" type="line" name="sh02"/>
      <point x="173" y="18"/>
      <point x="242" y="60"/>
      <point x="322" y="76" type="curve" name="ah02"/>
      <point x="328" y="106" type="line" name="dv01"/>
      <point x="225" y="193"/>
      <point x="174" y="311" name="sh03"/>
      <point x="174" y="460" type="curve" smooth="yes"/>
      <point x="174" y="507"/>
      <point x="179" y="557" name="av02"/>
      <point x="190" y="608" type="curve" smooth="yes" name="ah01"/>
      <point x="250" y="901" name="sh04"/>
      <point x="432" y="1043"/>
      <point x="759" y="1046" type="curve"/>
      <point x="1005" y="1025"/>
      <point x="1128" y="932"/>
      <point x="1128" y="768" type="curve" smooth="yes"/>
      <point x="1128" y="634"/>
      <point x="1048" y="454"/>
      <point x="888" y="227" type="curve"/>
      <point x="754" y="288" type="line"/>
      <point x="881" y="483"/>
      <point x="944" y="631"/>
      <point x="944" y="734" type="curve" smooth="yes"/>
      <point x="944" y="843"/>
      <point x="870" y="903"/>
      <point x="725" y="903" type="curve" smooth="yes"/>
      <point x="538" y="903"/>
      <point x="420" y="806"/>
      <point x="381" y="610" type="curve" smooth="yes"/>
      <point x="372" y="565"/>
      <point x="366" y="507"/>
      <point x="366" y="452" type="curve" smooth="yes"/>
      <point x="366" y="375"/>
      <point x="378" y="275"/>
      <point x="501" y="147" type="curve"/>
      <point x="615" y="119"/>
      <point x="703" y="56"/>
      <point x="766" y="-42" type="curve" name="hr02"/>
      <point x="636" y="-135" type="line" name="hr01"/>
    </contour>
  </outline>
</glyph>
<glyph name="uni1EBC" format="1">
  <advance width="1233"/>
  <unicode hex="1EBC"/>
  <outline>
    <contour>
      <point x="700" y="1728" type="curve" smooth="yes"/>
      <point x="724" y="1728"/>
      <point x="751" y="1717"/>
      <point x="780" y="1696" type="curve" smooth="yes"/>
      <point x="782" y="1695" type="line"/>
      <point x="816" y="1670" type="line" smooth="yes"/>
      <point x="859" y="1638"/>
      <point x="894" y="1627"/>
      <point x="938" y="1627" type="curve" smooth="yes" name="hr01"/>
      <point x="1051" y="1627"/>
      <point x="1140" y="1702"/>
      <point x="1183" y="1846" type="curve" name="hr02"/>
      <point x="1058" y="1846" type="line"/>
      <point x="1042" y="1783"/>
      <point x="1005" y="1746"/>
      <point x="950" y="1746" type="curve" smooth="yes" name="hr03"/>
      <point x="926" y="1746"/>
      <point x="902" y="1755"/>
      <point x="878" y="1773" type="curve" smooth="yes"/>
      <point x="843" y="1799" type="line" smooth="yes"/>
      <point x="801" y="1830"/>
      <point x="756" y="1846"/>
      <point x="708" y="1846" type="curve" smooth="yes" name="hr04"/>
      <point x="599" y="1846"/>
      <point x="515" y="1771"/>
      <point x="468" y="1627" type="curve" name="hr05"/>
      <point x="593" y="1627" type="line"/>
      <point x="618" y="1694"/>
      <point x="654" y="1728"/>
    </contour>
    <contour>
      <point x="958" y="0" type="line"/>
      <point x="991" y="170" type="line"/>
      <point x="289" y="170" type="line"/>
      <point x="393" y="711" type="line"/>
      <point x="1047" y="711" type="line"/>
      <point x="1079" y="881" type="line"/>
      <point x="426" y="881" type="line"/>
      <point x="512" y="1323" type="line"/>
      <point x="1196" y="1323" type="line"/>
      <point x="1229" y="1493" type="line"/>
      <point x="344" y="1493" type="line"/>
      <point x="53" y="0" type="line"/>
    </contour>
  </outline>
</glyph>
<glyph name="uni203F" format="1">
  <advance width="1233"/>
  <unicode hex="203F"/>
  <outline>
    <contour>
      <point x="614" y="-485" type="curve" smooth="yes" name="dv01"/>
      <point x="390" y="-485"/>
      <point x="169" y="-409" name="av01"/>
      <point x="-68" y="-249" type="curve"/>
      <point x="-68" y="-123" type="line" name="dv02"/>
      <point x="53" y="-196" name="av02"/>
      <point x="160" y="-244"/>
      <point x="273" y="-279" type="curve" smooth="yes"/>
      <point x="386" y="-314"/>
      <point x="493" y="-331"/>
      <point x="613" y="-331" type="curve" smooth="yes"/>
      <point x="849" y="-331"/>
      <point x="1069" y="-263"/>
      <point x="1300" y="-123" type="curve"/>
      <point x="1300" y="-249" type="line"/>
      <point x="1064" y="-406"/>
      <point x="841" y="-485"/>
    </contour>
  </outline>
</glyph>
<glyph name="uni2070" format="1">
  <advance width="1233"/>
  <unicode hex="2070"/>
  <outline>
    <contour>
      <point x="611" y="653" type="curve" smooth="yes" name="dv01"/>
      <point x="436" y="653" name="dh01"/>
      <point x="353" y="741"/>
      <point x="353" y="929" type="curve" smooth="yes" name="at01"/>
      <point x="353" y="1079" name="dh06"/>
      <point x="407" y="1257"/>
      <point x="487" y="1366" type="curve" smooth="yes"/>
      <point x="566" y="1475" name="dv02"/>
      <point x="665" y="1520"/>
      <point x="790" y="1520" type="curve" smooth="yes" name="dh05"/>
      <point x="965" y="1520" name="sv01"/>
      <point x="1050" y="1433"/>
      <point x="1050" y="1246" type="curve" smooth="yes" name="dh02"/>
      <point x="1050" y="1100"/>
      <point x="996" y="920" name="dv03"/>
      <point x="916" y="808" type="curve" smooth="yes" name="dh03"/>
      <point x="843" y="705" name="dv04"/>
      <point x="741" y="653" name="dh04"/>
    </contour>
    <contour>
      <point x="625" y="745" type="curve" smooth="yes"/>
      <point x="701" y="745" name="sh01"/>
      <point x="757" y="779"/>
      <point x="804" y="856" type="curve" smooth="yes"/>
      <point x="865" y="957"/>
      <point x="913" y="1134"/>
      <point x="913" y="1260" type="curve" smooth="yes"/>
      <point x="913" y="1380"/>
      <point x="871" y="1428"/>
      <point x="779" y="1428" type="curve" smooth="yes"/>
      <point x="703" y="1428"/>
      <point x="645" y="1397"/>
      <point x="597" y="1318" type="curve" smooth="yes"/>
      <point x="536" y="1217"/>
      <point x="488" y="1036"/>
      <point x="488" y="913" type="curve" smooth="yes"/>
      <point x="488" y="796"/>
      <point x="530" y="745"/>
    </contour>
    <contour>
      <point x="702" y="1014" type="curve" smooth="yes"/>
      <point x="651" y="1014"/>
      <point x="610" y="1046"/>
      <point x="610" y="1089" type="curve" smooth="yes"/>
      <point x="610" y="1131"/>
      <point x="653" y="1165"/>
      <point x="701" y="1165" type="curve" smooth="yes"/>
      <point x="750" y="1165"/>
      <point x="791" y="1131"/>
      <point x="791" y="1088" type="curve" smooth="yes"/>
      <point x="791" y="1047"/>
      <point x="753" y="1014"/>
    </contour>
  </outline>
</glyph>
<glyph name="lira" format="1">
  <advance width="1233"/>
  <unicode hex="20A4"/>
  <outline>
    <contour>
      <point x="76" y="170" type="line" name="sv01"/>
      <point x="292" y="170" type="line"/>
      <point x="358" y="535" type="line" name="dv01"/>
      <point x="170" y="535" type="line"/>
      <point x="196" y="678" type="line"/>
      <point x="383" y="678" type="line" name="dv02"/>
      <point x="409" y="827" type="line" name="dv03"/>
      <point x="223" y="827" type="line"/>
      <point x="250" y="970" type="line"/>
      <point x="435" y="970" type="line" name="dv04"/>
      <point x="443" y="1016" type="line" smooth="yes"/>
      <point x="505" y="1366" name="at01"/>
      <point x="670" y="1520"/>
      <point x="939" y="1520" type="curve" smooth="yes" name="iv01"/>
      <point x="1036" y="1520" name="sv02"/>
      <point x="1116" y="1500"/>
      <point x="1203" y="1460" type="curve" name="sv03"/>
      <point x="1170" y="1278" type="line"/>
      <point x="1091" y="1333" name="sv04"/>
      <point x="1018" y="1360"/>
      <point x="926" y="1360" type="curve" smooth="yes" name="sv05"/>
      <point x="754" y="1360"/>
      <point x="673" y="1260" name="sv06"/>
      <point x="625" y="993" type="curve" smooth="yes"/>
      <point x="621" y="970" type="line" name="sv07"/>
      <point x="978" y="970" type="line" name="sv08"/>
      <point x="951" y="827" type="line" name="ab01"/>
      <point x="595" y="827" type="line"/>
      <point x="569" y="678" type="line"/>
      <point x="924" y="678" type="line"/>
      <point x="898" y="535" type="line"/>
      <point x="543" y="535" type="line"/>
      <point x="477" y="170" type="line"/>
      <point x="972" y="170" type="line"/>
      <point x="942" y="0" type="line"/>
      <point x="45" y="0" type="line"/>
    </contour>
  </outline>
</glyph>
<glyph name="uni2155" format="1">
  <advance width="1233"/>
  <unicode hex="2155"/>
  <outline>
    <contour>
      <point x="111" y="934" type="line" name="sv01"/>
      <point x="317" y="934" type="line"/>
      <point x="434" y="1545" type="line"/>
      <point x="203" y="1504" type="line"/>
      <point x="225" y="1620" type="line"/>
      <point x="463" y="1659" type="line" name="av01"/>
      <point x="600" y="1659" type="line"/>
      <point x="459" y="934" type="line"/>
      <point x="664" y="934" type="line" name="dv08"/>
      <point x="643" y="824" type="line" name="dv07"/>
      <point x="90" y="824" type="line"/>
    </contour>
    <contour>
      <point x="47" y="612" type="line"/>
      <point x="1106" y="870" type="line"/>
      <point x="1133" y="762" type="line"/>
      <point x="70" y="504" type="line"/>
    </contour>
    <contour>
      <point x="685" y="-285" type="curve" smooth="yes" name="dv01"/>
      <point x="597" y="-285"/>
      <point x="509" y="-273"/>
      <point x="445" y="-249" type="curve" name="dv02"/>
      <point x="472" y="-135" type="line" name="dh01"/>
      <point x="548" y="-172" name="dv03"/>
      <point x="630" y="-191"/>
      <point x="706" y="-191" type="curve" smooth="yes"/>
      <point x="878" y="-191" name="dv06"/>
      <point x="999" y="-92" name="dv05"/>
      <point x="999" y="35" type="curve" smooth="yes"/>
      <point x="999" y="135" name="iv01"/>
      <point x="924" y="190" name="dv04"/>
      <point x="793" y="190" type="curve" smooth="yes" name="dh02"/>
      <point x="725" y="190"/>
      <point x="649" y="175"/>
      <point x="581" y="147" type="curve"/>
      <point x="679" y="565" type="line" name="sh01"/>
      <point x="1187" y="565" type="line"/>
      <point x="1164" y="470" type="line"/>
      <point x="781" y="470" type="line"/>
      <point x="732" y="266" type="line"/>
      <point x="775" y="278"/>
      <point x="814" y="283"/>
      <point x="853" y="283" type="curve" smooth="yes"/>
      <point x="1022" y="283"/>
      <point x="1134" y="191"/>
      <point x="1134" y="51" type="curve" smooth="yes"/>
      <point x="1134" y="-45"/>
      <point x="1083" y="-132"/>
      <point x="999" y="-196" type="curve" smooth="yes"/>
      <point x="919" y="-256"/>
      <point x="822" y="-285"/>
    </contour>
  </outline>
</glyph>
<glyph name="uni2189" format="1">
  <advance width="1233"/>
  <unicode hex="2189"/>
  <outline>
    <contour>
      <point x="353" y="809" type="curve" smooth="yes" name="dv11"/>
      <point x="178" y="809" name="dh01"/>
      <point x="95" y="897"/>
      <point x="95" y="1085" type="curve" smooth="yes" name="dv04"/>
      <point x="95" y="1235" name="dh06"/>
      <point x="149" y="1413"/>
      <point x="229" y="1522" type="curve" smooth="yes"/>
      <point x="308" y="1631" name="dv12"/>
      <point x="407" y="1676"/>
      <point x="532" y="1676" type="curve" smooth="yes" name="dh05"/>
      <point x="707" y="1676" name="dv03"/>
      <point x="792" y="1589"/>
      <point x="792" y="1402" type="curve" smooth="yes" name="dh02"/>
      <point x="792" y="1256"/>
      <point x="738" y="1076" name="dv07"/>
      <point x="658" y="964" type="curve" smooth="yes" name="dh03"/>
      <point x="585" y="861" name="dv08"/>
      <point x="483" y="809" name="dh04"/>
    </contour>
    <contour>
      <point x="367" y="901" type="curve" smooth="yes"/>
      <point x="443" y="901"/>
      <point x="499" y="935"/>
      <point x="546" y="1012" type="curve" smooth="yes"/>
      <point x="607" y="1113" name="dv01"/>
      <point x="655" y="1290"/>
      <point x="655" y="1416" type="curve" smooth="yes"/>
      <point x="655" y="1536" name="dv02"/>
      <point x="613" y="1584" name="dh07"/>
      <point x="521" y="1584" type="curve" smooth="yes" name="dv05"/>
      <point x="445" y="1584" name="sh01"/>
      <point x="387" y="1553"/>
      <point x="339" y="1474" type="curve" smooth="yes" name="dv06"/>
      <point x="278" y="1373" name="sh02"/>
      <point x="230" y="1192" name="dv09"/>
      <point x="230" y="1069" type="curve" smooth="yes" name="ih01"/>
      <point x="230" y="952"/>
      <point x="272" y="901" name="dv10"/>
    </contour>
    <contour>
      <point x="444" y="1170" type="curve" smooth="yes" name="ih02"/>
      <point x="393" y="1170" name="dh08"/>
      <point x="352" y="1202"/>
      <point x="352" y="1245" type="curve" smooth="yes"/>
      <point x="352" y="1287" name="sh04"/>
      <point x="395" y="1321"/>
      <point x="443" y="1321" type="curve" smooth="yes"/>
      <point x="492" y="1321"/>
      <point x="533" y="1287"/>
      <point x="533" y="1244" type="curve" smooth="yes"/>
      <point x="533" y="1203"/>
      <point x="495" y="1170"/>
    </contour>
    <contour>
      <point x="47" y="612" type="line"/>
      <point x="1106" y="870" type="line"/>
      <point x="1133" y="762" type="line"/>
      <point x="70" y="504" type="line"/>
    </contour>
    <contour>
      <point x="673" y="-285" type="curve" smooth="yes"/>
      <point x="589" y="-285"/>
      <point x="504" y="-271"/>
      <point x="424" y="-244" type="curve"/>
      <point x="448" y="-123" type="line"/>
      <point x="537" y="-162"/>
      <point x="601" y="-178"/>
      <point x="673" y="-178" type="curve" smooth="yes"/>
      <point x="817" y="-178"/>
      <point x="911" y="-112"/>
      <point x="911" y="-4" type="curve" smooth="yes"/>
      <point x="911" y="81"/>
      <point x="853" y="123"/>
      <point x="737" y="123" type="curve" smooth="yes"/>
      <point x="665" y="123" type="line"/>
      <point x="686" y="229" type="line"/>
      <point x="758" y="229" type="line" smooth="yes"/>
      <point x="888" y="229"/>
      <point x="973" y="288"/>
      <point x="973" y="372" type="curve" smooth="yes"/>
      <point x="973" y="441"/>
      <point x="915" y="475"/>
      <point x="808" y="475" type="curve" smooth="yes"/>
      <point x="741" y="475"/>
      <point x="682" y="463"/>
      <point x="598" y="432" type="curve"/>
      <point x="620" y="547" type="line"/>
      <point x="717" y="570"/>
      <point x="798" y="582"/>
      <point x="865" y="582" type="curve" smooth="yes"/>
      <point x="1032" y="582"/>
      <point x="1120" y="512"/>
      <point x="1120" y="395" type="curve" smooth="yes"/>
      <point x="1120" y="284"/>
      <point x="1041" y="203"/>
      <point x="909" y="178" type="curve"/>
      <point x="1008" y="161"/>
      <point x="1059" y="100"/>
      <point x="1059" y="0" type="curve" smooth="yes"/>
      <point x="1059" y="-171"/>
      <point x="909" y="-285"/>
    </contour>
  </outline>
</glyph>
<glyph name="uni219C" format="1">
  <advance width="1233"/>
  <unicode hex="219C"/>
  <outline>
    <contour>
      <point x="89" y="807" type="line" name="dh01"/>
      <point x="147" y="865" type="line" name="av03"/>
      <point x="559" y="865" type="line" name="sh01"/>
      <point x="559" y="738" type="line" name="dv01"/>
      <point x="292" y="738" type="line" name="hr01"/>
      <point x="297" y="733"/>
      <point x="299" y="722" name="sv01"/>
      <point x="401" y="607" type="curve" smooth="yes"/>
      <point x="425" y="579"/>
      <point x="466" y="553"/>
      <point x="505" y="553" type="curve" smooth="yes" name="av04"/>
      <point x="529" y="553"/>
      <point x="580" y="564"/>
      <point x="617" y="608" type="curve"/>
      <point x="631" y="627"/>
      <point x="636" y="637" name="sv02"/>
      <point x="650" y="670" type="curve" smooth="yes"/>
      <point x="678" y="737"/>
      <point x="722" y="805"/>
      <point x="794" y="841" type="curve" smooth="yes" name="av01"/>
      <point x="825" y="856"/>
      <point x="858" y="864" name="dh02"/>
      <point x="893" y="864" type="curve" smooth="yes" name="av02"/>
      <point x="962" y="864" name="sv03"/>
      <point x="1023" y="833"/>
      <point x="1076" y="772" type="curve" smooth="yes"/>
      <point x="1104" y="739"/>
      <point x="1127" y="702"/>
      <point x="1144" y="660" type="curve"/>
      <point x="1038" y="593" type="line" name="hr02"/>
      <point x="1030" y="618"/>
      <point x="993" y="671"/>
      <point x="950" y="695" type="curve" smooth="yes"/>
      <point x="933" y="704"/>
      <point x="915" y="709"/>
      <point x="894" y="709" type="curve" smooth="yes"/>
      <point x="855" y="709"/>
      <point x="817" y="690"/>
      <point x="786" y="654" type="curve" smooth="yes"/>
      <point x="766" y="630"/>
      <point x="762" y="616"/>
      <point x="751" y="593" type="curve"/>
      <point x="725" y="532"/>
      <point x="680" y="457"/>
      <point x="607" y="422" type="curve" smooth="yes"/>
      <point x="575" y="407"/>
      <point x="542" y="399"/>
      <point x="509" y="399" type="curve" smooth="yes" name="hr03"/>
      <point x="433" y="399"/>
      <point x="370" y="438"/>
      <point x="325" y="491" type="curve" smooth="yes"/>
      <point x="216" y="619" type="line"/>
      <point x="216" y="395" type="line"/>
      <point x="89" y="395" type="line"/>
    </contour>
  </outline>
</glyph>
<glyph name="uni21E8" format="1">
  <advance width="1233"/>
  <unicode hex="21E8"/>
  <outline>
    <contour>
      <point x="836" y="389" type="line" name="ah01"/>
      <point x="66" y="389" type="line" name="sh01"/>
      <point x="66" y="733" type="line"/>
      <point x="836" y="733" type="line" name="sh02"/>
      <point x="836" y="934" type="line" name="ih01"/>
      <point x="1208" y="561" type="line"/>
      <point x="836" y="188" type="line" name="av01"/>
    </contour>
    <contour>
      <point x="1108" y="561" type="line"/>
      <point x="914" y="756" type="line" name="sh04"/>
      <point x="914" y="663" type="line" name="dv02"/>
      <point x="136" y="663" type="line"/>
      <point x="136" y="459" type="line" name="sh05"/>
      <point x="914" y="459" type="line" name="dv01"/>
      <point x="914" y="366" type="line" name="sh03"/>
    </contour>
  </outline>
</glyph>
<glyph name="uni21F2" format="1">
  <advance width="1233"/>
  <unicode hex="21F2"/>
  <outline>
    <contour>
      <point x="464" y="356" type="line"/>
      <point x="692" y="356" type="line" name="ih01"/>
      <point x="70" y="978" type="line"/>
      <point x="186" y="1094" type="line" name="av01"/>
      <point x="808" y="472" type="line" name="sh01"/>
      <point x="808" y="699" type="line"/>
      <point x="934" y="699" type="line" name="sv01"/>
      <point x="934" y="287" type="line" name="dh02"/>
      <point x="876" y="229" type="line" name="dv01"/>
      <point x="464" y="229" type="line" name="dh01"/>
    </contour>
    <contour>
      <point x="70" y="73" type="line" name="sv02"/>
      <point x="1090" y="73" type="line" name="dh03"/>
      <point x="1090" y="1093" type="line" name="av02"/>
      <point x="1164" y="1093" type="line"/>
      <point x="1164" y="0" type="line" name="dh04"/>
      <point x="70" y="0" type="line"/>
    </contour>
  </outline>
</glyph>
<glyph name="uni2219" format="1">
  <advance width="1233"/>
  <unicode hex="2219"/>
  <outline>
    <contour>
      <point x="488" y="559" type="line" smooth="yes" name="dv01"/>
      <point x="469" y="559"/>
      <point x="460" y="567"/>
      <point x="460" y="584" type="curve" smooth="yes"/>
      <point x="460" y="587" name="dv02"/>
      <point x="460" y="590"/>
      <point x="461" y="592" type="curve"/>
      <point x="507" y="837" type="line" smooth="yes"/>
      <point x="510" y="855" name="sv01"/>
      <point x="520" y="864"/>
      <point x="539" y="864" type="curve" smooth="yes"/>
      <point x="733" y="864" type="line" smooth="yes"/>
      <point x="753" y="864"/>
      <point x="764" y="851"/>
      <point x="760" y="831" type="curve" smooth="yes"/>
      <point x="712" y="586" type="line" smooth="yes"/>
      <point x="709" y="568"/>
      <point x="698" y="559"/>
      <point x="680" y="559" type="curve" smooth="yes"/>
    </contour>
  </outline>
</glyph>
<glyph name="uni223B" format="1">
  <advance width="1233"/>
  <unicode hex="223B"/>
  <outline>
    <contour>
      <point x="521" y="851" type="line" smooth="yes" name="dv03"/>
      <point x="501" y="851" name="dh01"/>
      <point x="491" y="861"/>
      <point x="491" y="881" type="curve" smooth="yes" name="dv04"/>
      <point x="491" y="1126" type="line" smooth="yes"/>
      <point x="491" y="1146"/>
      <point x="501" y="1156" name="dh02"/>
      <point x="521" y="1156" type="curve" smooth="yes"/>
      <point x="713" y="1156" type="line" smooth="yes"/>
      <point x="733" y="1156" name="dv08"/>
      <point x="743" y="1146"/>
      <point x="743" y="1126" type="curve" smooth="yes"/>
      <point x="743" y="881" type="line" smooth="yes" name="dv06"/>
      <point x="743" y="861"/>
      <point x="733" y="851"/>
      <point x="713" y="851" type="curve" smooth="yes" name="dv05"/>
    </contour>
    <contour>
      <point x="88" y="671" type="line"/>
      <point x="192" y="751"/>
      <point x="285" y="786" name="dv07"/>
      <point x="393" y="786" type="curve" smooth="yes" name="hr01"/>
      <point x="457" y="786" name="dv01"/>
      <point x="532" y="775" name="sh01"/>
      <point x="623" y="732" type="curve" smooth="yes"/>
      <point x="655" y="717" type="line" smooth="yes" name="dv02"/>
      <point x="732" y="681"/>
      <point x="802" y="663" name="sh02"/>
      <point x="865" y="663" type="curve" smooth="yes" name="hr02"/>
      <point x="957" y="663"/>
      <point x="1045" y="702"/>
      <point x="1145" y="786" type="curve"/>
      <point x="1145" y="611" type="line" name="hr03"/>
      <point x="1045" y="531"/>
      <point x="952" y="497"/>
      <point x="852" y="497" type="curve" smooth="yes" name="hr04"/>
      <point x="776" y="497"/>
      <point x="717" y="517"/>
      <point x="645" y="548" type="curve"/>
      <point x="629" y="556"/>
      <point x="642" y="548"/>
      <point x="612" y="562" type="curve"/>
      <point x="522" y="599"/>
      <point x="468" y="620"/>
      <point x="385" y="620" type="curve" smooth="yes" name="hr05"/>
      <point x="277" y="620"/>
      <point x="189" y="585"/>
      <point x="88" y="497" type="curve"/>
    </contour>
    <contour>
      <point x="520" y="134" type="line" smooth="yes"/>
      <point x="500" y="134"/>
      <point x="490" y="144"/>
      <point x="490" y="164" type="curve" smooth="yes"/>
      <point x="490" y="409" type="line" smooth="yes"/>
      <point x="490" y="429"/>
      <point x="500" y="439"/>
      <point x="520" y="439" type="curve" smooth="yes"/>
      <point x="712" y="439" type="line" smooth="yes"/>
      <point x="732" y="439"/>
      <point x="742" y="429"/>
      <point x="742" y="409" type="curve" smooth="yes"/>
      <point x="742" y="164" type="line" smooth="yes"/>
      <point x="742" y="144"/>
      <point x="732" y="134"/>
      <point x="712" y="134" type="curve" smooth="yes"/>
    </contour>
  </outline>
</glyph>
<glyph name="uni2242" format="1">
  <advance width="1233"/>
  <unicode hex="2242"/>
  <outline>
    <contour>
      <point x="88" y="930" type="line"/>
      <point x="1145" y="930" type="line" name="dv06"/>
      <point x="1145" y="760" type="line" name="dv05"/>
      <point x="88" y="760" type="line"/>
    </contour>
    <contour>
      <point x="88" y="479" type="line" name="hr02"/>
      <point x="192" y="562" name="dv04"/>
      <point x="287" y="596"/>
      <point x="390" y="596" type="curve" smooth="yes"/>
      <point x="463" y="596"/>
      <point x="533" y="578" name="dv02"/>
      <point x="621" y="541" type="curve" name="hr03"/>
      <point x="622" y="541" type="line" name="hr04"/>
      <point x="655" y="526" type="line" smooth="yes" name="dv01"/>
      <point x="736" y="489"/>
      <point x="797" y="471"/>
      <point x="861" y="471" type="curve" smooth="yes" name="dv03"/>
      <point x="957" y="471"/>
      <point x="1045" y="511"/>
      <point x="1145" y="596" type="curve"/>
      <point x="1145" y="420" type="line" name="hr05"/>
      <point x="1052" y="345"/>
      <point x="957" y="305"/>
      <point x="853" y="305" type="curve" smooth="yes"/>
      <point x="785" y="305"/>
      <point x="721" y="321"/>
      <point x="645" y="356" type="curve" smooth="yes"/>
      <point x="612" y="371" type="line" smooth="yes"/>
      <point x="504" y="420"/>
      <point x="435" y="430"/>
      <point x="382" y="430" type="curve" smooth="yes"/>
      <point x="274" y="430"/>
      <point x="187" y="392"/>
      <point x="88" y="305" type="curve"/>
    </contour>
  </outline>
</glyph>
<glyph name="uni2253" format="1">
  <advance width="1233"/>
  <unicode hex="2253"/>
  <outline>
    <contour>
      <point x="923" y="1000" type="line" smooth="yes" name="dv01"/>
      <point x="903" y="1000" name="ah02"/>
      <point x="893" y="1010"/>
      <point x="893" y="1030" type="curve" smooth="yes" name="dv02"/>
      <point x="893" y="1275" type="line" smooth="yes"/>
      <point x="893" y="1295"/>
      <point x="903" y="1305" name="sh01"/>
      <point x="923" y="1305" type="curve" smooth="yes"/>
      <point x="1115" y="1305" type="line" smooth="yes" name="sh03"/>
      <point x="1135" y="1305" name="sh04"/>
      <point x="1145" y="1295" name="dv04"/>
      <point x="1145" y="1275" type="curve" smooth="yes"/>
      <point x="1145" y="1030" type="line" smooth="yes"/>
      <point x="1145" y="1010" name="sh05"/>
      <point x="1135" y="1000" name="dv03"/>
      <point x="1115" y="1000" type="curve" smooth="yes" name="sh02"/>
    </contour>
    <contour>
      <point x="88" y="930" type="line" name="ab01"/>
      <point x="1145" y="930" type="line" name="sh06"/>
      <point x="1145" y="760" type="line"/>
      <point x="88" y="760" type="line" name="sv01"/>
    </contour>
    <contour>
      <point x="88" y="524" type="line"/>
      <point x="1145" y="524" type="line" name="sh07"/>
      <point x="1145" y="352" type="line"/>
      <point x="88" y="352" type="line"/>
    </contour>
    <contour>
      <point x="117" y="-20" type="line" smooth="yes" name="ah01"/>
      <point x="97" y="-20" name="sh08"/>
      <point x="87" y="-10"/>
      <point x="87" y="10" type="curve" smooth="yes"/>
      <point x="87" y="255" type="line" smooth="yes"/>
      <point x="87" y="275"/>
      <point x="97" y="285"/>
      <point x="117" y="285" type="curve" smooth="yes"/>
      <point x="309" y="285" type="line" smooth="yes"/>
      <point x="329" y="285"/>
      <point x="339" y="275"/>
      <point x="339" y="255" type="curve" smooth="yes"/>
      <point x="339" y="10" type="line" smooth="yes"/>
      <point x="339" y="-10"/>
      <point x="329" y="-20"/>
      <point x="309" y="-20" type="curve" smooth="yes"/>
    </contour>
  </outline>
</glyph>
<glyph name="uni229D" format="1">
  <advance width="1233"/>
  <unicode hex="229D"/>
  <outline>
    <contour>
      <point x="617" y="106" type="curve" smooth="yes" name="dv01"/>
      <point x="468" y="106"/>
      <point x="332" y="167" name="sh01"/>
      <point x="236" y="263" type="curve" smooth="yes"/>
      <point x="140" y="359" name="sh03"/>
      <point x="80" y="492" name="dv04"/>
      <point x="80" y="645" type="curve" smooth="yes"/>
      <point x="80" y="794" name="sh05"/>
      <point x="137" y="925"/>
      <point x="237" y="1024" type="curve" smooth="yes"/>
      <point x="289" y="1075" name="dv02"/>
      <point x="345" y="1114"/>
      <point x="412" y="1142" type="curve" smooth="yes" name="sh04"/>
      <point x="475" y="1169"/>
      <point x="542" y="1182" name="dv03"/>
      <point x="613" y="1182" type="curve" smooth="yes"/>
      <point x="770" y="1182" name="sh06"/>
      <point x="901" y="1120"/>
      <point x="997" y="1024" type="curve" smooth="yes"/>
      <point x="1101" y="920" name="sh02"/>
      <point x="1153" y="785" name="sh07"/>
      <point x="1153" y="644" type="curve" smooth="yes" name="dv05"/>
      <point x="1153" y="499"/>
      <point x="1097" y="363" name="ah01"/>
      <point x="997" y="263" type="curve" smooth="yes" name="sh08"/>
      <point x="897" y="163"/>
      <point x="762" y="106"/>
    </contour>
    <contour>
      <point x="616" y="246" type="curve" smooth="yes"/>
      <point x="717" y="246"/>
      <point x="820" y="286"/>
      <point x="897" y="362" type="curve" smooth="yes"/>
      <point x="976" y="441"/>
      <point x="1012" y="542"/>
      <point x="1012" y="643" type="curve" smooth="yes"/>
      <point x="1012" y="747"/>
      <point x="973" y="849"/>
      <point x="897" y="925" type="curve" smooth="yes"/>
      <point x="828" y="994"/>
      <point x="728" y="1041"/>
      <point x="616" y="1041" type="curve" smooth="yes"/>
      <point x="505" y="1041"/>
      <point x="405" y="994"/>
      <point x="336" y="925" type="curve" smooth="yes"/>
      <point x="256" y="845"/>
      <point x="221" y="744"/>
      <point x="221" y="644" type="curve" smooth="yes"/>
      <point x="221" y="539"/>
      <point x="260" y="438"/>
      <point x="336" y="362" type="curve" smooth="yes"/>
      <point x="404" y="294"/>
      <point x="503" y="246"/>
    </contour>
    <contour>
      <point x="415" y="712" type="line"/>
      <point x="818" y="712" type="line"/>
      <point x="818" y="572" type="line"/>
      <point x="415" y="572" type="line"/>
    </contour>
  </outline>
</glyph>
<glyph name="uni22CF" format="1">
  <advance width="1233"/>
  <unicode hex="22CF"/>
  <outline>
    <contour>
      <point x="-8" y="0" type="line" name="ab01"/>
      <point x="352" y="261" name="dh01"/>
      <point x="532" y="689" name="sh01"/>
      <point x="532" y="1284" type="curve" name="ab02"/>
      <point x="698" y="1284" type="line"/>
      <point x="698" y="689" name="dh02"/>
      <point x="878" y="261" name="ab03"/>
      <point x="1238" y="0" type="curve"/>
      <point x="998" y="0" type="line"/>
      <point x="752" y="197"/>
      <point x="624" y="395"/>
      <point x="614" y="596" type="curve" name="hr01"/>
      <point x="601" y="397"/>
      <point x="474" y="199"/>
      <point x="232" y="0" type="curve"/>
    </contour>
  </outline>
</glyph>
<glyph name="uni25BB" format="1">
  <advance width="1233"/>
  <unicode hex="25BB"/>
  <outline>
    <contour>
      <point x="6" y="929" type="line" name="dh01"/>
      <point x="1227" y="532" type="line" name="iv01"/>
      <point x="6" y="135" type="line" name="av01"/>
    </contour>
    <contour>
      <point x="942" y="532" type="line" name="iv02"/>
      <point x="120" y="758" type="line" name="dh02"/>
      <point x="120" y="306" type="line" name="iv03"/>
    </contour>
  </outline>
</glyph>
<glyph name="uni25DA" format="1">
  <advance width="1233"/>
  <unicode hex="25DA"/>
  <outline>
    <contour>
      <point x="-20" y="1576" type="line" name="dv04"/>
      <point x="1253" y="1576" type="line"/>
      <point x="1253" y="532" type="line" name="sv01"/>
      <point x="1227" y="532" type="line"/>
      <point x="1227" y="771"/>
      <point x="1125" y="943" name="dv03"/>
      <point x="921" y="1060" type="curve" smooth="yes"/>
      <point x="820" y="1119" name="sv02"/>
      <point x="718" y="1148"/>
      <point x="615" y="1148" type="curve" smooth="yes" name="dv01"/>
      <point x="516" y="1148"/>
      <point x="416" y="1121" name="dv02"/>
      <point x="311" y="1060" type="curve" smooth="yes"/>
      <point x="108" y="943"/>
      <point x="6" y="771"/>
      <point x="6" y="532" type="curve"/>
      <point x="-20" y="532" type="line"/>
    </contour>
    <contour>
      <point x="128" y="532" type="line"/>
      <point x="128" y="727"/>
      <point x="222" y="871"/>
      <point x="371" y="955" type="curve" smooth="yes"/>
      <point x="454" y="1002"/>
      <point x="540" y="1025"/>
      <point x="616" y="1025" type="curve" smooth="yes"/>
      <point x="692" y="1025"/>
      <point x="778" y="1002"/>
      <point x="861" y="955" type="curve" smooth="yes"/>
      <point x="1021" y="864"/>
      <point x="1105" y="715"/>
      <point x="1105" y="532" type="curve"/>
    </contour>
  </outline>
</glyph>
<glyph name="musicalnote" format="1">
  <advance width="1233"/>
  <unicode hex="266A"/>
  <outline>
    <contour>
      <point x="656" y="267" type="line" smooth="yes" name="hr00"/>
      <point x="647" y="222"/>
      <point x="634" y="181"/>
      <point x="617" y="143" type="curve"/>
      <point x="565" y="211"/>
      <point x="466" y="251"/>
      <point x="347" y="251" type="curve" smooth="yes"/>
      <point x="283" y="251"/>
      <point x="222" y="240"/>
      <point x="164" y="218" type="curve" smooth="yes"/>
      <point x="45" y="173"/>
      <point x="-38" y="92"/>
      <point x="-55" y="1" type="curve" smooth="yes"/>
      <point x="-57" y="-11"/>
      <point x="-58" y="-23"/>
      <point x="-58" y="-34" type="curve" smooth="yes"/>
      <point x="-58" y="-75"/>
      <point x="-45" y="-111"/>
      <point x="-18" y="-144" type="curve"/>
      <point x="34" y="-211"/>
      <point x="133" y="-251"/>
      <point x="249" y="-251" type="curve" smooth="yes"/>
      <point x="410" y="-251"/>
      <point x="517" y="-215"/>
      <point x="606" y="-132" type="curve"/>
      <point x="695" y="-51"/>
      <point x="753" y="72"/>
      <point x="790" y="267" type="curve"/>
      <point x="989" y="1290" type="line"/>
      <point x="1054" y="1163"/>
      <point x="1087" y="1029"/>
      <point x="1087" y="890" type="curve" smooth="yes"/>
      <point x="1087" y="843"/>
      <point x="1084" y="799"/>
      <point x="1079" y="756" type="curve" smooth="yes"/>
      <point x="1074" y="713"/>
      <point x="1065" y="662"/>
      <point x="1052" y="602" type="curve"/>
      <point x="1199" y="663" type="line"/>
      <point x="1220" y="769"/>
      <point x="1230" y="864"/>
      <point x="1230" y="947" type="curve" smooth="yes"/>
      <point x="1230" y="1152"/>
      <point x="1169" y="1329"/>
      <point x="1028" y="1493" type="curve"/>
      <point x="894" y="1493" type="line"/>
    </contour>
  </outline>
</glyph>
<glyph name="uni2988" format="1">
  <advance width="1233"/>
  <unicode hex="2988"/>
  <outline>
    <contour>
      <point x="477" y="1554" type="line" name="at01"/>
      <point x="820" y="1466" name="dh02"/>
      <point x="956" y="1190"/>
      <point x="956" y="875" type="curve" smooth="yes" name="av01"/>
      <point x="956" y="800" name="iv01"/>
      <point x="948" y="722"/>
      <point x="933" y="641" type="curve" smooth="yes" name="dh01"/>
      <point x="858" y="249"/>
      <point x="607" y="-158"/>
      <point x="123" y="-270" type="curve" name="sh01"/>
    </contour>
    <contour>
      <point x="258" y="-89" type="line"/>
      <point x="461" y="-37"/>
      <point x="694" y="306"/>
      <point x="758" y="641" type="curve"/>
      <point x="773" y="713"/>
      <point x="778" y="782"/>
      <point x="778" y="851" type="curve" smooth="yes"/>
      <point x="778" y="1108"/>
      <point x="687" y="1330"/>
      <point x="542" y="1373" type="curve"/>
    </contour>
  </outline>
</glyph>
<glyph name="uni2E18" format="1">
  <advance width="1233"/>
  <unicode hex="2E18"/>
  <outline>
    <contour>
      <point x="785" y="950" type="curve" smooth="yes" name="dv01"/>
      <point x="750" y="950"/>
      <point x="721" y="960" name="ah02"/>
      <point x="697" y="987" type="curve" smooth="yes"/>
      <point x="672" y="1016" name="dv02"/>
      <point x="664" y="1048"/>
      <point x="664" y="1083" type="curve" smooth="yes" name="sh01"/>
      <point x="664" y="1136"/>
      <point x="687" y="1177"/>
      <point x="719" y="1206" type="curve" smooth="yes" name="av01"/>
      <point x="751" y="1235" name="sh02"/>
      <point x="795" y="1254" name="sh03"/>
      <point x="839" y="1254" type="curve" smooth="yes"/>
      <point x="870" y="1254"/>
      <point x="906" y="1244"/>
      <point x="930" y="1217" type="curve" smooth="yes" name="sh04"/>
      <point x="950" y="1194"/>
      <point x="961" y="1161" name="sh05"/>
      <point x="961" y="1124" type="curve" smooth="yes"/>
      <point x="961" y="1079" name="ih01"/>
      <point x="944" y="1034"/>
      <point x="907" y="999" type="curve" smooth="yes"/>
      <point x="876" y="971" name="ih02"/>
      <point x="833" y="950"/>
    </contour>
    <contour>
      <point x="492" y="-400" type="curve" smooth="yes" name="sh06"/>
      <point x="266" y="-400"/>
      <point x="142" y="-290" name="ah01"/>
      <point x="142" y="-123" type="curve" smooth="yes" name="sh08"/>
      <point x="142" y="-99"/>
      <point x="145" y="-74"/>
      <point x="150" y="-47" type="curve" smooth="yes"/>
      <point x="169" y="54"/>
      <point x="226" y="135"/>
      <point x="369" y="252" type="curve" smooth="yes"/>
      <point x="474" y="338" type="line" smooth="yes"/>
      <point x="581" y="427"/>
      <point x="606" y="466"/>
      <point x="622" y="549" type="curve" smooth="yes"/>
      <point x="655" y="719" type="line"/>
      <point x="845" y="719" type="line"/>
      <point x="662" y="-222" type="line"/>
      <point x="681" y="-218"/>
      <point x="710" y="-209"/>
      <point x="729" y="-202" type="curve" smooth="yes"/>
      <point x="785" y="-183"/>
      <point x="861" y="-144"/>
      <point x="936" y="-99" type="curve"/>
      <point x="899" y="-287" type="line"/>
      <point x="768" y="-359"/>
      <point x="633" y="-400"/>
    </contour>
    <contour>
      <point x="555" y="204" type="line"/>
      <point x="501" y="159" type="line" smooth="yes"/>
      <point x="405" y="79"/>
      <point x="367" y="36"/>
      <point x="354" y="-37" type="curve" smooth="yes"/>
      <point x="351" y="-52"/>
      <point x="350" y="-66"/>
      <point x="350" y="-78" type="curve" smooth="yes"/>
      <point x="350" y="-166"/>
      <point x="409" y="-207"/>
      <point x="471" y="-226" type="curve"/>
    </contour>
  </outline>
</glyph>
<glyph name="eight.subs" format="1">
  <advance width="1233"/>
  <outline>
    <contour>
      <point x="617" y="-413" type="curve" smooth="yes" name="dv01"/>
      <point x="435" y="-413" name="dh01"/>
      <point x="321" y="-332" name="ih01"/>
      <point x="321" y="-199" type="curve" smooth="yes" name="ih02"/>
      <point x="321" y="-75" name="dv04"/>
      <point x="422" y="19" name="sh02"/>
      <point x="582" y="48" type="curve" name="ih03"/>
      <point x="482" y="77" name="dh04"/>
      <point x="437" y="133"/>
      <point x="437" y="209" type="curve" smooth="yes" name="sv01"/>
      <point x="437" y="345" name="sh01"/>
      <point x="588" y="454" name="dv03"/>
      <point x="780" y="454" type="curve" smooth="yes" name="sh03"/>
      <point x="939" y="454"/>
      <point x="1050" y="379" name="dv02"/>
      <point x="1050" y="270" type="curve" smooth="yes" name="dh03"/>
      <point x="1050" y="169" name="ab01"/>
      <point x="956" y="73" name="dh02"/>
      <point x="812" y="41" type="curve" name="hr01"/>
      <point x="929" y="18"/>
      <point x="982" y="-48" name="sh04"/>
      <point x="982" y="-143" type="curve" smooth="yes"/>
      <point x="982" y="-300"/>
      <point x="832" y="-413"/>
    </contour>
    <contour>
      <point x="716" y="88" type="curve" smooth="yes"/>
      <point x="828" y="88"/>
      <point x="915" y="163"/>
      <point x="915" y="252" type="curve" smooth="yes"/>
      <point x="915" y="325"/>
      <point x="857" y="367"/>
      <point x="768" y="367" type="curve" smooth="yes"/>
      <point x="655" y="367"/>
      <point x="573" y="300"/>
      <point x="573" y="209" type="curve" smooth="yes"/>
      <point x="573" y="133"/>
      <point x="628" y="88"/>
    </contour>
    <contour>
      <point x="625" y="-326" type="curve" smooth="yes"/>
      <point x="756" y="-326"/>
      <point x="845" y="-250"/>
      <point x="845" y="-142" type="curve" smooth="yes"/>
      <point x="845" y="-51"/>
      <point x="783" y="0"/>
      <point x="679" y="0" type="curve" smooth="yes"/>
      <point x="548" y="0"/>
      <point x="458" y="-84"/>
      <point x="458" y="-190" type="curve" smooth="yes" name="hr03"/>
      <point x="458" y="-281"/>
      <point x="522" y="-326"/>
    </contour>
  </outline>
</glyph>
<glyph name="nine.subs" format="1">
  <advance width="1233"/>
  <outline>
    <contour>
      <point x="543" y="-412" type="curve" smooth="yes" name="sh03"/>
      <point x="471" y="-412"/>
      <point x="410" y="-400"/>
      <point x="353" y="-379" type="curve" name="dv01"/>
      <point x="377" y="-275" type="line" name="ih01"/>
      <point x="429" y="-302" name="dv04"/>
      <point x="491" y="-317" name="sh01"/>
      <point x="556" y="-317" type="curve" smooth="yes"/>
      <point x="736" y="-317" name="dv03"/>
      <point x="845" y="-206" name="sh04"/>
      <point x="893" y="2" type="curve"/>
      <point x="832" y="-74"/>
      <point x="753" y="-114" name="dv05"/>
      <point x="641" y="-114" type="curve" smooth="yes" name="ah02"/>
      <point x="488" y="-114" name="dv02"/>
      <point x="396" y="-37" name="sh02"/>
      <point x="396" y="102" type="curve" smooth="yes"/>
      <point x="396" y="186" name="ah01"/>
      <point x="430" y="278" name="sh05"/>
      <point x="495" y="347" type="curve" smooth="yes"/>
      <point x="563" y="419"/>
      <point x="655" y="455"/>
      <point x="770" y="455" type="curve" smooth="yes"/>
      <point x="945" y="455"/>
      <point x="1050" y="369"/>
      <point x="1050" y="190" type="curve" smooth="yes"/>
      <point x="1050" y="83"/>
      <point x="1012" y="-64"/>
      <point x="952" y="-172" type="curve" smooth="yes"/>
      <point x="863" y="-332"/>
      <point x="727" y="-412"/>
    </contour>
    <contour>
      <point x="677" y="-26" type="curve" smooth="yes"/>
      <point x="820" y="-26"/>
      <point x="914" y="88"/>
      <point x="914" y="216" type="curve" smooth="yes"/>
      <point x="914" y="316"/>
      <point x="857" y="367"/>
      <point x="765" y="367" type="curve" smooth="yes"/>
      <point x="624" y="367"/>
      <point x="533" y="241"/>
      <point x="533" y="116" type="curve" smooth="yes"/>
      <point x="533" y="19"/>
      <point x="586" y="-26"/>
    </contour>
  </outline>
</glyph>
<glyph name="two.subs" format="1">
  <advance width="1233"/>
  <outline>
    <contour>
      <point x="328" y="-300" type="line" name="hr00"/>
      <point x="531" y="-133" type="line" smooth="yes"/>
      <point x="740" y="38" name="dh01"/>
      <point x="844" y="149" name="dv03"/>
      <point x="844" y="230" type="curve" smooth="yes"/>
      <point x="844" y="278"/>
      <point x="805" y="337" name="dv04"/>
      <point x="704" y="337" type="curve" smooth="yes" name="dh02"/>
      <point x="640" y="337"/>
      <point x="562" y="314"/>
      <point x="451" y="259" type="curve"/>
      <point x="475" y="386" type="line" name="dv02"/>
      <point x="588" y="425" name="dv01"/>
      <point x="665" y="442"/>
      <point x="737" y="442" type="curve" smooth="yes"/>
      <point x="905" y="442" name="sh01"/>
      <point x="991" y="346"/>
      <point x="991" y="251" type="curve" smooth="yes"/>
      <point x="991" y="144"/>
      <point x="885" y="7"/>
      <point x="682" y="-145" type="curve" smooth="yes"/>
      <point x="662" y="-160" type="line"/>
      <point x="492" y="-296" type="line"/>
      <point x="887" y="-296" type="line"/>
      <point x="864" y="-410" type="line"/>
      <point x="307" y="-410" type="line"/>
    </contour>
  </outline>
</glyph>
